<svg width="145" height="145" viewBox="0 0 145 145" fill="none" xmlns="http://www.w3.org/2000/svg">
<g clip-path="url(#clip0_2006_20957)">
<g filter="url(#filter0_bd_2006_20957)">
<path d="M84.2575 12.6516C77.4829 6.87847 67.519 6.87853 60.7451 12.6516L52.6007 19.592C51.633 20.4166 50.4299 20.915 49.1625 21.0161L38.4961 21.8673C29.6237 22.5753 22.5783 29.6207 21.8703 38.493L21.0191 49.1594C20.9181 50.4267 20.4196 51.6302 19.5949 52.5978L12.6545 60.742C6.88147 67.5166 6.88153 77.4799 12.6546 84.2538L19.5951 92.3986C20.4196 93.3664 20.918 94.5693 21.0191 95.8369L21.8704 106.503C22.5784 115.375 29.6239 122.42 38.4963 123.128L49.1626 123.98C50.4299 124.081 51.6328 124.579 52.6004 125.404L60.7445 132.344C67.519 138.117 77.4829 138.118 84.2575 132.344L92.4016 125.404C93.3689 124.579 94.5718 124.081 95.8393 123.98L106.506 123.128C115.378 122.421 122.423 115.376 123.132 106.503L123.983 95.8369C124.084 94.5693 124.583 93.3658 125.407 92.398L132.347 84.2544C138.121 77.4799 138.121 67.516 132.347 60.742L125.407 52.5976C124.582 51.6299 124.084 50.4267 123.983 49.1595L123.132 38.4931C122.424 29.6208 115.378 22.5752 106.506 21.8672L95.8393 21.016C94.5718 20.9149 93.3689 20.4166 92.4016 19.592L84.2575 12.6516ZM85.3159 51.1381C87.6753 48.7787 91.5007 48.7787 93.8601 51.1382C96.2195 53.4976 96.2195 57.3229 93.8601 59.6823L59.6833 93.8591C57.3238 96.2187 53.4982 96.2186 51.1388 93.859C48.7794 91.4995 48.7795 87.6741 51.1389 85.3147L85.3159 51.1381ZM61.8193 61.8181C58.28 65.3573 52.542 65.3573 49.0028 61.8181C45.4637 58.2795 45.4637 52.5412 49.0028 49.0021C52.542 45.4629 58.28 45.4629 61.8193 49.0021C65.3585 52.5412 65.3585 58.2795 61.8193 61.8181ZM83.1796 95.9952C79.6404 92.456 79.6404 86.7182 83.1796 83.179C86.7188 79.6398 92.4566 79.6398 95.9958 83.179C99.535 86.7182 99.535 92.456 95.9958 95.9952C92.4566 99.5344 86.7188 99.5344 83.1796 95.9952Z" fill="#C3C3C3" fill-opacity="0.3" style="mix-blend-mode:luminosity" shape-rendering="crispEdges"/>
<path d="M61.2478 13.2415L61.2478 13.2414C67.732 7.71525 77.2699 7.71517 83.7548 13.2415L91.8988 20.1818C91.8989 20.1818 91.8989 20.1818 91.8989 20.1819C92.9904 21.1123 94.3477 21.6745 95.7777 21.7886L106.444 22.6398C114.937 23.3175 121.682 30.0618 122.359 38.5547L123.211 49.221C123.211 49.2211 123.211 49.2211 123.211 49.2212C123.325 50.6508 123.886 52.0083 124.817 53.1002L131.757 61.2447L132.347 60.742L131.757 61.2448C137.284 67.729 137.284 77.2668 131.757 83.7517L124.817 91.8952L124.817 91.8955C123.887 92.9873 123.324 94.345 123.21 95.7753L122.359 106.441C122.359 106.441 122.359 106.441 122.359 106.441C121.681 114.935 114.937 121.679 106.444 122.356L95.7777 123.207L95.7775 123.207C94.3475 123.322 92.9903 123.884 91.8988 124.814L83.7548 131.754L84.2575 132.344L83.7548 131.754C77.2699 137.281 67.7321 137.28 61.2472 131.754L53.1031 124.814C52.0114 123.884 50.6542 123.322 49.2243 123.208C49.2242 123.208 49.2241 123.208 49.2241 123.208L38.558 122.356L38.4963 123.128L38.558 122.356C30.0649 121.678 23.3207 114.934 22.643 106.441L21.7916 95.7752C21.6775 94.3451 21.1152 92.9879 20.185 91.896L20.1849 91.8959L13.2445 83.7511L13.2445 83.7511C7.71825 77.2669 7.71817 67.7296 13.2444 61.2447L20.1848 53.1005C21.1152 52.0087 21.6776 50.651 21.7917 49.2211L22.6428 38.5547C23.3206 30.0617 30.0647 23.3176 38.5577 22.6398L49.2242 21.7886C50.6541 21.6745 52.0115 21.1123 53.1034 20.1819L61.2478 13.2415ZM94.4081 50.5902C91.7461 47.9281 87.43 47.928 84.7679 50.5901L50.5909 84.7667C47.9288 87.4288 47.9287 91.7448 50.5907 94.407C53.2528 97.0693 57.5691 97.0693 60.2313 94.4071L94.4081 60.2304C97.0701 57.5683 97.0702 53.2522 94.4081 50.5902ZM48.4548 62.3661C48.4548 62.3661 48.4548 62.3661 48.4549 62.3661C52.2967 66.2079 58.5253 66.2079 62.3673 62.3661C66.2092 58.5248 66.2092 52.2958 62.3673 48.454L61.8193 49.0021L62.3673 48.454C58.5253 44.6123 52.2966 44.6122 48.4548 48.454C44.6131 52.2958 44.613 58.5248 48.4548 62.3661ZM82.6316 82.631C78.7898 86.4728 78.7898 92.7013 82.6316 96.5432C86.4735 100.385 92.702 100.385 96.5438 96.5432C100.386 92.7013 100.386 86.4728 96.5438 82.631C92.702 78.7891 86.4735 78.7891 82.6316 82.631Z" stroke="url(#paint0_linear_2006_20957)" stroke-width="1.55" shape-rendering="crispEdges"/>
</g>
</g>
<defs>
<filter id="filter0_bd_2006_20957" x="-81.0925" y="-81.0955" width="307.187" height="307.187" filterUnits="userSpaceOnUse" color-interpolation-filters="sRGB">
<feFlood flood-opacity="0" result="BackgroundImageFix"/>
<feGaussianBlur in="BackgroundImageFix" stdDeviation="44.7086"/>
<feComposite in2="SourceAlpha" operator="in" result="effect1_backgroundBlur_2006_20957"/>
<feColorMatrix in="SourceAlpha" type="matrix" values="0 0 0 0 0 0 0 0 0 0 0 0 0 0 0 0 0 0 127 0" result="hardAlpha"/>
<feOffset dy="3.1"/>
<feGaussianBlur stdDeviation="7.75"/>
<feComposite in2="hardAlpha" operator="out"/>
<feColorMatrix type="matrix" values="0 0 0 0 0.00307692 0 0 0 0 0.110769 0 0 0 0 0.256923 0 0 0 0.3 0"/>
<feBlend mode="normal" in2="effect1_backgroundBlur_2006_20957" result="effect2_dropShadow_2006_20957"/>
<feBlend mode="normal" in="SourceGraphic" in2="effect2_dropShadow_2006_20957" result="shape"/>
</filter>
<linearGradient id="paint0_linear_2006_20957" x1="17.3165" y1="8.32175" x2="78.4682" y2="149.103" gradientUnits="userSpaceOnUse">
<stop stop-color="white" stop-opacity="0.25"/>
<stop offset="0.605751" stop-color="white" stop-opacity="0.02"/>
<stop offset="0.701033" stop-color="white" stop-opacity="0.02"/>
<stop offset="1" stop-color="white" stop-opacity="0.1"/>
</linearGradient>
<clipPath id="clip0_2006_20957">
<rect width="145" height="145" fill="white"/>
</clipPath>
</defs>
</svg>
