<svg width="18" height="18" viewBox="0 0 18 18" fill="none" xmlns="http://www.w3.org/2000/svg">
<path d="M3.75 9H3.7575M9 9H9.0075M14.25 9H14.2575M4.5 9C4.5 9.19891 4.42098 9.38968 4.28033 9.53033C4.13968 9.67098 3.94891 9.75 3.75 9.75C3.55109 9.75 3.36032 9.67098 3.21967 9.53033C3.07902 9.38968 3 9.19891 3 9C3 8.80109 3.07902 8.61032 3.21967 8.46967C3.36032 8.32902 3.55109 8.25 3.75 8.25C3.94891 8.25 4.13968 8.32902 4.28033 8.46967C4.42098 8.61032 4.5 8.80109 4.5 9ZM9.75 9C9.75 9.19891 9.67098 9.38968 9.53033 9.53033C9.38968 9.67098 9.19891 9.75 9 9.75C8.80109 9.75 8.61032 9.67098 8.46967 9.53033C8.32902 9.38968 8.25 9.19891 8.25 9C8.25 8.80109 8.32902 8.61032 8.46967 8.46967C8.61032 8.32902 8.80109 8.25 9 8.25C9.19891 8.25 9.38968 8.32902 9.53033 8.46967C9.67098 8.61032 9.75 8.80109 9.75 9ZM15 9C15 9.19891 14.921 9.38968 14.7803 9.53033C14.6397 9.67098 14.4489 9.75 14.25 9.75C14.0511 9.75 13.8603 9.67098 13.7197 9.53033C13.579 9.38968 13.5 9.19891 13.5 9C13.5 8.80109 13.579 8.61032 13.7197 8.46967C13.8603 8.32902 14.0511 8.25 14.25 8.25C14.4489 8.25 14.6397 8.32902 14.7803 8.46967C14.921 8.61032 15 8.80109 15 9Z" stroke="black" stroke-width="2" stroke-linecap="round" stroke-linejoin="round"/>
</svg>
