<svg width="10" height="10" viewBox="0 0 10 10" fill="none" xmlns="http://www.w3.org/2000/svg">
<path fill-rule="evenodd" clip-rule="evenodd" d="M0.0999756 1.50005C0.0999756 1.3144 0.173725 1.13635 0.305001 1.00507C0.436276 0.873799 0.614324 0.800049 0.799976 0.800049H9.19998C9.38563 0.800049 9.56367 0.873799 9.69495 1.00507C9.82623 1.13635 9.89997 1.3144 9.89997 1.50005C9.89997 1.6857 9.82623 1.86375 9.69495 1.99502C9.56367 2.1263 9.38563 2.20005 9.19998 2.20005H0.799976C0.614324 2.20005 0.436276 2.1263 0.305001 1.99502C0.173725 1.86375 0.0999756 1.6857 0.0999756 1.50005ZM1.49998 5.00005C1.49998 4.8144 1.57373 4.63635 1.705 4.50507C1.83628 4.3738 2.01432 4.30005 2.19998 4.30005H7.79997C7.98563 4.30005 8.16367 4.3738 8.29495 4.50507C8.42623 4.63635 8.49998 4.8144 8.49998 5.00005C8.49998 5.1857 8.42623 5.36375 8.29495 5.49502C8.16367 5.6263 7.98563 5.70005 7.79997 5.70005H2.19998C2.01432 5.70005 1.83628 5.6263 1.705 5.49502C1.57373 5.36375 1.49998 5.1857 1.49998 5.00005ZM2.19998 8.50005C2.19998 8.3144 2.27373 8.13635 2.405 8.00507C2.53628 7.8738 2.71432 7.80005 2.89998 7.80005H7.09997C7.28563 7.80005 7.46367 7.8738 7.59495 8.00507C7.72623 8.13635 7.79997 8.3144 7.79997 8.50005C7.79997 8.6857 7.72623 8.86375 7.59495 8.99502C7.46367 9.1263 7.28563 9.20005 7.09997 9.20005H2.89998C2.71432 9.20005 2.53628 9.1263 2.405 8.99502C2.27373 8.86375 2.19998 8.6857 2.19998 8.50005Z" fill="#000B19"/>
</svg>
