<svg width="13" height="12" viewBox="0 0 13 12" fill="none" xmlns="http://www.w3.org/2000/svg">
<path d="M11.5 11.25L8 7.75M9.16667 4.83333C9.16667 5.36956 9.06105 5.90054 8.85584 6.39596C8.65063 6.89137 8.34986 7.34151 7.97069 7.72069C7.59151 8.09986 7.14137 8.40063 6.64596 8.60584C6.15054 8.81105 5.61956 8.91667 5.08333 8.91667C4.5471 8.91667 4.01612 8.81105 3.52071 8.60584C3.0253 8.40063 2.57515 8.09986 2.19598 7.72069C1.81681 7.34151 1.51603 6.89137 1.31083 6.39596C1.10562 5.90054 1 5.36956 1 4.83333C1 3.75037 1.43021 2.71175 2.19598 1.94598C2.96175 1.18021 4.00037 0.75 5.08333 0.75C6.1663 0.75 7.20491 1.18021 7.97069 1.94598C8.73646 2.71175 9.16667 3.75037 9.16667 4.83333Z" stroke="#000B19" stroke-width="1.5" stroke-linecap="round" stroke-linejoin="round"/>
</svg>
