<svg width="14" height="14" viewBox="0 0 14 14" fill="none" xmlns="http://www.w3.org/2000/svg">
<path fill-rule="evenodd" clip-rule="evenodd" d="M5.39514 10.2941C5.26387 10.4253 5.08586 10.4991 4.90024 10.4991C4.71463 10.4991 4.53661 10.4253 4.40534 10.2941L1.60534 7.49411C1.47411 7.36284 1.40039 7.18483 1.40039 6.99921C1.40039 6.8136 1.47411 6.63558 1.60534 6.50431L4.40534 3.70431C4.53736 3.5768 4.71418 3.50624 4.89772 3.50784C5.08126 3.50943 5.25683 3.58305 5.38661 3.71284C5.5164 3.84262 5.59002 4.01819 5.59161 4.20173C5.59321 4.38527 5.52265 4.56209 5.39514 4.69411L3.79004 6.29921H11.9002C12.0859 6.29921 12.2639 6.37296 12.3952 6.50424C12.5265 6.63551 12.6002 6.81356 12.6002 6.99921C12.6002 7.18486 12.5265 7.36291 12.3952 7.49419C12.2639 7.62546 12.0859 7.69921 11.9002 7.69921H3.79004L5.39514 9.30431C5.52637 9.43558 5.60009 9.6136 5.60009 9.79921C5.60009 9.98483 5.52637 10.1628 5.39514 10.2941Z" fill="#000B19"/>
</svg>
