<svg width="16" height="17" viewBox="0 0 16 17" fill="none" xmlns="http://www.w3.org/2000/svg">
<path fill-rule="evenodd" clip-rule="evenodd" d="M4.23447 6.33407C4.3845 6.1841 4.58794 6.09985 4.80007 6.09985C5.0122 6.09985 5.21565 6.1841 5.36567 6.33407L8.00007 8.96847L10.6345 6.33407C10.7083 6.25767 10.7965 6.19672 10.8942 6.15479C10.9918 6.11287 11.0967 6.0908 11.203 6.08987C11.3092 6.08895 11.4145 6.10919 11.5128 6.14942C11.6112 6.18964 11.7005 6.24904 11.7756 6.32416C11.8507 6.39927 11.9101 6.48859 11.9503 6.58691C11.9906 6.68523 12.0108 6.79057 12.0099 6.8968C12.009 7.00302 11.9869 7.10799 11.945 7.2056C11.903 7.3032 11.8421 7.39148 11.7657 7.46527L8.56567 10.6653C8.41565 10.8153 8.2122 10.8995 8.00007 10.8995C7.78794 10.8995 7.5845 10.8153 7.43447 10.6653L4.23447 7.46527C4.0845 7.31525 4.00024 7.11181 4.00024 6.89967C4.00024 6.68754 4.0845 6.4841 4.23447 6.33407Z" fill="#878E97"/>
</svg>
