<svg width="23" height="14" viewBox="0 0 23 14" fill="none" xmlns="http://www.w3.org/2000/svg">
<path fill-rule="evenodd" clip-rule="evenodd" d="M11.2795 12.353C10.1348 13.3194 8.64997 13.9028 7.02743 13.9028C3.40702 13.9028 0.472107 10.9982 0.472107 7.41524C0.472107 3.83229 3.40702 0.927734 7.02743 0.927734C8.64998 0.927734 10.1349 1.51113 11.2796 2.47753C12.4242 1.51114 13.9091 0.927754 15.5316 0.927754C19.1521 0.927754 22.087 3.83231 22.087 7.41526C22.087 10.9982 19.1521 13.9028 15.5316 13.9028C13.9091 13.9028 12.4242 13.3194 11.2795 12.353Z" fill="#ED0006"/>
<path fill-rule="evenodd" clip-rule="evenodd" d="M11.2795 12.353C12.689 11.163 13.5827 9.39244 13.5827 7.41524C13.5827 5.43805 12.689 3.66744 11.2795 2.47751C12.4242 1.51112 13.9091 0.927734 15.5316 0.927734C19.152 0.927734 22.0869 3.83229 22.0869 7.41524C22.0869 10.9982 19.152 13.9028 15.5316 13.9028C13.9091 13.9028 12.4242 13.3194 11.2795 12.353Z" fill="#F9A000"/>
<path fill-rule="evenodd" clip-rule="evenodd" d="M11.2796 12.3539C12.689 11.164 13.5828 9.39339 13.5828 7.41622C13.5828 5.43904 12.689 3.66844 11.2796 2.47852C9.87011 3.66844 8.97638 5.43904 8.97638 7.41622C8.97638 9.39339 9.87011 11.164 11.2796 12.3539Z" fill="#FF5E00"/>
</svg>
