<svg width="32" height="32" viewBox="0 0 32 32" fill="none" xmlns="http://www.w3.org/2000/svg">
<g filter="url(#filter0_b_653_11339)">
<rect width="32" height="32" rx="16" fill="#C3C3C3" fill-opacity="0.3" style="mix-blend-mode:luminosity"/>
<rect x="0.5" y="0.5" width="31" height="31" rx="15.5" stroke="url(#paint0_linear_653_11339)"/>
<path d="M19.3333 21.3346L16.8888 18.8902M17.9259 16.2976C17.9259 16.7742 17.832 17.2462 17.6496 17.6866C17.4672 18.127 17.1998 18.5271 16.8628 18.8641C16.5257 19.2012 16.1256 19.4685 15.6853 19.6509C15.2449 19.8333 14.7729 19.9272 14.2963 19.9272C13.8196 19.9272 13.3476 19.8333 12.9073 19.6509C12.4669 19.4685 12.0668 19.2012 11.7297 18.8641C11.3927 18.5271 11.1253 18.127 10.9429 17.6866C10.7605 17.2462 10.6666 16.7742 10.6666 16.2976C10.6666 15.335 11.049 14.4118 11.7297 13.7311C12.4104 13.0504 13.3336 12.668 14.2963 12.668C15.2589 12.668 16.1821 13.0504 16.8628 13.7311C17.5435 14.4118 17.9259 15.335 17.9259 16.2976Z" stroke="white" stroke-width="1.33333" stroke-linecap="round" stroke-linejoin="round"/>
<path fill-rule="evenodd" clip-rule="evenodd" d="M22.6667 14.668C22.5488 14.668 22.4357 14.6211 22.3524 14.5378C22.269 14.4544 22.2222 14.3414 22.2222 14.2235V13.7791H21.7778C21.6599 13.7791 21.5469 13.7323 21.4635 13.6489C21.3802 13.5656 21.3333 13.4525 21.3333 13.3346C21.3333 13.2168 21.3802 13.1037 21.4635 13.0204C21.5469 12.937 21.6599 12.8902 21.7778 12.8902H22.2222V12.4457C22.2222 12.3279 22.269 12.2148 22.3524 12.1315C22.4357 12.0481 22.5488 12.0013 22.6667 12.0013C22.7845 12.0013 22.8976 12.0481 22.9809 12.1315C23.0643 12.2148 23.1111 12.3279 23.1111 12.4457V12.8902H23.5556C23.6734 12.8902 23.7865 12.937 23.8698 13.0204C23.9532 13.1037 24 13.2168 24 13.3346C24 13.4525 23.9532 13.5656 23.8698 13.6489C23.7865 13.7323 23.6734 13.7791 23.5556 13.7791H23.1111V14.2235C23.1111 14.3414 23.0643 14.4544 22.9809 14.5378C22.8976 14.6211 22.7845 14.668 22.6667 14.668Z" fill="white"/>
<path d="M19.5775 13.2869C19.6287 13.3263 19.6915 13.3477 19.7561 13.3477C19.8207 13.3476 19.8834 13.3262 19.9345 13.2869C19.9856 13.2475 20.0223 13.1923 20.0389 13.1299L20.3842 11.8259L21.3659 11.2596C21.4104 11.2339 21.4473 11.1969 21.473 11.1524C21.4987 11.108 21.5122 11.0575 21.5122 11.0061C21.5122 10.9547 21.4987 10.9043 21.473 10.8598C21.4473 10.8153 21.4104 10.7783 21.3659 10.7526L20.3842 10.1866L20.0391 8.88232C20.0226 8.81994 19.9859 8.76479 19.9347 8.72544C19.8835 8.68609 19.8208 8.66475 19.7563 8.66475C19.6917 8.66475 19.629 8.68609 19.5778 8.72544C19.5267 8.76479 19.49 8.81994 19.4734 8.88232L19.128 10.1863L18.1464 10.7526C18.1019 10.7783 18.0649 10.8153 18.0392 10.8598C18.0136 10.9043 18 10.9547 18 11.0061C18 11.0575 18.0136 11.108 18.0392 11.1524C18.0649 11.1969 18.1019 11.2339 18.1464 11.2596L19.128 11.8256L19.4731 13.1299C19.4896 13.1923 19.5264 13.2476 19.5775 13.2869Z" fill="white"/>
</g>
<defs>
<filter id="filter0_b_653_11339" x="-115.377" y="-115.377" width="262.754" height="262.754" filterUnits="userSpaceOnUse" color-interpolation-filters="sRGB">
<feFlood flood-opacity="0" result="BackgroundImageFix"/>
<feGaussianBlur in="BackgroundImageFix" stdDeviation="57.6885"/>
<feComposite in2="SourceAlpha" operator="in" result="effect1_backgroundBlur_653_11339"/>
<feBlend mode="normal" in="SourceGraphic" in2="effect1_backgroundBlur_653_11339" result="shape"/>
</filter>
<linearGradient id="paint0_linear_653_11339" x1="2.24176" y1="-7.09502e-06" x2="17.4878" y2="35.0987" gradientUnits="userSpaceOnUse">
<stop stop-color="white" stop-opacity="0.25"/>
<stop offset="0.605751" stop-color="white" stop-opacity="0.02"/>
<stop offset="0.701033" stop-color="white" stop-opacity="0.02"/>
<stop offset="1" stop-color="white" stop-opacity="0.1"/>
</linearGradient>
</defs>
</svg>
