<svg width="20" height="20" viewBox="0 0 20 20" fill="none" xmlns="http://www.w3.org/2000/svg">
<path d="M1.66602 16.6654H3.33268M3.33268 16.6654H12.4993M3.33268 16.6654V11.9722C3.33268 11.5344 3.33268 11.3154 3.38518 11.1112C3.43171 10.9302 3.50829 10.7586 3.61182 10.603C3.72856 10.4276 3.89196 10.2807 4.21729 9.98845L6.13527 8.26534C6.76421 7.7003 7.07892 7.41756 7.43476 7.3103C7.74846 7.21574 8.08327 7.21574 8.39697 7.3103C8.75311 7.41765 9.06824 7.70053 9.69824 8.26652L11.6149 9.98845C11.9406 10.281 12.1031 10.4275 12.2199 10.603C12.3234 10.7586 12.3999 10.9302 12.4465 11.1112C12.499 11.3154 12.4993 11.5344 12.4993 11.9722V16.6654M12.4993 16.6654H16.666M16.666 16.6654H18.3327M16.666 16.6654V5.99612C16.666 5.06453 16.666 4.59803 16.4845 4.24186C16.3247 3.92826 16.0691 3.67348 15.7555 3.51369C15.399 3.33203 14.9329 3.33203 13.9995 3.33203H8.49951C7.56609 3.33203 7.09903 3.33203 6.74251 3.51369C6.42891 3.67348 6.17413 3.92826 6.01434 4.24186C5.83268 4.59838 5.83268 5.06544 5.83268 5.99886V8.33219" stroke="white" stroke-width="1.5" stroke-linecap="round" stroke-linejoin="round"/>
</svg>
