<svg width="20" height="20" viewBox="0 0 20 20" fill="none" xmlns="http://www.w3.org/2000/svg">
<path fill-rule="evenodd" clip-rule="evenodd" d="M16.7081 5.29279C16.8956 5.48031 17.0009 5.73462 17.0009 5.99979C17.0009 6.26495 16.8956 6.51926 16.7081 6.70679L8.70814 14.7068C8.52061 14.8943 8.2663 14.9996 8.00114 14.9996C7.73598 14.9996 7.48167 14.8943 7.29414 14.7068L3.29414 10.7068C3.11198 10.5182 3.01119 10.2656 3.01347 10.0034C3.01574 9.74119 3.12091 9.49038 3.30632 9.30497C3.49173 9.11956 3.74254 9.01439 4.00474 9.01211C4.26693 9.00983 4.51954 9.11063 4.70814 9.29279L8.00114 12.5858L15.2941 5.29279C15.4817 5.10532 15.736 5 16.0011 5C16.2663 5 16.5206 5.10532 16.7081 5.29279Z" fill="#878E97"/>
</svg>
