<svg width="20" height="20" viewBox="0 0 20 20" fill="none" xmlns="http://www.w3.org/2000/svg">
<path d="M9.99967 5.0026V3.33594M9.99967 5.0026C9.55765 5.0026 9.13372 5.1782 8.82116 5.49076C8.5086 5.80332 8.33301 6.22724 8.33301 6.66927C8.33301 7.1113 8.5086 7.53522 8.82116 7.84778C9.13372 8.16034 9.55765 8.33594 9.99967 8.33594M9.99967 5.0026C10.4417 5.0026 10.8656 5.1782 11.1782 5.49076C11.4907 5.80332 11.6663 6.22724 11.6663 6.66927C11.6663 7.1113 11.4907 7.53522 11.1782 7.84778C10.8656 8.16034 10.4417 8.33594 9.99967 8.33594M9.99967 8.33594V16.6693M4.99967 15.0026C5.4417 15.0026 5.86563 14.827 6.17819 14.5144C6.49075 14.2019 6.66634 13.778 6.66634 13.3359C6.66634 12.8939 6.49075 12.47 6.17819 12.1574C5.86563 11.8449 5.4417 11.6693 4.99967 11.6693M4.99967 15.0026C4.55765 15.0026 4.13372 14.827 3.82116 14.5144C3.5086 14.2019 3.33301 13.778 3.33301 13.3359C3.33301 12.8939 3.5086 12.47 3.82116 12.1574C4.13372 11.8449 4.55765 11.6693 4.99967 11.6693M4.99967 15.0026V16.6693M4.99967 11.6693V3.33594M14.9997 15.0026C15.4417 15.0026 15.8656 14.827 16.1782 14.5144C16.4907 14.2019 16.6663 13.778 16.6663 13.3359C16.6663 12.8939 16.4907 12.47 16.1782 12.1574C15.8656 11.8449 15.4417 11.6693 14.9997 11.6693M14.9997 15.0026C14.5576 15.0026 14.1337 14.827 13.8212 14.5144C13.5086 14.2019 13.333 13.778 13.333 13.3359C13.333 12.8939 13.5086 12.47 13.8212 12.1574C14.1337 11.8449 14.5576 11.6693 14.9997 11.6693M14.9997 15.0026V16.6693M14.9997 11.6693V3.33594" stroke="#000B19" stroke-width="1.5" stroke-linecap="round" stroke-linejoin="round"/>
</svg>
