<svg width="16" height="17" viewBox="0 0 16 17" fill="none" xmlns="http://www.w3.org/2000/svg">
<path d="M7.24074 2.84166C7.48074 2.10486 8.52314 2.10486 8.76234 2.84166L9.61834 5.47526C9.67064 5.63565 9.7723 5.77541 9.9088 5.87455C10.0453 5.97369 10.2096 6.02714 10.3783 6.02726H13.1479C13.9231 6.02726 14.2447 7.01926 13.6183 7.47526L11.3783 9.10246C11.2416 9.20169 11.1397 9.34167 11.0874 9.50234C11.0351 9.66302 11.035 9.83613 11.0871 9.99686L11.9431 12.6305C12.1831 13.3673 11.3391 13.9809 10.7111 13.5249L8.47114 11.8977C8.33451 11.7985 8.16999 11.745 8.00114 11.745C7.83229 11.745 7.66778 11.7985 7.53114 11.8977L5.29114 13.5249C4.66394 13.9809 3.82074 13.3673 4.05994 12.6305L4.91594 9.99686C4.96808 9.83613 4.96799 9.66302 4.91568 9.50234C4.86336 9.34167 4.76152 9.20169 4.62474 9.10246L2.38554 7.47606C1.75914 7.02006 2.08154 6.02806 2.85594 6.02806H5.62474C5.79358 6.02811 5.9581 5.97473 6.09476 5.87558C6.23142 5.77643 6.3332 5.63658 6.38554 5.47606L7.24154 2.84246L7.24074 2.84166Z" fill="#F4B003"/>
</svg>
