<svg width="24" height="24" viewBox="0 0 24 24" fill="none" xmlns="http://www.w3.org/2000/svg">
<path d="M14.9766 6.41406C14.6589 6.41406 14.3698 6.33854 14.1094 6.1875C13.849 6.03125 13.6406 5.82552 13.4844 5.57031C13.3333 5.3099 13.2578 5.02083 13.2578 4.70312C13.2578 4.38542 13.3333 4.09896 13.4844 3.84375C13.6406 3.58333 13.849 3.3776 14.1094 3.22656C14.3698 3.07552 14.6589 3 14.9766 3C15.2891 3 15.5729 3.07552 15.8281 3.22656C16.0885 3.3776 16.2943 3.58333 16.4453 3.84375C16.5964 4.09896 16.6719 4.38542 16.6719 4.70312C16.6719 5.02083 16.5964 5.3099 16.4453 5.57031C16.2943 5.82552 16.0885 6.03125 15.8281 6.1875C15.5729 6.33854 15.2891 6.41406 14.9766 6.41406ZM9.65625 20.3594C9.43229 20.3594 9.24219 20.2812 9.08594 20.125C8.92969 19.9688 8.85156 19.7786 8.85156 19.5547V15.1719L8.25 11.6406L4.67188 11.0469C4.46875 11.0104 4.30469 10.9271 4.17969 10.7969C4.0599 10.6615 4 10.4609 4 10.1953V5.39844C4 5.15885 4.07292 4.96615 4.21875 4.82031C4.36979 4.66927 4.5651 4.59375 4.80469 4.59375C5.04948 4.59375 5.24479 4.66927 5.39062 4.82031C5.54167 4.96615 5.61719 5.15885 5.61719 5.39844V9.45312H9.65625C10.0885 9.45312 10.4714 9.35417 10.8047 9.15625C11.138 8.95312 11.4167 8.67188 11.6406 8.3125C11.7031 8.20833 11.7135 8.10677 11.6719 8.00781C11.6354 7.90885 11.5677 7.84115 11.4688 7.80469L7.21094 6.38281C6.95573 6.29948 6.78646 6.15625 6.70312 5.95312C6.625 5.74479 6.61719 5.54427 6.67969 5.35156C6.74219 5.15885 6.86198 5.00521 7.03906 4.89062C7.22135 4.77083 7.45052 4.75781 7.72656 4.85156L19.5703 8.80469C19.8255 8.88802 19.9922 9.03385 20.0703 9.24219C20.1484 9.44531 20.1562 9.64323 20.0938 9.83594C20.0365 10.0286 19.9167 10.1849 19.7344 10.3047C19.5521 10.4193 19.3255 10.4297 19.0547 10.3359L15.1016 9.00781C14.9453 8.95052 14.8203 8.9401 14.7266 8.97656C14.6328 9.00781 14.5703 9.0625 14.5391 9.14062C14.1641 9.94792 13.6146 10.6276 12.8906 11.1797C12.1667 11.7266 11.3594 12.0729 10.4688 12.2188V19.5547C10.4688 19.7786 10.388 19.9688 10.2266 20.125C10.0651 20.2812 9.875 20.3594 9.65625 20.3594Z" fill="white"/>
</svg>
