<svg width="14" height="15" viewBox="0 0 14 15" fill="none" xmlns="http://www.w3.org/2000/svg">
<path fill-rule="evenodd" clip-rule="evenodd" d="M5.39514 10.7941C5.26387 10.9253 5.08586 10.9991 4.90024 10.9991C4.71463 10.9991 4.53661 10.9253 4.40534 10.7941L1.60534 7.99411C1.47411 7.86284 1.40039 7.68483 1.40039 7.49921C1.40039 7.3136 1.47411 7.13558 1.60534 7.00431L4.40534 4.20431C4.53736 4.0768 4.71418 4.00624 4.89772 4.00784C5.08126 4.00943 5.25683 4.08305 5.38661 4.21284C5.5164 4.34262 5.59002 4.51819 5.59161 4.70173C5.59321 4.88527 5.52265 5.06209 5.39514 5.19411L3.79004 6.79921H11.9002C12.0859 6.79921 12.2639 6.87296 12.3952 7.00424C12.5265 7.13551 12.6002 7.31356 12.6002 7.49921C12.6002 7.68486 12.5265 7.86291 12.3952 7.99419C12.2639 8.12546 12.0859 8.19921 11.9002 8.19921H3.79004L5.39514 9.80431C5.52637 9.93558 5.60009 10.1136 5.60009 10.2992C5.60009 10.4848 5.52637 10.6628 5.39514 10.7941Z" fill="white"/>
</svg>
