<svg width="14" height="15" viewBox="0 0 14 15" fill="none" xmlns="http://www.w3.org/2000/svg">
<g clip-path="url(#clip0_1674_17172)">
<path fill-rule="evenodd" clip-rule="evenodd" d="M3.81803 4.03025C3.81806 3.84464 3.89181 3.66664 4.02306 3.53539C4.1543 3.40414 4.33231 3.33039 4.51792 3.33036L10.4576 3.33036C10.6432 3.33039 10.8212 3.40414 10.9525 3.53539C11.0837 3.66664 11.1575 3.84464 11.1575 4.03025L11.1575 9.96995C11.1591 10.0629 11.1422 10.1552 11.1078 10.2415C11.0733 10.3279 11.022 10.4065 10.9569 10.4728C10.8917 10.5391 10.814 10.5917 10.7283 10.6277C10.6426 10.6636 10.5506 10.6821 10.4576 10.6821C10.3647 10.6821 10.2727 10.6636 10.1869 10.6277C10.1012 10.5917 10.0235 10.5391 9.95836 10.4728C9.89321 10.4065 9.84192 10.3279 9.80747 10.2415C9.77302 10.1552 9.75611 10.0629 9.75773 9.96995L9.75773 5.7201L4.02295 11.4549C3.89167 11.5862 3.71363 11.6599 3.52798 11.6599C3.34232 11.6599 3.16428 11.5862 3.033 11.4549C2.90173 11.3236 2.82798 11.1456 2.82798 10.9599C2.82798 10.7743 2.90173 10.5962 3.033 10.4649L8.76778 4.73015L4.51792 4.73015C4.33231 4.73012 4.1543 4.65637 4.02306 4.52512C3.89181 4.39387 3.81806 4.21587 3.81803 4.03025Z" fill="white"/>
</g>
<defs>
<clipPath id="clip0_1674_17172">
<rect width="14" height="14" fill="white" transform="translate(0 0.5)"/>
</clipPath>
</defs>
</svg>
