<svg width="24" height="24" viewBox="0 0 24 24" fill="none" xmlns="http://www.w3.org/2000/svg">
<path d="M9.17157 8.70793C7.60948 7.14584 7.60948 4.61318 9.17157 3.05108L11.2929 0.929767C11.6834 0.539241 12.3166 0.539243 12.7071 0.92977L14.8284 3.05108C16.3905 4.61318 16.3905 7.14584 14.8284 8.70793C14.3039 9.23247 13.6699 9.58086 13 9.75316V11.3765H18C18.5523 11.3765 19 11.8242 19 12.3765V21.7765H20C20.5523 21.7765 21 22.2242 21 22.7765C21 23.3287 20.5523 23.7765 20 23.7765H4C3.44772 23.7765 3 23.3287 3 22.7765C3 22.2242 3.44772 21.7765 4 21.7765H5V12.3765C5 11.8242 5.44772 11.3765 6 11.3765H11V9.75316C10.3301 9.58086 9.69611 9.23247 9.17157 8.70793ZM10.5858 4.46529C9.80474 5.24635 9.80474 6.51267 10.5858 7.29373C11.3668 8.07477 12.6332 8.07477 13.4142 7.29373C14.1953 6.51267 14.1953 5.24635 13.4142 4.46529L12 3.05108L10.5858 4.46529ZM7 13.3765V21.7765H17V13.3765H7Z" fill="white"/>
</svg>
