<svg width="20" height="20" viewBox="0 0 20 20" fill="none" xmlns="http://www.w3.org/2000/svg">
<path d="M3.33398 16.6667H9.12005M9.12005 16.6667H9.21459M9.12005 16.6667C9.13579 16.6668 9.15155 16.6669 9.16732 16.6669C9.18309 16.6669 9.19885 16.6668 9.21459 16.6667M9.12005 16.6667C5.92015 16.6413 3.33398 14.039 3.33398 10.8331V7.43571C3.33398 7.01088 3.67819 6.66667 4.10303 6.66667H14.2312C14.6561 6.66667 15.0007 7.01088 15.0007 7.43571V7.5M9.21459 16.6667H15.0007M9.21459 16.6667C12.4145 16.6413 15.0007 14.039 15.0007 10.8331M15.0007 7.5H16.2507C17.4012 7.5 18.334 8.43274 18.334 9.58333C18.334 10.7339 17.4012 11.6667 16.2507 11.6667H15.0007V10.8331M15.0007 7.5V10.8331M12.5007 2.5L11.6673 4.16667M10.0007 2.5L9.16732 4.16667M7.50065 2.5L6.66732 4.16667" stroke="white" stroke-width="1.5" stroke-linecap="round" stroke-linejoin="round"/>
</svg>
