<svg width="16" height="16" viewBox="0 0 16 16" fill="none" xmlns="http://www.w3.org/2000/svg">
<path fill-rule="evenodd" clip-rule="evenodd" d="M3.20156 2.39844C2.77722 2.39844 2.37025 2.56701 2.07019 2.86707C1.77013 3.16712 1.60156 3.57409 1.60156 3.99844V11.9984C1.60156 12.4228 1.77013 12.8298 2.07019 13.1298C2.37025 13.4299 2.77722 13.5984 3.20156 13.5984H12.8016C13.2259 13.5984 13.6329 13.4299 13.9329 13.1298C14.233 12.8298 14.4016 12.4228 14.4016 11.9984V3.99844C14.4016 3.57409 14.233 3.16712 13.9329 2.86707C13.6329 2.56701 13.2259 2.39844 12.8016 2.39844H3.20156ZM12.8016 11.9984H3.20156L6.40156 5.59844L8.80156 10.3984L10.4016 7.19844L12.8016 11.9984Z" fill="#0C343D"/>
</svg>
