<svg width="33" height="33" viewBox="0 0 33 33" fill="none" xmlns="http://www.w3.org/2000/svg">
<g filter="url(#filter0_b_1513_25631)">
<path d="M0 16.5C0 7.3873 7.3873 0 16.5 0C25.6127 0 33 7.3873 33 16.5C33 25.6127 25.6127 33 16.5 33C7.3873 33 0 25.6127 0 16.5Z" fill="#C3C3C3" fill-opacity="0.3" style="mix-blend-mode:luminosity"/>
<path d="M0.5 16.5C0.5 7.66344 7.66344 0.5 16.5 0.5C25.3366 0.5 32.5 7.66344 32.5 16.5C32.5 25.3366 25.3366 32.5 16.5 32.5C7.66344 32.5 0.5 25.3366 0.5 16.5Z" stroke="url(#paint0_linear_1513_25631)"/>
<path d="M11.166 19.168L14.2233 16.1106C14.4734 15.8607 14.8125 15.7203 15.166 15.7203C15.5196 15.7203 15.8586 15.8607 16.1087 16.1106L19.166 19.168M17.8327 17.8346L18.89 16.7773C19.1401 16.5273 19.4791 16.3869 19.8327 16.3869C20.1862 16.3869 20.5253 16.5273 20.7753 16.7773L21.8327 17.8346M17.8327 13.8346H17.8393M12.4993 21.8346H20.4993C20.853 21.8346 21.1921 21.6942 21.4422 21.4441C21.6922 21.1941 21.8327 20.8549 21.8327 20.5013V12.5013C21.8327 12.1477 21.6922 11.8085 21.4422 11.5585C21.1921 11.3084 20.853 11.168 20.4993 11.168H12.4993C12.1457 11.168 11.8066 11.3084 11.5565 11.5585C11.3065 11.8085 11.166 12.1477 11.166 12.5013V20.5013C11.166 20.8549 11.3065 21.1941 11.5565 21.4441C11.8066 21.6942 12.1457 21.8346 12.4993 21.8346Z" stroke="white" stroke-width="1.5" stroke-linecap="round" stroke-linejoin="round"/>
</g>
<defs>
<filter id="filter0_b_1513_25631" x="-115.377" y="-115.377" width="263.754" height="263.754" filterUnits="userSpaceOnUse" color-interpolation-filters="sRGB">
<feFlood flood-opacity="0" result="BackgroundImageFix"/>
<feGaussianBlur in="BackgroundImageFix" stdDeviation="57.6885"/>
<feComposite in2="SourceAlpha" operator="in" result="effect1_backgroundBlur_1513_25631"/>
<feBlend mode="normal" in="SourceGraphic" in2="effect1_backgroundBlur_1513_25631" result="shape"/>
</filter>
<linearGradient id="paint0_linear_1513_25631" x1="2.31181" y1="-7.31674e-06" x2="18.0342" y2="36.1955" gradientUnits="userSpaceOnUse">
<stop stop-color="white" stop-opacity="0.25"/>
<stop offset="0.605751" stop-color="white" stop-opacity="0.02"/>
<stop offset="0.701033" stop-color="white" stop-opacity="0.02"/>
<stop offset="1" stop-color="white" stop-opacity="0.1"/>
</linearGradient>
</defs>
</svg>
