<svg width="24" height="24" viewBox="0 0 24 24" fill="none" xmlns="http://www.w3.org/2000/svg">
<path d="M13.0821 6.26087C13.7266 6.26087 14.365 6.38546 14.9621 6.62778L18.5542 8.0854C18.9447 8.2439 19.2008 8.62759 19.2008 9.05427V22.9565C19.2008 23.5328 18.7403 24 18.1722 24H5.82935C5.26129 24 4.80078 23.5328 4.80078 22.9565V9.05427C4.80078 8.62759 5.05684 8.2439 5.44735 8.0854L9.03942 6.62779C9.6366 6.38546 10.275 6.26087 10.9195 6.26087H13.0821ZM14.566 8.71478C13.9688 8.47243 13.3304 8.34783 12.6859 8.34783H11.3157C10.6712 8.34783 10.0328 8.47244 9.43556 8.71478L7.4819 9.50759C7.10469 9.66067 6.85792 10.0271 6.85792 10.4342V21.913H17.1436V20.8696H10.4436C10.1675 20.8696 9.94364 20.6457 9.94364 20.3696V16.1522C9.94364 15.876 10.1675 15.6522 10.4436 15.6522H17.1436V10.4342C17.1436 10.0271 16.8969 9.66067 16.5197 9.50759L14.566 8.71478ZM14.0579 0C14.626 0 15.0865 0.467175 15.0865 1.04348V4.21739C15.0865 4.76967 14.6388 5.21739 14.0865 5.21739H9.91507C9.36278 5.21739 8.91507 4.76967 8.91507 4.21739V1.04348C8.91507 0.467175 9.37558 0 9.94364 0H14.0579ZM13.0294 2.08696H10.9722V3.13043H13.0294V2.08696Z" fill="white"/>
</svg>
