<svg width="20" height="20" viewBox="0 0 20 20" fill="none" xmlns="http://www.w3.org/2000/svg">
<path d="M3.67521 13.957C3.47521 16.3654 5.29188 18.332 7.70854 18.332H11.7002C14.4169 18.332 16.2835 16.1404 15.8335 13.457C15.3585 10.6404 12.6419 8.33203 9.78354 8.33203C6.68354 8.33203 3.93354 10.8654 3.67521 13.957Z" stroke="white" stroke-width="1.5" stroke-linecap="round" stroke-linejoin="round"/>
<path d="M8.72591 6.2487C9.87651 6.2487 10.8092 5.31596 10.8092 4.16536C10.8092 3.01477 9.87651 2.08203 8.72591 2.08203C7.57532 2.08203 6.64258 3.01477 6.64258 4.16536C6.64258 5.31596 7.57532 6.2487 8.72591 6.2487Z" stroke="white" stroke-width="1.5" stroke-linecap="round" stroke-linejoin="round"/>
<path d="M14.4167 7.2513C15.3371 7.2513 16.0833 6.50511 16.0833 5.58464C16.0833 4.66416 15.3371 3.91797 14.4167 3.91797C13.4962 3.91797 12.75 4.66416 12.75 5.58464C12.75 6.50511 13.4962 7.2513 14.4167 7.2513Z" stroke="white" stroke-width="1.5" stroke-linecap="round" stroke-linejoin="round"/>
<path d="M17.5 10.582C18.1904 10.582 18.75 10.0224 18.75 9.33203C18.75 8.64168 18.1904 8.08203 17.5 8.08203C16.8096 8.08203 16.25 8.64168 16.25 9.33203C16.25 10.0224 16.8096 10.582 17.5 10.582Z" stroke="white" stroke-width="1.5" stroke-linecap="round" stroke-linejoin="round"/>
<path d="M3.30924 8.91536C4.22972 8.91536 4.97591 8.16917 4.97591 7.2487C4.97591 6.32822 4.22972 5.58203 3.30924 5.58203C2.38877 5.58203 1.64258 6.32822 1.64258 7.2487C1.64258 8.16917 2.38877 8.91536 3.30924 8.91536Z" stroke="white" stroke-width="1.5" stroke-linecap="round" stroke-linejoin="round"/>
</svg>
