<svg width="80" height="80" viewBox="0 0 80 80" fill="none" xmlns="http://www.w3.org/2000/svg">
<path fill-rule="evenodd" clip-rule="evenodd" d="M16 12C13.8783 12 11.8434 12.8429 10.3431 14.3431C8.84285 15.8434 8 17.8783 8 20V60C8 62.1217 8.84285 64.1566 10.3431 65.6569C11.8434 67.1571 13.8783 68 16 68H64C66.1217 68 68.1566 67.1571 69.6569 65.6569C71.1571 64.1566 72 62.1217 72 60V20C72 17.8783 71.1571 15.8434 69.6569 14.3431C68.1566 12.8429 66.1217 12 64 12H16ZM64 60H16L32 28L44 52L52 36L64 60Z" fill="white"/>
</svg>
