<svg width="14" height="15" viewBox="0 0 14 15" fill="none" xmlns="http://www.w3.org/2000/svg">
<path fill-rule="evenodd" clip-rule="evenodd" d="M6.99961 2.60156C7.18526 2.60156 7.36331 2.67531 7.49458 2.80659C7.62586 2.93786 7.69961 3.11591 7.69961 3.30156V6.80156H11.1996C11.3853 6.80156 11.5633 6.87531 11.6946 7.00659C11.8259 7.13786 11.8996 7.31591 11.8996 7.50156C11.8996 7.68721 11.8259 7.86526 11.6946 7.99654C11.5633 8.12781 11.3853 8.20156 11.1996 8.20156H7.69961V11.7016C7.69961 11.8872 7.62586 12.0653 7.49458 12.1965C7.36331 12.3278 7.18526 12.4016 6.99961 12.4016C6.81396 12.4016 6.63591 12.3278 6.50463 12.1965C6.37336 12.0653 6.29961 11.8872 6.29961 11.7016V8.20156H2.79961C2.61396 8.20156 2.43591 8.12781 2.30463 7.99654C2.17336 7.86526 2.09961 7.68721 2.09961 7.50156C2.09961 7.31591 2.17336 7.13786 2.30463 7.00659C2.43591 6.87531 2.61396 6.80156 2.79961 6.80156H6.29961V3.30156C6.29961 3.11591 6.37336 2.93786 6.50463 2.80659C6.63591 2.67531 6.81396 2.60156 6.99961 2.60156Z" fill="white"/>
</svg>
