<svg width="24" height="24" viewBox="0 0 24 24" fill="none" xmlns="http://www.w3.org/2000/svg">
<path fill-rule="evenodd" clip-rule="evenodd" d="M11.9994 21.5984C14.5455 21.5984 16.9873 20.587 18.7876 18.7867C20.588 16.9863 21.5994 14.5445 21.5994 11.9984C21.5994 9.45236 20.588 7.01056 18.7876 5.21021C16.9873 3.40986 14.5455 2.39844 11.9994 2.39844C9.45334 2.39844 7.01154 3.40986 5.21119 5.21021C3.41084 7.01056 2.39941 9.45236 2.39941 11.9984C2.39941 14.5445 3.41084 16.9863 5.21119 18.7867C7.01154 20.587 9.45334 21.5984 11.9994 21.5984ZM13.1994 8.39844C13.1994 8.08018 13.073 7.77495 12.8479 7.54991C12.6229 7.32487 12.3177 7.19844 11.9994 7.19844C11.6812 7.19844 11.3759 7.32487 11.1509 7.54991C10.9258 7.77495 10.7994 8.08018 10.7994 8.39844V10.7984H8.39941C8.08115 10.7984 7.77593 10.9249 7.55089 11.1499C7.32584 11.375 7.19941 11.6802 7.19941 11.9984C7.19941 12.3167 7.32584 12.6219 7.55089 12.847C7.77593 13.072 8.08115 13.1984 8.39941 13.1984H10.7994V15.5984C10.7994 15.9167 10.9258 16.2219 11.1509 16.447C11.3759 16.672 11.6812 16.7984 11.9994 16.7984C12.3177 16.7984 12.6229 16.672 12.8479 16.447C13.073 16.2219 13.1994 15.9167 13.1994 15.5984V13.1984H15.5994C15.9177 13.1984 16.2229 13.072 16.4479 12.847C16.673 12.6219 16.7994 12.3167 16.7994 11.9984C16.7994 11.6802 16.673 11.375 16.4479 11.1499C16.2229 10.9249 15.9177 10.7984 15.5994 10.7984H13.1994V8.39844Z" fill="white"/>
</svg>
