<svg width="16" height="17" viewBox="0 0 16 17" fill="none" xmlns="http://www.w3.org/2000/svg">
<path fill-rule="evenodd" clip-rule="evenodd" d="M2.40039 14.1014C2.40039 13.8892 2.48468 13.6857 2.63471 13.5357C2.78473 13.3857 2.98822 13.3014 3.20039 13.3014H12.8004C13.0126 13.3014 13.216 13.3857 13.3661 13.5357C13.5161 13.6857 13.6004 13.8892 13.6004 14.1014C13.6004 14.3136 13.5161 14.517 13.3661 14.6671C13.216 14.8171 13.0126 14.9014 12.8004 14.9014H3.20039C2.98822 14.9014 2.78473 14.8171 2.63471 14.6671C2.48468 14.517 2.40039 14.3136 2.40039 14.1014ZM5.03479 5.86699C4.88481 5.71697 4.80056 5.51352 4.80056 5.30139C4.80056 5.08926 4.88481 4.88581 5.03479 4.73579L7.43479 2.33579C7.58481 2.18581 7.78826 2.10156 8.00039 2.10156C8.21252 2.10156 8.41597 2.18581 8.56599 2.33579L10.966 4.73579C11.1117 4.88667 11.1924 5.08876 11.1905 5.29851C11.1887 5.50827 11.1046 5.70892 10.9562 5.85725C10.8079 6.00557 10.6073 6.08971 10.3975 6.09153C10.1878 6.09335 9.98567 6.01272 9.83479 5.86699L8.80039 4.83259V10.9014C8.80039 11.1136 8.7161 11.317 8.56608 11.4671C8.41605 11.6171 8.21256 11.7014 8.00039 11.7014C7.78822 11.7014 7.58473 11.6171 7.43471 11.4671C7.28468 11.317 7.20039 11.1136 7.20039 10.9014V4.83259L6.16599 5.86699C6.01597 6.01697 5.81252 6.10122 5.60039 6.10122C5.38826 6.10122 5.18481 6.01697 5.03479 5.86699Z" fill="white"/>
</svg>
