<svg width="20" height="20" viewBox="0 0 20 20" fill="none" xmlns="http://www.w3.org/2000/svg">
<path d="M6.9515 12.1595C7.3397 11.7432 7.80908 11.4109 8.33068 11.183C8.85229 10.9551 9.41547 10.8367 9.98468 10.8347C10.5539 10.8327 11.1174 10.9474 11.6406 11.1717C12.1638 11.3959 12.6356 11.7249 13.0267 12.1385M5.1237 9.62125C5.74482 8.95517 6.49583 8.42343 7.33039 8.05882C8.16496 7.6942 9.06524 7.50454 9.97597 7.50136C10.8867 7.49818 11.788 7.68172 12.6251 8.0405C13.4622 8.39928 14.2173 8.92582 14.8431 9.58754M2.68555 7.34826C3.61723 6.34915 4.74374 5.55154 5.99559 5.00462C7.24744 4.4577 8.59745 4.1728 9.96355 4.16803C11.3296 4.16326 12.6832 4.43857 13.9388 4.97674C15.1945 5.5149 16.3268 6.30512 17.2654 7.2977M9.99919 15.8347C9.53895 15.8347 9.16585 15.4616 9.16585 15.0014C9.16585 14.5411 9.53895 14.168 9.99919 14.168C10.4594 14.168 10.8325 14.5411 10.8325 15.0014C10.8325 15.4616 10.4594 15.8347 9.99919 15.8347Z" stroke="white" stroke-width="1.5" stroke-linecap="round" stroke-linejoin="round"/>
</svg>
