<svg width="20" height="20" viewBox="0 0 20 20" fill="none" xmlns="http://www.w3.org/2000/svg">
<path d="M13.9693 5.41667C14.427 4.90521 15.0923 4.58333 15.8327 4.58333C17.2134 4.58333 18.3327 5.70262 18.3327 7.08333C18.3327 8.46404 17.2134 9.58333 15.8327 9.58333H10.8327M5.63593 3.33333C6.0937 2.82188 6.75893 2.5 7.49935 2.5C8.88006 2.5 9.99935 3.61929 9.99935 5C9.99935 6.38071 8.88006 7.5 7.49935 7.5H1.66602M8.96926 16.6667C9.42703 17.1781 10.0923 17.5 10.8327 17.5C12.2134 17.5 13.3327 16.3807 13.3327 15C13.3327 13.6193 12.2134 12.5 10.8327 12.5H1.66602" stroke="white" stroke-width="1.5" stroke-linecap="round" stroke-linejoin="round"/>
</svg>
