<svg width="18" height="17" viewBox="0 0 18 17" fill="none" xmlns="http://www.w3.org/2000/svg">
<path d="M4.83333 16C3.94928 16 3.10143 15.6488 2.47631 15.0237C1.85119 14.3986 1.5 13.5507 1.5 12.6667V2.66667C1.5 2.22464 1.67559 1.80072 1.98816 1.48816C2.30072 1.17559 2.72464 1 3.16667 1H6.5C6.94203 1 7.36595 1.17559 7.67851 1.48816C7.99107 1.80072 8.16667 2.22464 8.16667 2.66667V12.6667C8.16667 13.5507 7.81548 14.3986 7.19036 15.0237M4.83333 16C5.71739 16 6.56523 15.6488 7.19036 15.0237M4.83333 16H14.8333C15.2754 16 15.6993 15.8244 16.0118 15.5118C16.3244 15.1993 16.5 14.7754 16.5 14.3333V11C16.5 10.558 16.3244 10.134 16.0118 9.82149C15.6993 9.50893 15.2754 9.33333 14.8333 9.33333H12.8808M7.19036 15.0237L14.2617 7.9525C14.5741 7.63995 14.7496 7.21611 14.7496 6.77417C14.7496 6.33223 14.5741 5.90838 14.2617 5.59583L11.9042 3.23833C11.5916 2.92588 11.1678 2.75036 10.7258 2.75036C10.2839 2.75036 9.86005 2.92588 9.5475 3.23833L8.16667 4.61917M4.83333 12.6667H4.84167" stroke="#000B19" stroke-width="1.5" stroke-linecap="round" stroke-linejoin="round"/>
</svg>
