<svg width="20" height="20" viewBox="0 0 20 20" fill="none" xmlns="http://www.w3.org/2000/svg">
<path d="M6.46788 5.83333V2.5M13.1345 5.83333V2.5M5.63454 9.16667H13.9679M3.96788 17.5H15.6345C16.0766 17.5 16.5005 17.3244 16.8131 17.0118C17.1256 16.6993 17.3012 16.2754 17.3012 15.8333V5.83333C17.3012 5.39131 17.1256 4.96738 16.8131 4.65482C16.5005 4.34226 16.0766 4.16667 15.6345 4.16667H3.96788C3.52585 4.16667 3.10192 4.34226 2.78936 4.65482C2.4768 4.96738 2.30121 5.39131 2.30121 5.83333V15.8333C2.30121 16.2754 2.4768 16.6993 2.78936 17.0118C3.10192 17.3244 3.52585 17.5 3.96788 17.5Z" stroke="#000B19" stroke-width="1.5" stroke-linecap="round" stroke-linejoin="round"/>
</svg>
