<svg width="14" height="10" viewBox="0 0 14 10" fill="none" xmlns="http://www.w3.org/2000/svg">
    <path fill-rule="evenodd" clip-rule="evenodd" d="M13.7084 0.292787C13.8959 0.480314 14.0012 0.734622 14.0012 0.999786C14.0012 1.26495 13.8959 1.51926 13.7084 1.70679L5.70838 9.70679C5.52086 9.89426 5.26655 9.99957 5.00138 9.99957C4.73622 9.99957 4.48191 9.89426 4.29438 9.70679L0.294384 5.70679C0.112226 5.51818 0.0114313 5.26558 0.0137097 5.00339C0.0159881 4.74119 0.121157 4.49038 0.306565 4.30497C0.491973 4.11956 0.742786 4.01439 1.00498 4.01211C1.26718 4.00983 1.51978 4.11063 1.70838 4.29279L5.00138 7.58579L12.2944 0.292787C12.4819 0.105316 12.7362 0 13.0014 0C13.2665 0 13.5209 0.105316 13.7084 0.292787Z" fill="#ABCF6F"/>
    </svg>
    