<svg width="20" height="21" viewBox="0 0 20 21" fill="none" xmlns="http://www.w3.org/2000/svg">
<path d="M14.3479 14.3806L10.8121 17.9164C10.6575 18.0712 10.4739 18.194 10.2717 18.2778C10.0696 18.3616 9.85298 18.4047 9.63419 18.4047C9.4154 18.4047 9.19875 18.3616 8.99664 18.2778C8.79452 18.194 8.6109 18.0712 8.45627 17.9164L4.91961 14.3806C3.98729 13.4482 3.35238 12.2603 3.09518 10.9671C2.83797 9.67395 2.97001 8.33352 3.47461 7.11536C3.9792 5.89721 4.83369 4.85604 5.93001 4.12351C7.02633 3.39098 8.31524 3 9.63377 3C10.9523 3 12.2412 3.39098 13.3375 4.12351C14.4339 4.85604 15.2883 5.89721 15.7929 7.11536C16.2975 8.33352 16.4296 9.67395 16.1724 10.9671C15.9152 12.2603 15.2803 13.4482 14.3479 14.3806Z" stroke="#000B19" stroke-width="1.5" stroke-linecap="round" stroke-linejoin="round"/>
<path d="M12.1338 9.66406C12.1338 10.3271 11.8704 10.963 11.4016 11.4318C10.9327 11.9007 10.2968 12.1641 9.63379 12.1641C8.97075 12.1641 8.33486 11.9007 7.86602 11.4318C7.39718 10.963 7.13379 10.3271 7.13379 9.66406C7.13379 9.00102 7.39718 8.36514 7.86602 7.8963C8.33486 7.42745 8.97075 7.16406 9.63379 7.16406C10.2968 7.16406 10.9327 7.42745 11.4016 7.8963C11.8704 8.36514 12.1338 9.00102 12.1338 9.66406Z" stroke="#000B19" stroke-width="1.5" stroke-linecap="round" stroke-linejoin="round"/>
</svg>
