<svg width="20" height="20" viewBox="0 0 20 20" fill="none" xmlns="http://www.w3.org/2000/svg">
<path fill-rule="evenodd" clip-rule="evenodd" d="M5 8.5V6.5C5 5.17392 5.52678 3.90215 6.46447 2.96447C7.40215 2.02678 8.67392 1.5 10 1.5C11.3261 1.5 12.5979 2.02678 13.5355 2.96447C14.4732 3.90215 15 5.17392 15 6.5V8.5C15.5304 8.5 16.0391 8.71071 16.4142 9.08579C16.7893 9.46086 17 9.96957 17 10.5V16.5C17 17.0304 16.7893 17.5391 16.4142 17.9142C16.0391 18.2893 15.5304 18.5 15 18.5H5C4.46957 18.5 3.96086 18.2893 3.58579 17.9142C3.21071 17.5391 3 17.0304 3 16.5V10.5C3 9.96957 3.21071 9.46086 3.58579 9.08579C3.96086 8.71071 4.46957 8.5 5 8.5ZM13 6.5V8.5H7V6.5C7 5.70435 7.31607 4.94129 7.87868 4.37868C8.44129 3.81607 9.20435 3.5 10 3.5C10.7956 3.5 11.5587 3.81607 12.1213 4.37868C12.6839 4.94129 13 5.70435 13 6.5Z" fill="#C3C6CB"/>
</svg>
