<svg width="40" height="40" viewBox="0 0 40 40" fill="none" xmlns="http://www.w3.org/2000/svg">
<rect x="0.5" y="0.5" width="39" height="39" rx="7.5" stroke="#DBECF0"/>
<g clip-path="url(#clip0_771_14413)">
<path d="M22.61 14.5195H16.3916V25.6796H22.61V14.5195Z" fill="#FF5F00"/>
<path d="M16.7864 20.0999C16.7864 17.931 17.7932 15.8607 19.491 14.5199C16.4113 12.0946 11.9499 12.627 9.52171 15.7226C7.09355 18.7986 7.62656 23.2547 10.7259 25.6799C13.312 27.7108 16.9246 27.7108 19.5107 25.6799C17.7932 24.3391 16.7864 22.2688 16.7864 20.0999Z" fill="#EB001B"/>
<path d="M31.0001 20.0999C31.0001 24.0237 27.8217 27.1982 23.8933 27.1982C22.2942 27.1982 20.7544 26.6658 19.5107 25.6799C22.5904 23.2547 23.1234 18.7986 20.6952 15.7029C20.3399 15.2691 19.945 14.8551 19.5107 14.5199C22.5904 12.0946 27.0716 12.627 29.48 15.7226C30.467 16.9648 31.0001 18.5028 31.0001 20.0999Z" fill="#F79E1B"/>
<path d="M30.3286 24.4987V24.2621H30.4273V24.2227H30.1904V24.2621H30.2891V24.4987H30.3286ZM30.7827 24.4987V24.2227H30.7037L30.6247 24.4198L30.5458 24.2227H30.4668V24.4987H30.526V24.2818L30.605 24.4593H30.6642L30.7432 24.2818V24.4987H30.7827Z" fill="#F79E1B"/>
</g>
<defs>
<clipPath id="clip0_771_14413">
<rect width="23.25" height="14.3519" fill="white" transform="translate(8 13)"/>
</clipPath>
</defs>
</svg>
