<svg width="60" height="60" viewBox="0 0 60 60" fill="none" xmlns="http://www.w3.org/2000/svg">
    <g clip-path="url(#clip0_604_30285)">
    <path d="M60 30C60 46.5685 46.5685 60 30 60C13.4315 60 0 46.5685 0 30C0 13.4315 13.4315 0 30 0C46.5685 0 60 13.4315 60 30ZM4.50193 30C4.50193 44.0822 15.9178 55.4981 30 55.4981C44.0822 55.4981 55.4981 44.0822 55.4981 30C55.4981 15.9178 44.0822 4.50193 30 4.50193C15.9178 4.50193 4.50193 15.9178 4.50193 30Z" fill="#DBECF0"/>
    <mask id="path-2-outside-1_604_30285" maskUnits="userSpaceOnUse" x="27" y="-2" width="35" height="60" fill="black">
    <rect fill="white" x="27" y="-2" width="35" height="60"/>
    <path d="M43.8745 54.0314C44.4961 55.108 45.8785 55.4837 46.9055 54.7832C51.7467 51.4809 55.5295 46.8217 57.7627 41.3682C60.2809 35.2181 60.6859 28.406 58.9139 22.001C57.142 15.5959 53.2934 9.96052 47.9723 5.97927C43.2538 2.44886 37.6142 0.396394 31.7641 0.0518826C30.5231 -0.021201 29.5303 1.0116 29.5505 2.25461C29.5706 3.49762 30.5965 4.4786 31.8364 4.56812C36.688 4.91838 41.3556 6.65116 45.2753 9.58392C49.7979 12.9677 53.0689 17.7575 54.575 23.2013C56.081 28.6452 55.7369 34.4351 53.5965 39.6622C51.7414 44.1926 48.6281 48.0779 44.6464 50.8719C43.6287 51.586 43.2529 52.9548 43.8745 54.0314Z"/>
    </mask>
    <path d="M43.8745 54.0314C44.4961 55.108 45.8785 55.4837 46.9055 54.7832C51.7467 51.4809 55.5295 46.8217 57.7627 41.3682C60.2809 35.2181 60.6859 28.406 58.9139 22.001C57.142 15.5959 53.2934 9.96052 47.9723 5.97927C43.2538 2.44886 37.6142 0.396394 31.7641 0.0518826C30.5231 -0.021201 29.5303 1.0116 29.5505 2.25461C29.5706 3.49762 30.5965 4.4786 31.8364 4.56812C36.688 4.91838 41.3556 6.65116 45.2753 9.58392C49.7979 12.9677 53.0689 17.7575 54.575 23.2013C56.081 28.6452 55.7369 34.4351 53.5965 39.6622C51.7414 44.1926 48.6281 48.0779 44.6464 50.8719C43.6287 51.586 43.2529 52.9548 43.8745 54.0314Z" fill="#ABCF6F"/>
    <path d="M43.8745 54.0314C44.4961 55.108 45.8785 55.4837 46.9055 54.7832C51.7467 51.4809 55.5295 46.8217 57.7627 41.3682C60.2809 35.2181 60.6859 28.406 58.9139 22.001C57.142 15.5959 53.2934 9.96052 47.9723 5.97927C43.2538 2.44886 37.6142 0.396394 31.7641 0.0518826C30.5231 -0.021201 29.5303 1.0116 29.5505 2.25461C29.5706 3.49762 30.5965 4.4786 31.8364 4.56812C36.688 4.91838 41.3556 6.65116 45.2753 9.58392C49.7979 12.9677 53.0689 17.7575 54.575 23.2013C56.081 28.6452 55.7369 34.4351 53.5965 39.6622C51.7414 44.1926 48.6281 48.0779 44.6464 50.8719C43.6287 51.586 43.2529 52.9548 43.8745 54.0314Z" stroke="#F5F9FF" stroke-width="4" mask="url(#path-2-outside-1_604_30285)"/>
    </g>
    <defs>
    <clipPath id="clip0_604_30285">
    <rect width="60" height="60" fill="white"/>
    </clipPath>
    </defs>
    </svg>
    