<svg width="40" height="40" viewBox="0 0 40 40" fill="none" xmlns="http://www.w3.org/2000/svg">
<rect x="0.5" y="0.5" width="39" height="39" rx="7.5" stroke="#DBECF0"/>
<path d="M25.8209 15.7589C25.8655 13.4402 23.9522 11.6602 21.3213 11.6602H15.8805C15.7537 11.6602 15.631 11.7055 15.5346 11.7879C15.4382 11.8703 15.3744 11.9845 15.3547 12.1097L13.1742 25.7331C13.1645 25.7948 13.1682 25.8579 13.1852 25.9181C13.2022 25.9782 13.232 26.034 13.2726 26.0815C13.3132 26.129 13.3636 26.1672 13.4203 26.1933C13.4771 26.2195 13.5388 26.2331 13.6013 26.2331H16.8251L16.3209 29.3881C16.3112 29.4498 16.3149 29.513 16.3319 29.5732C16.3489 29.6333 16.3788 29.6891 16.4194 29.7366C16.46 29.7842 16.5105 29.8223 16.5673 29.8485C16.6241 29.8746 16.6859 29.8881 16.7484 29.8881H19.3742C19.5013 29.8881 19.6142 29.8422 19.7105 29.7602C19.8067 29.6777 19.8226 29.5639 19.8422 29.4385L20.613 24.9031C20.6326 24.7781 20.6963 24.6156 20.793 24.5331C20.8892 24.4506 20.9734 24.4056 21.1001 24.4052H22.7076C25.2838 24.4052 27.4701 22.5743 27.8697 20.0272C28.1522 18.2189 27.3767 16.5743 25.8209 15.7589Z" fill="#001C64"/>
<path d="M17.5243 21.2117L16.7214 26.3034L16.2172 29.4967C16.2075 29.5585 16.2112 29.6216 16.2282 29.6818C16.2452 29.742 16.2751 29.7978 16.3157 29.8453C16.3563 29.8928 16.4068 29.931 16.4636 29.9571C16.5204 29.9832 16.5822 29.9968 16.6447 29.9967H19.4239C19.5506 29.9966 19.6732 29.9512 19.7695 29.8688C19.8658 29.7864 19.9296 29.6723 19.9493 29.5471L20.6818 24.9055C20.7015 24.7803 20.7653 24.6663 20.8616 24.5839C20.958 24.5016 21.0805 24.4563 21.2072 24.4563H22.8435C25.4197 24.4563 27.6055 22.5771 28.0051 20.0301C28.2885 18.2221 27.3785 16.5776 25.8226 15.7617C25.8185 15.9542 25.8018 16.1463 25.7722 16.3367C25.3726 18.8834 23.1864 20.763 20.6101 20.763H18.0497C17.9231 20.763 17.8006 20.8082 17.7043 20.8905C17.6079 20.9727 17.5441 21.0866 17.5243 21.2117Z" fill="#0070E0"/>
<path d="M16.7205 26.2984H13.4871C13.4246 26.2985 13.3628 26.285 13.3061 26.2588C13.2493 26.2327 13.1988 26.1945 13.1582 26.147C13.1176 26.0995 13.0878 26.0437 13.0709 25.9835C13.0539 25.9233 13.0502 25.8602 13.0601 25.7984L15.2401 11.9726C15.2598 11.8474 15.3236 11.7333 15.4201 11.6509C15.5165 11.5686 15.6391 11.5234 15.7659 11.5234H21.323C23.9534 11.5234 25.8667 13.438 25.8221 15.7568C25.1676 15.4134 24.3984 15.2172 23.5555 15.2172H18.9226C18.7959 15.2173 18.6734 15.2626 18.5771 15.3449C18.4808 15.4273 18.417 15.5412 18.3971 15.6664L17.5242 21.2068L16.7205 26.2984Z" fill="#003087"/>
</svg>
