
<svg width="43" height="29" viewBox="0 0 43 29" fill="none" xmlns="http://www.w3.org/2000/svg">
    <path d="M0 14.5C0 6.49187 6.49187 0 14.5 0H28.5C36.5081 0 43 6.49187 43 14.5C43 22.5081 36.5081 29 28.5 29H14.5C6.49187 29 0 22.5081 0 14.5Z" fill="url(#paint0_linear_604_30134)"/>
    <path d="M10.3652 15.5088V20H9.20312V9.99219H11.3018C12.0355 9.99219 12.5755 10.0309 12.9219 10.1084C13.2682 10.1859 13.569 10.3135 13.8242 10.4912C14.1432 10.7191 14.3916 11.0312 14.5693 11.4277C14.7516 11.8242 14.8428 12.264 14.8428 12.7471C14.8428 13.2301 14.7516 13.6699 14.5693 14.0664C14.3916 14.4629 14.1432 14.7751 13.8242 15.0029C13.569 15.1852 13.2682 15.3151 12.9219 15.3926C12.5801 15.4701 12.04 15.5088 11.3018 15.5088H10.9668H10.3652ZM10.3652 14.4287H10.9668C11.9876 14.4287 12.6735 14.3102 13.0244 14.0732C13.3799 13.8317 13.5576 13.4124 13.5576 12.8154C13.5576 12.1774 13.3753 11.7285 13.0107 11.4688C12.6507 11.209 11.9694 11.0791 10.9668 11.0791H10.3652V14.4287ZM16.3125 20V9.99219H18.6641C19.334 9.99219 19.8239 10.0309 20.1338 10.1084C20.4482 10.1813 20.724 10.3089 20.9609 10.4912C21.2572 10.7236 21.4873 11.0358 21.6514 11.4277C21.8154 11.8151 21.8975 12.2458 21.8975 12.7197C21.8975 13.54 21.6673 14.1644 21.207 14.5928C20.7513 15.0166 20.0814 15.2285 19.1973 15.2285H18.9854L22.8066 20H21.2959L17.6455 15.2285H17.4746V20H16.3125ZM17.4746 10.9971V14.3467H18.3838C19.3135 14.3467 19.9355 14.2282 20.25 13.9912C20.5645 13.7497 20.7217 13.3304 20.7217 12.7334C20.7217 12.0908 20.5599 11.6419 20.2363 11.3867C19.9128 11.127 19.2952 10.9971 18.3838 10.9971H17.4746ZM28.6924 19.1455C29.2393 19.1455 29.7588 19.043 30.251 18.8379C30.7477 18.6283 31.1943 18.3252 31.5908 17.9287C31.9827 17.5368 32.2812 17.0924 32.4863 16.5957C32.6914 16.099 32.7939 15.5726 32.7939 15.0166C32.7939 14.4561 32.6891 13.9229 32.4795 13.417C32.2744 12.9111 31.9782 12.4645 31.5908 12.0771C31.1989 11.6852 30.7546 11.3867 30.2578 11.1816C29.7656 10.9766 29.2438 10.874 28.6924 10.874C28.1364 10.874 27.61 10.9766 27.1133 11.1816C26.6165 11.3867 26.1768 11.6852 25.7939 12.0771C25.402 12.4736 25.1035 12.9225 24.8984 13.4238C24.6934 13.9251 24.5908 14.4561 24.5908 15.0166C24.5908 15.5726 24.6911 16.0967 24.8916 16.5889C25.0967 17.0811 25.3975 17.5277 25.7939 17.9287C26.195 18.3298 26.6393 18.6328 27.127 18.8379C27.6191 19.043 28.141 19.1455 28.6924 19.1455ZM34.0381 15.0166C34.0381 15.7321 33.9059 16.4066 33.6416 17.04C33.3773 17.6735 32.9922 18.2363 32.4863 18.7285C31.9805 19.2207 31.3971 19.6012 30.7363 19.8701C30.0801 20.1344 29.3988 20.2666 28.6924 20.2666C27.986 20.2666 27.3047 20.1344 26.6484 19.8701C25.9967 19.6012 25.418 19.2207 24.9121 18.7285C24.4017 18.2318 24.012 17.6667 23.7432 17.0332C23.4788 16.3997 23.3467 15.7275 23.3467 15.0166C23.3467 14.3011 23.4788 13.6266 23.7432 12.9932C24.012 12.3551 24.4017 11.7878 24.9121 11.291C25.4134 10.8034 25.9922 10.4274 26.6484 10.1631C27.3047 9.89876 27.986 9.7666 28.6924 9.7666C29.4033 9.7666 30.0869 9.89876 30.7432 10.1631C31.404 10.4274 31.985 10.8034 32.4863 11.291C32.9922 11.7832 33.3773 12.3483 33.6416 12.9863C33.9059 13.6198 34.0381 14.2965 34.0381 15.0166Z" fill="white"/>
    <defs>
    <linearGradient id="paint0_linear_604_30134" x1="47.8091" y1="14.5" x2="-9.08464" y2="19.4177" gradientUnits="userSpaceOnUse">
    <stop stop-color="#5CB170"/>
    <stop offset="1" stop-color="#D6DE6D"/>
    </linearGradient>
    </defs>
    </svg>
    