<svg width="13" height="13" viewBox="0 0 13 13" fill="none" xmlns="http://www.w3.org/2000/svg">
    <path fill-rule="evenodd" clip-rule="evenodd" d="M0.294007 1.29357C0.481535 1.1061 0.735843 1.00078 1.00101 1.00078C1.26617 1.00078 1.52048 1.1061 1.70801 1.29357L6.00101 5.58657L10.294 1.29357C10.3863 1.19806 10.4966 1.12188 10.6186 1.06947C10.7406 1.01706 10.8718 0.989473 11.0046 0.988319C11.1374 0.987165 11.2691 1.01247 11.392 1.06275C11.5149 1.11303 11.6265 1.18728 11.7204 1.28117C11.8143 1.37507 11.8885 1.48672 11.9388 1.60962C11.9891 1.73251 12.0144 1.86419 12.0133 1.99697C12.0121 2.12975 11.9845 2.26097 11.9321 2.38297C11.8797 2.50498 11.8035 2.61532 11.708 2.70757L7.41501 7.00057L11.708 11.2936C11.8902 11.4822 11.991 11.7348 11.9887 11.997C11.9864 12.2592 11.8812 12.51 11.6958 12.6954C11.5104 12.8808 11.2596 12.986 10.9974 12.9882C10.7352 12.9905 10.4826 12.8897 10.294 12.7076L6.00101 8.41457L1.70801 12.7076C1.5194 12.8897 1.2668 12.9905 1.00461 12.9882C0.742409 12.986 0.491597 12.8808 0.306189 12.6954C0.12078 12.51 0.0156113 12.2592 0.0133328 11.997C0.0110544 11.7348 0.111849 11.4822 0.294007 11.2936L4.58701 7.00057L0.294007 2.70757C0.106536 2.52004 0.0012207 2.26573 0.0012207 2.00057C0.0012207 1.73541 0.106536 1.4811 0.294007 1.29357Z" fill="#D56C6C"/>
    </svg>
    