<svg width="16" height="16" viewBox="0 0 16 16" fill="none" xmlns="http://www.w3.org/2000/svg">
<path fill-rule="evenodd" clip-rule="evenodd" d="M9.49 1.17C9.11 -0.39 6.89 -0.39 6.51 1.17C6.45327 1.40442 6.34199 1.62213 6.18522 1.80541C6.02846 1.9887 5.83063 2.13238 5.60785 2.22477C5.38506 2.31716 5.14361 2.35564 4.90314 2.33709C4.66267 2.31854 4.42998 2.24347 4.224 2.118C2.852 1.282 1.282 2.852 2.118 4.224C2.658 5.11 2.179 6.266 1.171 6.511C-0.389998 6.89 -0.389998 9.111 1.171 9.489C1.40548 9.54581 1.62323 9.65719 1.80651 9.81407C1.9898 9.97096 2.13344 10.1689 2.22574 10.3918C2.31804 10.6147 2.35639 10.8563 2.33767 11.0968C2.31895 11.3373 2.24368 11.5701 2.118 11.776C1.282 13.148 2.852 14.718 4.224 13.882C4.42994 13.7563 4.66265 13.6811 4.90319 13.6623C5.14372 13.6436 5.38527 13.682 5.60818 13.7743C5.83109 13.8666 6.02904 14.0102 6.18593 14.1935C6.34282 14.3768 6.4542 14.5945 6.511 14.829C6.89 16.39 9.111 16.39 9.489 14.829C9.546 14.5946 9.65749 14.377 9.81441 14.1939C9.97133 14.0107 10.1693 13.8672 10.3921 13.7749C10.6149 13.6826 10.8564 13.6442 11.0969 13.6628C11.3373 13.6815 11.57 13.7565 11.776 13.882C13.148 14.718 14.718 13.148 13.882 11.776C13.7565 11.57 13.6815 11.3373 13.6628 11.0969C13.6442 10.8564 13.6826 10.6149 13.7749 10.3921C13.8672 10.1692 14.0107 9.97133 14.1939 9.81441C14.377 9.65749 14.5946 9.546 14.829 9.489C16.39 9.11 16.39 6.889 14.829 6.511C14.5945 6.45419 14.3768 6.34281 14.1935 6.18593C14.0102 6.02904 13.8666 5.83109 13.7743 5.60818C13.682 5.38527 13.6436 5.14372 13.6623 4.90318C13.6811 4.66265 13.7563 4.42994 13.882 4.224C14.718 2.852 13.148 1.282 11.776 2.118C11.5701 2.24368 11.3374 2.31895 11.0968 2.33767C10.8563 2.35639 10.6147 2.31804 10.3918 2.22574C10.1689 2.13344 9.97096 1.9898 9.81407 1.80651C9.65719 1.62323 9.54581 1.40548 9.489 1.171L9.49 1.17ZM8 11C8.79565 11 9.55871 10.6839 10.1213 10.1213C10.6839 9.55871 11 8.79565 11 8C11 7.20435 10.6839 6.44129 10.1213 5.87868C9.55871 5.31607 8.79565 5 8 5C7.20435 5 6.44129 5.31607 5.87868 5.87868C5.31607 6.44129 5 7.20435 5 8C5 8.79565 5.31607 9.55871 5.87868 10.1213C6.44129 10.6839 7.20435 11 8 11Z" fill="#000B19"/>
</svg>
