<svg width="16" height="16" viewBox="0 0 16 16" fill="none" xmlns="http://www.w3.org/2000/svg">
<path d="M7.28658 1.69384C7.51158 1.00309 8.48883 1.00309 8.71308 1.69384L9.85233 5.19934C9.90136 5.34971 9.99667 5.48073 10.1246 5.57367C10.2526 5.66662 10.4067 5.71673 10.5648 5.71684H14.2511C14.9778 5.71684 15.2793 6.64684 14.6921 7.07434L11.7101 9.24034C11.582 9.33347 11.4867 9.46474 11.4377 9.61537C11.3888 9.766 11.3889 9.92824 11.4378 10.0788L12.5763 13.5843C12.8013 14.2758 12.0101 14.8503 11.4228 14.4228L8.44083 12.2568C8.31266 12.1637 8.15828 12.1135 7.99983 12.1135C7.84137 12.1135 7.68699 12.1637 7.55883 12.2568L4.57683 14.4228C3.98958 14.8503 3.19833 14.2751 3.42333 13.5843L4.56183 10.0788C4.61079 9.92824 4.61081 9.766 4.56191 9.61537C4.513 9.46474 4.41767 9.33347 4.28958 9.24034L1.30758 7.07434C0.719577 6.64684 1.02258 5.71684 1.74858 5.71684H5.43408C5.59236 5.71689 5.7466 5.66685 5.87472 5.57389C6.00284 5.48094 6.09826 5.34983 6.14733 5.19934L7.28658 1.69384Z" stroke="#000B19" stroke-width="1.5" stroke-linecap="round" stroke-linejoin="round"/>
</svg>
