<svg width="12" height="12" viewBox="0 0 12 12" fill="none" xmlns="http://www.w3.org/2000/svg">
    <rect width="12" height="12" rx="6" fill="white"/>
    <path fill-rule="evenodd" clip-rule="evenodd" d="M9.35517 3.64639C9.4489 3.74016 9.50156 3.86731 9.50156 3.99989C9.50156 4.13248 9.4489 4.25963 9.35517 4.35339L5.35517 8.35339C5.2614 8.44713 5.13425 8.49979 5.00167 8.49979C4.86909 8.49979 4.74193 8.44713 4.64817 8.35339L2.64817 6.35339C2.55709 6.25909 2.50669 6.13279 2.50783 6.00169C2.50897 5.87059 2.56156 5.74519 2.65426 5.65248C2.74696 5.55978 2.87237 5.5072 3.00347 5.50606C3.13457 5.50492 3.26087 5.55531 3.35517 5.64639L5.00167 7.29289L8.64817 3.64639C8.74193 3.55266 8.86909 3.5 9.00167 3.5C9.13425 3.5 9.2614 3.55266 9.35517 3.64639Z" fill="#0C343D"/>
    </svg>
    