<svg width="85" height="85" viewBox="0 0 85 85" fill="none" xmlns="http://www.w3.org/2000/svg">
    <g clip-path="url(#clip0_604_30120)">
    <rect width="85" height="85" fill="#0C343D"/>
    <rect width="85" height="85" fill="url(#paint0_linear_604_30120)"/>
    <g opacity="0.15" clip-path="url(#clip1_604_30120)">
    <g filter="url(#filter0_b_604_30120)">
    <path d="M43.3287 84.9708H4.29688L9.36544 75.3771L14.5427 65.571C17.4129 60.127 21.2909 57.7162 25.0454 58.3486C26.8288 58.6449 28.5824 59.6231 30.1929 61.2879L30.8846 62.5378L43.3287 84.9708Z" fill="#C3C3C3" fill-opacity="0.3" style="mix-blend-mode:luminosity"/>
    <path d="M43.3287 84.9708H4.29688L9.36544 75.3771L14.5427 65.571C17.4129 60.127 21.2909 57.7162 25.0454 58.3486C26.8288 58.6449 28.5824 59.6231 30.1929 61.2879L30.8846 62.5378L43.3287 84.9708Z" stroke="url(#paint1_linear_604_30120)"/>
    </g>
    <g filter="url(#filter1_b_604_30120)">
    <path d="M-24 84.972C-23.9259 84.7942 -23.8469 84.6213 -23.7728 84.4484L-18.6004 75.1165L-16.2144 71.2385C-15.1424 69.4946 -13.9567 68.0472 -12.697 66.8912C-11.546 65.829 -10.3307 65.0189 -9.08083 64.4557C-3.60719 61.9807 2.51359 64.2334 6.81646 71.2385L9.36554 75.3783L15.269 84.972H-24Z" fill="#C3C3C3" fill-opacity="0.3" style="mix-blend-mode:luminosity"/>
    <path d="M-24 84.972C-23.9259 84.7942 -23.8469 84.6213 -23.7728 84.4484L-18.6004 75.1165L-16.2144 71.2385C-15.1424 69.4946 -13.9567 68.0472 -12.697 66.8912C-11.546 65.829 -10.3307 65.0189 -9.08083 64.4557C-3.60719 61.9807 2.51359 64.2334 6.81646 71.2385L9.36554 75.3783L15.269 84.972H-24Z" stroke="url(#paint2_linear_604_30120)"/>
    </g>
    </g>
    <g opacity="0.45" clip-path="url(#clip2_604_30120)">
    <g filter="url(#filter2_b_604_30120)">
    <path d="M41.6713 0.029211H80.7031L75.6346 9.62287L70.4573 19.429C67.5871 24.873 63.7091 27.2838 59.9546 26.6514C58.1712 26.3551 56.4176 25.3769 54.8071 23.7121L54.1154 22.4622L41.6713 0.029211Z" fill="#C3C3C3" fill-opacity="0.3" style="mix-blend-mode:luminosity"/>
    <path d="M41.6713 0.029211H80.7031L75.6346 9.62287L70.4573 19.429C67.5871 24.873 63.7091 27.2838 59.9546 26.6514C58.1712 26.3551 56.4176 25.3769 54.8071 23.7121L54.1154 22.4622L41.6713 0.029211Z" stroke="url(#paint3_linear_604_30120)"/>
    </g>
    <g filter="url(#filter3_b_604_30120)">
    <path d="M109 0.0279541C108.926 0.205799 108.847 0.378733 108.773 0.55163L103.6 9.88347L101.214 13.7615C100.142 15.5054 98.9567 16.9528 97.697 18.1088C96.546 19.171 95.3307 19.9811 94.0808 20.5443C88.6072 23.0193 82.4864 20.7666 78.1835 13.7615L75.6345 9.62169L69.731 0.0279541H109Z" fill="#C3C3C3" fill-opacity="0.3" style="mix-blend-mode:luminosity"/>
    <path d="M109 0.0279541C108.926 0.205799 108.847 0.378733 108.773 0.55163L103.6 9.88347L101.214 13.7615C100.142 15.5054 98.9567 16.9528 97.697 18.1088C96.546 19.171 95.3307 19.9811 94.0808 20.5443C88.6072 23.0193 82.4864 20.7666 78.1835 13.7615L75.6345 9.62169L69.731 0.0279541H109Z" stroke="url(#paint4_linear_604_30120)"/>
    </g>
    </g>
    <path d="M64.9698 58.2469C65.061 58.4129 64.9405 58.618 64.7518 58.618H20.8203C20.8691 58.5041 20.9179 58.3934 20.9668 58.2827C20.97 58.2763 20.9733 58.2698 20.9765 58.2632L24.3809 52.1249L34.6624 33.5864C39.258 25.3098 46.7047 25.3098 51.2937 33.5864L52.6021 35.9427L56.524 43.0151L56.9796 43.8385L64.9698 58.2469Z" fill="url(#paint5_linear_604_30120)"/>
    <path d="M65.18 58.616H39.4648L42.8041 52.2955L46.215 45.835C48.106 42.2483 50.6609 40.66 53.1344 41.0767C54.3094 41.2719 55.4647 41.9164 56.5258 43.0132L56.9815 43.8366L65.18 58.616Z" fill="url(#paint6_linear_604_30120)"/>
    <path d="M20.8203 58.6175C20.8691 58.5004 20.9212 58.3864 20.97 58.2725L24.3777 52.1245L25.9497 49.5695C26.6559 48.4206 27.4371 47.467 28.267 46.7055C29.0253 46.0056 29.826 45.4719 30.6494 45.1009C34.2556 43.4703 38.2881 44.9544 41.1229 49.5696L42.8023 52.2969L46.6916 58.6175H20.8203Z" fill="url(#paint7_linear_604_30120)"/>
    </g>
    <defs>
    <filter id="filter0_b_604_30120" x="-111.91" y="-57.6271" width="271.465" height="258.477" filterUnits="userSpaceOnUse" color-interpolation-filters="sRGB">
    <feFlood flood-opacity="0" result="BackgroundImageFix"/>
    <feGaussianBlur in="BackgroundImageFix" stdDeviation="57.6885"/>
    <feComposite in2="SourceAlpha" operator="in" result="effect1_backgroundBlur_604_30120"/>
    <feBlend mode="normal" in="SourceGraphic" in2="effect1_backgroundBlur_604_30120" result="shape"/>
    </filter>
    <filter id="filter1_b_604_30120" x="-140.127" y="-52.3927" width="271.668" height="253.242" filterUnits="userSpaceOnUse" color-interpolation-filters="sRGB">
    <feFlood flood-opacity="0" result="BackgroundImageFix"/>
    <feGaussianBlur in="BackgroundImageFix" stdDeviation="57.6885"/>
    <feComposite in2="SourceAlpha" operator="in" result="effect1_backgroundBlur_604_30120"/>
    <feBlend mode="normal" in="SourceGraphic" in2="effect1_backgroundBlur_604_30120" result="shape"/>
    </filter>
    <filter id="filter2_b_604_30120" x="-74.5548" y="-115.85" width="271.465" height="258.477" filterUnits="userSpaceOnUse" color-interpolation-filters="sRGB">
    <feFlood flood-opacity="0" result="BackgroundImageFix"/>
    <feGaussianBlur in="BackgroundImageFix" stdDeviation="57.6885"/>
    <feComposite in2="SourceAlpha" operator="in" result="effect1_backgroundBlur_604_30120"/>
    <feBlend mode="normal" in="SourceGraphic" in2="effect1_backgroundBlur_604_30120" result="shape"/>
    </filter>
    <filter id="filter3_b_604_30120" x="-46.5407" y="-115.85" width="271.668" height="253.242" filterUnits="userSpaceOnUse" color-interpolation-filters="sRGB">
    <feFlood flood-opacity="0" result="BackgroundImageFix"/>
    <feGaussianBlur in="BackgroundImageFix" stdDeviation="57.6885"/>
    <feComposite in2="SourceAlpha" operator="in" result="effect1_backgroundBlur_604_30120"/>
    <feBlend mode="normal" in="SourceGraphic" in2="effect1_backgroundBlur_604_30120" result="shape"/>
    </filter>
    <linearGradient id="paint0_linear_604_30120" x1="42.5" y1="0" x2="42.5" y2="85" gradientUnits="userSpaceOnUse">
    <stop stop-color="#0248A7"/>
    <stop offset="1" stop-color="#0248A7"/>
    </linearGradient>
    <linearGradient id="paint1_linear_604_30120" x1="7.03125" y1="58.25" x2="16.5494" y2="90.2578" gradientUnits="userSpaceOnUse">
    <stop stop-color="white" stop-opacity="0.25"/>
    <stop offset="0.605751" stop-color="white" stop-opacity="0.02"/>
    <stop offset="0.701033" stop-color="white" stop-opacity="0.02"/>
    <stop offset="1" stop-color="white" stop-opacity="0.1"/>
    </linearGradient>
    <linearGradient id="paint2_linear_604_30120" x1="-21.249" y1="63.4844" x2="-14.9462" y2="90.0016" gradientUnits="userSpaceOnUse">
    <stop stop-color="white" stop-opacity="0.25"/>
    <stop offset="0.605751" stop-color="white" stop-opacity="0.02"/>
    <stop offset="0.701033" stop-color="white" stop-opacity="0.02"/>
    <stop offset="1" stop-color="white" stop-opacity="0.1"/>
    </linearGradient>
    <linearGradient id="paint3_linear_604_30120" x1="77.9687" y1="26.75" x2="68.4506" y2="-5.2578" gradientUnits="userSpaceOnUse">
    <stop stop-color="white" stop-opacity="0.25"/>
    <stop offset="0.605751" stop-color="white" stop-opacity="0.02"/>
    <stop offset="0.701033" stop-color="white" stop-opacity="0.02"/>
    <stop offset="1" stop-color="white" stop-opacity="0.1"/>
    </linearGradient>
    <linearGradient id="paint4_linear_604_30120" x1="106.249" y1="21.5156" x2="99.9462" y2="-5.00161" gradientUnits="userSpaceOnUse">
    <stop stop-color="white" stop-opacity="0.25"/>
    <stop offset="0.605751" stop-color="white" stop-opacity="0.02"/>
    <stop offset="0.701033" stop-color="white" stop-opacity="0.02"/>
    <stop offset="1" stop-color="white" stop-opacity="0.1"/>
    </linearGradient>
    <linearGradient id="paint5_linear_604_30120" x1="65.0026" y1="42.9998" x2="20.8189" y2="42.9998" gradientUnits="userSpaceOnUse">
    <stop offset="0.1171" stop-color="#1C5589"/>
    <stop offset="0.9028" stop-color="#159F84"/>
    </linearGradient>
    <linearGradient id="paint6_linear_604_30120" x1="65.1786" y1="49.8161" x2="39.4635" y2="49.8161" gradientUnits="userSpaceOnUse">
    <stop stop-color="#5BB271"/>
    <stop offset="1" stop-color="#F0E970"/>
    </linearGradient>
    <linearGradient id="paint7_linear_604_30120" x1="46.6908" y1="51.5405" x2="20.8189" y2="51.5405" gradientUnits="userSpaceOnUse">
    <stop stop-color="#5BB271"/>
    <stop offset="1" stop-color="#F0E970"/>
    </linearGradient>
    <clipPath id="clip0_604_30120">
    <rect width="85" height="85" fill="white"/>
    </clipPath>
    <clipPath id="clip1_604_30120">
    <rect width="68" height="68" fill="white" transform="translate(-24 37)"/>
    </clipPath>
    <clipPath id="clip2_604_30120">
    <rect width="68" height="68" fill="white" transform="matrix(-1 0 0 -1 109 48)"/>
    </clipPath>
    </defs>
    </svg>
    