<svg width="14" height="14" viewBox="0 0 14 14" fill="none" xmlns="http://www.w3.org/2000/svg">
<path fill-rule="evenodd" clip-rule="evenodd" d="M6.99998 13.4016C8.69736 13.4016 10.3252 12.7273 11.5255 11.527C12.7257 10.3268 13.4 8.69895 13.4 7.00156C13.4 5.30418 12.7257 3.67631 11.5255 2.47608C10.3252 1.27585 8.69736 0.601563 6.99998 0.601562C5.30259 0.601563 3.67473 1.27585 2.47449 2.47608C1.27426 3.67631 0.599976 5.30418 0.599976 7.00156C0.599976 8.69895 1.27426 10.3268 2.47449 11.527C3.67473 12.7273 5.30259 13.4016 6.99998 13.4016ZM7.79998 3.80156C7.79998 3.58939 7.71569 3.38591 7.56566 3.23588C7.41563 3.08585 7.21215 3.00156 6.99998 3.00156C6.7878 3.00156 6.58432 3.08585 6.43429 3.23588C6.28426 3.38591 6.19998 3.58939 6.19998 3.80156V7.00156C6.20002 7.21372 6.28434 7.41717 6.43438 7.56716L8.69678 9.83036C8.7711 9.90469 8.85934 9.96365 8.95646 10.0039C9.05357 10.0441 9.15766 10.0648 9.26278 10.0648C9.36789 10.0648 9.47198 10.0441 9.56909 10.0039C9.66621 9.96365 9.75445 9.90469 9.82878 9.83036C9.9031 9.75603 9.96206 9.66779 10.0023 9.57068C10.0425 9.47357 10.0632 9.36948 10.0632 9.26436C10.0632 9.15925 10.0425 9.05516 10.0023 8.95805C9.96206 8.86093 9.9031 8.77269 9.82878 8.69836L7.79998 6.67036V3.80156Z" fill="white"/>
</svg>
