<svg width="14" height="15" viewBox="0 0 14 15" fill="none" xmlns="http://www.w3.org/2000/svg">
<path d="M12.25 3.75L11.5997 12.8565C11.5728 13.2349 11.4035 13.5891 11.1258 13.8477C10.8482 14.1063 10.4829 14.25 10.1035 14.25H3.8965C3.5171 14.25 3.1518 14.1063 2.87416 13.8477C2.59653 13.5891 2.42719 13.2349 2.40025 12.8565L1.75 3.75M5.5 6.75V11.25M8.5 6.75V11.25M9.25 3.75V1.5C9.25 1.30109 9.17098 1.11032 9.03033 0.96967C8.88968 0.829018 8.69891 0.75 8.5 0.75H5.5C5.30109 0.75 5.11032 0.829018 4.96967 0.96967C4.82902 1.11032 4.75 1.30109 4.75 1.5V3.75M1 3.75H13" stroke="#000B19" stroke-width="1.5" stroke-linecap="round" stroke-linejoin="round"/>
</svg>
