<svg width="14" height="17" viewBox="0 0 14 17" fill="none" xmlns="http://www.w3.org/2000/svg">
<path d="M10.595 4.33333C10.595 5.21739 10.2438 6.06523 9.6187 6.69036C8.99358 7.31548 8.14573 7.66667 7.26168 7.66667C6.37762 7.66667 5.52978 7.31548 4.90466 6.69036C4.27953 6.06523 3.92834 5.21739 3.92834 4.33333C3.92834 3.44928 4.27953 2.60143 4.90466 1.97631C5.52978 1.35119 6.37762 1 7.26168 1C8.14573 1 8.99358 1.35119 9.6187 1.97631C10.2438 2.60143 10.595 3.44928 10.595 4.33333ZM7.26168 10.1667C5.71458 10.1667 4.23085 10.7812 3.13689 11.8752C2.04293 12.9692 1.42834 14.4529 1.42834 16H13.095C13.095 14.4529 12.4804 12.9692 11.3865 11.8752C10.2925 10.7812 8.80877 10.1667 7.26168 10.1667Z" stroke="black" stroke-width="1.5" stroke-linecap="round" stroke-linejoin="round"/>
</svg>
