<svg width="40" height="40" viewBox="0 0 40 40" fill="none" xmlns="http://www.w3.org/2000/svg">
<rect x="0.5" y="0.5" width="39" height="39" rx="7.5" stroke="#DBECF0"/>
<g clip-path="url(#clip0_771_14388)">
<path d="M23.5917 16C21.6771 16 19.9581 16.9129 19.9581 18.5882C19.9581 20.5176 22.9947 20.6494 22.9947 21.6094C22.9947 22.0141 22.48 22.3812 21.6153 22.3812C20.3801 22.3812 19.4537 21.8729 19.4537 21.8729L19.0625 23.5671C19.0625 23.5671 20.1228 24 21.5433 24C23.6432 24 25.2901 23.0494 25.2901 21.3365C25.2901 19.3035 22.2432 19.1718 22.2432 18.2776C22.2432 17.9576 22.6653 17.6094 23.5299 17.6094C24.5078 17.6094 25.3107 17.9765 25.3107 17.9765L25.7019 16.3388C25.6916 16.3388 24.8166 16 23.5917 16ZM6.05147 16.1224L6 16.3671C6 16.3671 6.8029 16.4988 7.53374 16.7718C8.47045 17.0824 8.53222 17.2612 8.69691 17.8165L10.4159 23.8682H12.7217L16.2524 16.1224H13.9569L11.682 21.3929L10.7556 16.9224C10.6733 16.4141 10.2409 16.1224 9.70568 16.1224H6.05147ZM17.1788 16.1224L15.3774 23.8682H17.57L19.361 16.1224H17.1788ZM29.387 16.1224C28.862 16.1224 28.5841 16.3765 28.3782 16.8282L25.1666 23.8682H27.4621L27.9047 22.6918H30.7045L30.9722 23.8682H33L31.2398 16.1224H29.387ZM29.6855 18.2212L30.3649 21.1294H28.5429L29.6855 18.2212Z" fill="#1434CB"/>
</g>
<defs>
<clipPath id="clip0_771_14388">
<rect width="27" height="8" fill="white" transform="translate(6 16)"/>
</clipPath>
</defs>
</svg>
