<svg width="40" height="40" viewBox="0 0 40 40" fill="none" xmlns="http://www.w3.org/2000/svg">
<g filter="url(#filter0_b_771_14790)">
<rect width="40" height="40" rx="20" fill="#DBECF0"/>
<rect x="0.625" y="0.625" width="38.75" height="38.75" rx="19.375" stroke="url(#paint0_linear_771_14790)" stroke-width="1.25"/>
<path d="M23.9766 15.4141C23.6589 15.4141 23.3698 15.3385 23.1094 15.1875C22.849 15.0312 22.6406 14.8255 22.4844 14.5703C22.3333 14.3099 22.2578 14.0208 22.2578 13.7031C22.2578 13.3854 22.3333 13.099 22.4844 12.8438C22.6406 12.5833 22.849 12.3776 23.1094 12.2266C23.3698 12.0755 23.6589 12 23.9766 12C24.2891 12 24.5729 12.0755 24.8281 12.2266C25.0885 12.3776 25.2943 12.5833 25.4453 12.8438C25.5964 13.099 25.6719 13.3854 25.6719 13.7031C25.6719 14.0208 25.5964 14.3099 25.4453 14.5703C25.2943 14.8255 25.0885 15.0312 24.8281 15.1875C24.5729 15.3385 24.2891 15.4141 23.9766 15.4141ZM18.6562 29.3594C18.4323 29.3594 18.2422 29.2812 18.0859 29.125C17.9297 28.9688 17.8516 28.7786 17.8516 28.5547V24.1719L17.25 20.6406L13.6719 20.0469C13.4688 20.0104 13.3047 19.9271 13.1797 19.7969C13.0599 19.6615 13 19.4609 13 19.1953V14.3984C13 14.1589 13.0729 13.9661 13.2188 13.8203C13.3698 13.6693 13.5651 13.5938 13.8047 13.5938C14.0495 13.5938 14.2448 13.6693 14.3906 13.8203C14.5417 13.9661 14.6172 14.1589 14.6172 14.3984V18.4531H18.6562C19.0885 18.4531 19.4714 18.3542 19.8047 18.1562C20.138 17.9531 20.4167 17.6719 20.6406 17.3125C20.7031 17.2083 20.7135 17.1068 20.6719 17.0078C20.6354 16.9089 20.5677 16.8411 20.4688 16.8047L16.2109 15.3828C15.9557 15.2995 15.7865 15.1562 15.7031 14.9531C15.625 14.7448 15.6172 14.5443 15.6797 14.3516C15.7422 14.1589 15.862 14.0052 16.0391 13.8906C16.2214 13.7708 16.4505 13.7578 16.7266 13.8516L28.5703 17.8047C28.8255 17.888 28.9922 18.0339 29.0703 18.2422C29.1484 18.4453 29.1562 18.6432 29.0938 18.8359C29.0365 19.0286 28.9167 19.1849 28.7344 19.3047C28.5521 19.4193 28.3255 19.4297 28.0547 19.3359L24.1016 18.0078C23.9453 17.9505 23.8203 17.9401 23.7266 17.9766C23.6328 18.0078 23.5703 18.0625 23.5391 18.1406C23.1641 18.9479 22.6146 19.6276 21.8906 20.1797C21.1667 20.7266 20.3594 21.0729 19.4688 21.2188V28.5547C19.4688 28.7786 19.388 28.9688 19.2266 29.125C19.0651 29.2812 18.875 29.3594 18.6562 29.3594Z" fill="#000B19"/>
</g>
<defs>
<filter id="filter0_b_771_14790" x="-144.221" y="-144.221" width="328.443" height="328.443" filterUnits="userSpaceOnUse" color-interpolation-filters="sRGB">
<feFlood flood-opacity="0" result="BackgroundImageFix"/>
<feGaussianBlur in="BackgroundImageFix" stdDeviation="72.1107"/>
<feComposite in2="SourceAlpha" operator="in" result="effect1_backgroundBlur_771_14790"/>
<feBlend mode="normal" in="SourceGraphic" in2="effect1_backgroundBlur_771_14790" result="shape"/>
</filter>
<linearGradient id="paint0_linear_771_14790" x1="2.8022" y1="-8.86878e-06" x2="21.8597" y2="43.8733" gradientUnits="userSpaceOnUse">
<stop stop-color="#E6E6E6" stop-opacity="0.25"/>
<stop offset="0.605751" stop-color="#E6E6E6" stop-opacity="0.02"/>
<stop offset="0.701033" stop-color="#E6E6E6" stop-opacity="0.02"/>
<stop offset="1" stop-color="#E6E6E6" stop-opacity="0.1"/>
</linearGradient>
</defs>
</svg>
