<svg width="90" height="90" viewBox="0 0 90 90" fill="none" xmlns="http://www.w3.org/2000/svg">
<g filter="url(#filter0_b_771_13046)">
<g clip-path="url(#clip0_771_13046)">
<rect width="90" height="90" rx="45" fill="#DBECF0"/>
<path d="M90.8992 90.3593C91.0896 90.7061 90.838 91.1346 90.4436 91.1346H-1.3418C-1.23982 90.8965 -1.13782 90.6653 -1.0358 90.4341C-1.02902 90.4206 -1.02216 90.407 -1.01542 90.3934L6.09731 77.5687L27.5783 38.8364C37.1798 21.5441 52.738 21.5441 62.3259 38.8364L65.0595 43.7595L73.2533 58.5358L74.2054 60.2561L90.8992 90.3593Z" fill="url(#paint0_linear_771_13046)" stroke="url(#paint1_linear_771_13046)" stroke-width="2"/>
<path d="M91.3356 91.1319H37.6094L44.5861 77.9265L51.7125 64.4287C55.6632 56.9352 61.0012 53.6168 66.1691 54.4872C68.6239 54.8952 71.0377 56.2416 73.2546 58.5332L74.2066 60.2535L91.3356 91.1319Z" fill="url(#paint2_linear_771_13046)"/>
<path d="M-1.3418 91.1357C-1.23982 90.8909 -1.13099 90.6529 -1.02902 90.4149L6.09053 77.5699L9.3749 72.2319C10.8505 69.8315 12.4825 67.8392 14.2164 66.2481C15.8008 64.7859 17.4736 63.6708 19.194 62.8956C26.7283 59.4888 35.1534 62.5896 41.0762 72.232L44.5849 77.9302L52.7108 91.1357H-1.3418Z" fill="url(#paint3_linear_771_13046)"/>
</g>
<rect x="1.5" y="1.5" width="87" height="87" rx="43.5" stroke="url(#paint4_linear_771_13046)" stroke-width="3"/>
</g>
<defs>
<filter id="filter0_b_771_13046" x="-259.598" y="-259.598" width="609.197" height="609.197" filterUnits="userSpaceOnUse" color-interpolation-filters="sRGB">
<feFlood flood-opacity="0" result="BackgroundImageFix"/>
<feGaussianBlur in="BackgroundImageFix" stdDeviation="129.799"/>
<feComposite in2="SourceAlpha" operator="in" result="effect1_backgroundBlur_771_13046"/>
<feBlend mode="normal" in="SourceGraphic" in2="effect1_backgroundBlur_771_13046" result="shape"/>
</filter>
<linearGradient id="paint0_linear_771_13046" x1="90.9676" y1="58.5038" x2="-1.34478" y2="58.5038" gradientUnits="userSpaceOnUse">
<stop offset="0.1171" stop-color="#1C5589"/>
<stop offset="0.9028" stop-color="#159F84"/>
</linearGradient>
<linearGradient id="paint1_linear_771_13046" x1="5.12469" y1="25.8672" x2="37.2908" y2="101.389" gradientUnits="userSpaceOnUse">
<stop stop-color="#B7D9E1"/>
<stop offset="0.605751" stop-color="white" stop-opacity="0.02"/>
<stop offset="0.701033" stop-color="white" stop-opacity="0.02"/>
<stop offset="1" stop-color="white" stop-opacity="0.1"/>
</linearGradient>
<linearGradient id="paint2_linear_771_13046" x1="91.3327" y1="72.7464" x2="37.6067" y2="72.7464" gradientUnits="userSpaceOnUse">
<stop stop-color="#5BB271"/>
<stop offset="1" stop-color="#F0E970"/>
</linearGradient>
<linearGradient id="paint3_linear_771_13046" x1="52.7091" y1="76.3498" x2="-1.34478" y2="76.3498" gradientUnits="userSpaceOnUse">
<stop stop-color="#5BB271"/>
<stop offset="1" stop-color="#F0E970"/>
</linearGradient>
<linearGradient id="paint4_linear_771_13046" x1="6.30495" y1="-1.99547e-05" x2="49.1843" y2="98.715" gradientUnits="userSpaceOnUse">
<stop stop-color="white" stop-opacity="0.25"/>
<stop offset="0.605751" stop-color="white" stop-opacity="0.02"/>
<stop offset="0.701033" stop-color="white" stop-opacity="0.02"/>
<stop offset="1" stop-color="white" stop-opacity="0.1"/>
</linearGradient>
<clipPath id="clip0_771_13046">
<rect width="90" height="90" rx="45" fill="white"/>
</clipPath>
</defs>
</svg>
