<svg width="8" height="8" viewBox="0 0 15 13" fill="none" xmlns="http://www.w3.org/2000/svg">
<path d="M2.4783 2.07791C2.19972 2.35649 1.97874 2.68721 1.82797 3.05119C1.67721 3.41517 1.59961 3.80528 1.59961 4.19924C1.59961 4.59321 1.67721 4.98332 1.82797 5.3473C1.97874 5.71128 2.19972 6.042 2.4783 6.32058L7.59964 11.4419L12.721 6.32058C13.2836 5.75797 13.5997 4.9949 13.5997 4.19924C13.5997 3.40359 13.2836 2.64052 12.721 2.07791C12.1584 1.5153 11.3953 1.19923 10.5996 1.19923C9.80398 1.19923 9.04092 1.5153 8.4783 2.07791L7.59964 2.95658L6.72097 2.07791C6.44239 1.79933 6.11167 1.57835 5.74769 1.42758C5.38371 1.27682 4.9936 1.19922 4.59964 1.19922C4.20567 1.19922 3.81556 1.27682 3.45158 1.42758C3.0876 1.57835 2.75688 1.79933 2.4783 2.07791Z" fill="white" stroke="white" stroke-width="1.5" stroke-linecap="round" stroke-linejoin="round"/>
</svg>
