<svg width="18" height="18" viewBox="0 0 18 18" fill="none" xmlns="http://www.w3.org/2000/svg">
<path d="M5.52953 2.91551C6.12729 2.8678 6.69476 2.63276 7.1512 2.24384C7.66696 1.80406 8.32257 1.5625 9.00036 1.5625C9.67816 1.5625 10.3338 1.80406 10.8495 2.24384C11.306 2.63276 11.8734 2.8678 12.4712 2.91551C13.1468 2.96926 13.7812 3.26203 14.2604 3.74128C14.7397 4.22053 15.0324 4.85488 15.0862 5.53051C15.1339 6.12826 15.3689 6.69574 15.7579 7.15217C16.1976 7.66793 16.4392 8.32354 16.4392 9.00134C16.4392 9.67914 16.1976 10.3347 15.7579 10.8505C15.3689 11.3069 15.1339 11.8744 15.0862 12.4722C15.0324 13.1478 14.7397 13.7822 14.2604 14.2614C13.7812 14.7407 13.1468 15.0334 12.4712 15.0872C11.8734 15.1349 11.306 15.3699 10.8495 15.7588C10.3338 16.1986 9.67816 16.4402 9.00036 16.4402C8.32257 16.4402 7.66696 16.1986 7.1512 15.7588C6.69476 15.3699 6.12729 15.1349 5.52953 15.0872C4.8539 15.0334 4.21955 14.7407 3.7403 14.2614C3.26105 13.7822 2.96828 13.1478 2.91453 12.4722C2.86682 11.8744 2.63178 11.3069 2.24286 10.8505C1.80309 10.3347 1.56152 9.67914 1.56152 9.00134C1.56152 8.32354 1.80309 7.66793 2.24286 7.15217C2.63178 6.69574 2.86682 6.12826 2.91453 5.53051C2.96828 4.85488 3.26105 4.22053 3.7403 3.74128C4.21955 3.26203 4.8539 2.96926 5.52953 2.91551Z" fill="#0C343D"/>
<path d="M11.5004 7.33467L8.16703 10.668L6.50036 9.00134M5.52953 2.91551C6.12729 2.8678 6.69476 2.63276 7.1512 2.24384C7.66696 1.80406 8.32257 1.5625 9.00036 1.5625C9.67816 1.5625 10.3338 1.80406 10.8495 2.24384C11.306 2.63276 11.8734 2.8678 12.4712 2.91551C13.1468 2.96926 13.7812 3.26203 14.2604 3.74128C14.7397 4.22053 15.0324 4.85488 15.0862 5.53051C15.1339 6.12826 15.3689 6.69574 15.7579 7.15217C16.1976 7.66793 16.4392 8.32354 16.4392 9.00134C16.4392 9.67914 16.1976 10.3347 15.7579 10.8505C15.3689 11.3069 15.1339 11.8744 15.0862 12.4722C15.0324 13.1478 14.7397 13.7822 14.2604 14.2614C13.7812 14.7407 13.1468 15.0334 12.4712 15.0872C11.8734 15.1349 11.306 15.3699 10.8495 15.7588C10.3338 16.1986 9.67816 16.4402 9.00036 16.4402C8.32257 16.4402 7.66696 16.1986 7.1512 15.7588C6.69476 15.3699 6.12729 15.1349 5.52953 15.0872C4.8539 15.0334 4.21955 14.7407 3.7403 14.2614C3.26105 13.7822 2.96828 13.1478 2.91453 12.4722C2.86682 11.8744 2.63178 11.3069 2.24286 10.8505C1.80309 10.3347 1.56152 9.67914 1.56152 9.00134C1.56152 8.32354 1.80309 7.66793 2.24286 7.15217C2.63178 6.69574 2.86682 6.12826 2.91453 5.53051C2.96828 4.85488 3.26105 4.22053 3.7403 3.74128C4.21955 3.26203 4.8539 2.96926 5.52953 2.91551Z" stroke="#F5F9FF" stroke-width="1.5" stroke-linecap="round" stroke-linejoin="round"/>
</svg>
