<svg width="17" height="17" viewBox="0 0 17 17" fill="none" xmlns="http://www.w3.org/2000/svg">
<path fill-rule="evenodd" clip-rule="evenodd" d="M8.16636 14.9001C9.86374 14.9001 11.4916 14.2258 12.6918 13.0256C13.8921 11.8253 14.5664 10.1975 14.5664 8.5001C14.5664 6.80271 13.8921 5.17485 12.6918 3.97461C11.4916 2.77438 9.86374 2.1001 8.16636 2.1001C6.46897 2.1001 4.84111 2.77438 3.64087 3.97461C2.44064 5.17485 1.76636 6.80271 1.76636 8.5001C1.76636 10.1975 2.44064 11.8253 3.64087 13.0256C4.84111 14.2258 6.46897 14.9001 8.16636 14.9001ZM11.132 7.4657C11.2777 7.31482 11.3583 7.11273 11.3565 6.90298C11.3547 6.69322 11.2705 6.49257 11.1222 6.34424C10.9739 6.19592 10.7732 6.11178 10.5635 6.10996C10.3537 6.10814 10.1516 6.18877 10.0008 6.3345L7.36636 8.9689L6.33196 7.9345C6.18108 7.78877 5.97899 7.70814 5.76924 7.70996C5.55948 7.71178 5.35883 7.79592 5.2105 7.94424C5.06218 8.09257 4.97804 8.29322 4.97622 8.50298C4.9744 8.71273 5.05503 8.91482 5.20076 9.0657L6.80076 10.6657C6.95078 10.8157 7.15423 10.8999 7.36636 10.8999C7.57849 10.8999 7.78194 10.8157 7.93196 10.6657L11.132 7.4657Z" fill="#ABCF6F"/>
</svg>
