<svg width="16" height="16" viewBox="0 0 16 16" fill="none" xmlns="http://www.w3.org/2000/svg">
<path fill-rule="evenodd" clip-rule="evenodd" d="M13.3669 4.23423C13.5169 4.38425 13.6011 4.5877 13.6011 4.79983C13.6011 5.01196 13.5169 5.21541 13.3669 5.36543L6.9669 11.7654C6.81688 11.9154 6.61343 11.9997 6.4013 11.9997C6.18917 11.9997 5.98572 11.9154 5.8357 11.7654L2.6357 8.56543C2.48998 8.41455 2.40934 8.21247 2.41116 8.00271C2.41299 7.79295 2.49712 7.5923 2.64545 7.44397C2.79377 7.29565 2.99442 7.21151 3.20418 7.20969C3.41394 7.20787 3.61602 7.2885 3.7669 7.43423L6.4013 10.0686L12.2357 4.23423C12.3857 4.08425 12.5892 4 12.8013 4C13.0134 4 13.2169 4.08425 13.3669 4.23423Z" fill="white"/>
</svg>
