<svg width="12" height="12" viewBox="0 0 12 12" fill="none" xmlns="http://www.w3.org/2000/svg">
<path fill-rule="evenodd" clip-rule="evenodd" d="M8.47617 4.65706C8.38475 4.74845 8.26078 4.79979 8.13151 4.79979C8.00224 4.79979 7.87827 4.74845 7.78685 4.65706L6.18151 3.05172L4.57617 4.65706C4.48423 4.74586 4.36108 4.795 4.23326 4.79389C4.10544 4.79278 3.98317 4.74151 3.89279 4.65112C3.8024 4.56073 3.75113 4.43846 3.75002 4.31064C3.74891 4.18282 3.79805 4.05968 3.88685 3.96773L5.83685 2.01773C5.92827 1.92634 6.05224 1.875 6.18151 1.875C6.31078 1.875 6.43475 1.92634 6.52617 2.01773L8.47617 3.96773C8.56756 4.05915 8.61891 4.18313 8.61891 4.3124C8.61891 4.44166 8.56756 4.56564 8.47617 4.65706Z" fill="#878E97"/>
<path fill-rule="evenodd" clip-rule="evenodd" d="M8.47617 7.26677C8.38475 7.17538 8.26078 7.12404 8.13151 7.12404C8.00224 7.12404 7.87827 7.17538 7.78685 7.26677L6.18151 8.87211L4.57617 7.26677C4.48423 7.17797 4.36108 7.12883 4.23326 7.12994C4.10544 7.13105 3.98317 7.18232 3.89279 7.27271C3.8024 7.36309 3.75113 7.48537 3.75002 7.61319C3.74891 7.74101 3.79805 7.86415 3.88685 7.95609L5.83685 9.90609C5.92827 9.99749 6.05224 10.0488 6.18151 10.0488C6.31078 10.0488 6.43475 9.99749 6.52617 9.90609L8.47617 7.95609C8.56756 7.86467 8.61891 7.7407 8.61891 7.61143C8.61891 7.48216 8.56756 7.35819 8.47617 7.26677Z" fill="#878E97"/>
</svg>
