<svg width="14" height="13" viewBox="0 0 14 13" fill="none" xmlns="http://www.w3.org/2000/svg">
<path fill-rule="evenodd" clip-rule="evenodd" d="M7.16636 12.9001C8.86374 12.9001 10.4916 12.2258 11.6918 11.0256C12.8921 9.82535 13.5664 8.19748 13.5664 6.5001C13.5664 4.80271 12.8921 3.17485 11.6918 1.97461C10.4916 0.774382 8.86374 0.100098 7.16636 0.100098C5.46897 0.100098 3.84111 0.774382 2.64087 1.97461C1.44064 3.17485 0.766357 4.80271 0.766357 6.5001C0.766357 8.19748 1.44064 9.82535 2.64087 11.0256C3.84111 12.2258 5.46897 12.9001 7.16636 12.9001ZM7.96636 3.3001C7.96636 3.08792 7.88207 2.88444 7.73204 2.73441C7.58201 2.58438 7.37853 2.5001 7.16636 2.5001C6.95418 2.5001 6.7507 2.58438 6.60067 2.73441C6.45064 2.88444 6.36636 3.08792 6.36636 3.3001V6.5001C6.3664 6.71225 6.45072 6.9157 6.60076 7.0657L8.86316 9.3289C8.93749 9.40323 9.02573 9.46219 9.12284 9.50241C9.21995 9.54264 9.32404 9.56334 9.42916 9.56334C9.53427 9.56334 9.63836 9.54264 9.73547 9.50241C9.83259 9.46219 9.92083 9.40323 9.99516 9.3289C10.0695 9.25457 10.1284 9.16633 10.1687 9.06921C10.2089 8.9721 10.2296 8.86801 10.2296 8.7629C10.2296 8.65778 10.2089 8.55369 10.1687 8.45658C10.1284 8.35947 10.0695 8.27123 9.99516 8.1969L7.96636 6.1689V3.3001Z" fill="#878E97"/>
</svg>
