<svg width="16" height="16" viewBox="0 0 16 16" fill="none" xmlns="http://www.w3.org/2000/svg">
<path fill-rule="evenodd" clip-rule="evenodd" d="M9.19135 2.53685C8.88813 1.28785 7.11182 1.28785 6.8086 2.53685C6.61272 3.34369 5.68833 3.72659 4.97931 3.29457C3.88172 2.6258 2.62567 3.88184 3.29445 4.97943C3.72646 5.68846 3.34357 6.61285 2.53673 6.80872C1.28772 7.11194 1.28772 8.88826 2.53673 9.19147C3.34357 9.38735 3.72646 10.3117 3.29445 11.0208C2.62568 12.1184 3.88172 13.3744 4.97931 12.7056C5.68834 12.2736 6.61272 12.6565 6.8086 13.4633C7.11182 14.7123 8.88813 14.7123 9.19135 13.4633C9.38723 12.6565 10.3116 12.2736 11.0206 12.7056C12.1182 13.3744 13.3743 12.1184 12.7055 11.0208C12.2735 10.3117 12.6564 9.38735 13.4632 9.19147C14.7122 8.88826 14.7122 7.11194 13.4632 6.80872C12.6564 6.61285 12.2735 5.68846 12.7055 4.97943C13.3743 3.88184 12.1182 2.6258 11.0206 3.29457C10.3116 3.72659 9.38723 3.34369 9.19135 2.53685ZM7.99998 10.4001C9.32546 10.4001 10.4 9.32558 10.4 8.0001C10.4 6.67461 9.32546 5.6001 7.99998 5.6001C6.67449 5.6001 5.59998 6.67461 5.59998 8.0001C5.59998 9.32558 6.67449 10.4001 7.99998 10.4001Z" fill="#A9E2EF"/>
</svg>
