<svg width="14" height="15" viewBox="0 0 14 15" fill="none" xmlns="http://www.w3.org/2000/svg">
<path d="M12.1902 2.31029C11.9277 2.04783 11.5716 1.90039 11.2004 1.90039C10.8292 1.90039 10.4731 2.04783 10.2106 2.31029L4.90039 7.62049V9.60009H6.87999L12.1902 4.28989C12.4526 4.02735 12.6001 3.67132 12.6001 3.30009C12.6001 2.92886 12.4526 2.57283 12.1902 2.31029Z" fill="#000B19"/>
<path fill-rule="evenodd" clip-rule="evenodd" d="M1.40039 4.70005C1.40039 4.32875 1.54789 3.97265 1.81044 3.7101C2.07299 3.44755 2.42909 3.30005 2.80039 3.30005H5.60039C5.78604 3.30005 5.96409 3.3738 6.09537 3.50507C6.22664 3.63635 6.30039 3.8144 6.30039 4.00005C6.30039 4.1857 6.22664 4.36375 6.09537 4.49502C5.96409 4.6263 5.78604 4.70005 5.60039 4.70005H2.80039V11.7H9.80039V8.90005C9.80039 8.7144 9.87414 8.53635 10.0054 8.40507C10.1367 8.2738 10.3147 8.20005 10.5004 8.20005C10.686 8.20005 10.8641 8.2738 10.9954 8.40507C11.1266 8.53635 11.2004 8.7144 11.2004 8.90005V11.7C11.2004 12.0714 11.0529 12.4274 10.7903 12.69C10.5278 12.9525 10.1717 13.1 9.80039 13.1H2.80039C2.42909 13.1 2.07299 12.9525 1.81044 12.69C1.54789 12.4274 1.40039 12.0714 1.40039 11.7V4.70005Z" fill="#000B19"/>
</svg>
