<svg width="14" height="14" viewBox="0 0 14 14" fill="none" xmlns="http://www.w3.org/2000/svg">
<path d="M12.1902 1.81029C11.9277 1.54783 11.5716 1.40039 11.2004 1.40039C10.8292 1.40039 10.4731 1.54783 10.2106 1.81029L4.90039 7.12049V9.10009H6.87999L12.1902 3.78989C12.4526 3.52735 12.6001 3.17132 12.6001 2.80009C12.6001 2.42886 12.4526 2.07283 12.1902 1.81029Z" fill="white"/>
<path fill-rule="evenodd" clip-rule="evenodd" d="M1.40039 4.20005C1.40039 3.82875 1.54789 3.47265 1.81044 3.2101C2.07299 2.94755 2.42909 2.80005 2.80039 2.80005H5.60039C5.78604 2.80005 5.96409 2.8738 6.09537 3.00507C6.22664 3.13635 6.30039 3.3144 6.30039 3.50005C6.30039 3.6857 6.22664 3.86375 6.09537 3.99502C5.96409 4.1263 5.78604 4.20005 5.60039 4.20005H2.80039V11.2001H9.80039V8.40005C9.80039 8.2144 9.87414 8.03635 10.0054 7.90508C10.1367 7.7738 10.3147 7.70005 10.5004 7.70005C10.686 7.70005 10.8641 7.7738 10.9954 7.90508C11.1266 8.03635 11.2004 8.2144 11.2004 8.40005V11.2001C11.2004 11.5714 11.0529 11.9274 10.7903 12.19C10.5278 12.4526 10.1717 12.6 9.80039 12.6H2.80039C2.42909 12.6 2.07299 12.4526 1.81044 12.19C1.54789 11.9274 1.40039 11.5714 1.40039 11.2001V4.20005Z" fill="white"/>
</svg>
