<svg width="14" height="14" viewBox="0 0 14 14" fill="none" xmlns="http://www.w3.org/2000/svg">
<path fill-rule="evenodd" clip-rule="evenodd" d="M2.09961 3.50005C2.09961 3.3144 2.17336 3.13635 2.30463 3.00507C2.43591 2.8738 2.61396 2.80005 2.79961 2.80005H11.1996C11.3853 2.80005 11.5633 2.8738 11.6946 3.00507C11.8259 3.13635 11.8996 3.3144 11.8996 3.50005C11.8996 3.6857 11.8259 3.86375 11.6946 3.99502C11.5633 4.1263 11.3853 4.20005 11.1996 4.20005H2.79961C2.61396 4.20005 2.43591 4.1263 2.30463 3.99502C2.17336 3.86375 2.09961 3.6857 2.09961 3.50005ZM3.49961 7.00005C3.49961 6.8144 3.57336 6.63635 3.70463 6.50507C3.83591 6.3738 4.01396 6.30005 4.19961 6.30005H9.79961C9.98526 6.30005 10.1633 6.3738 10.2946 6.50507C10.4259 6.63635 10.4996 6.8144 10.4996 7.00005C10.4996 7.1857 10.4259 7.36375 10.2946 7.49502C10.1633 7.6263 9.98526 7.70005 9.79961 7.70005H4.19961C4.01396 7.70005 3.83591 7.6263 3.70463 7.49502C3.57336 7.36375 3.49961 7.1857 3.49961 7.00005ZM4.19961 10.5C4.19961 10.3144 4.27336 10.1363 4.40463 10.0051C4.53591 9.8738 4.71396 9.80005 4.89961 9.80005H9.09961C9.28526 9.80005 9.46331 9.8738 9.59458 10.0051C9.72586 10.1363 9.79961 10.3144 9.79961 10.5C9.79961 10.6857 9.72586 10.8637 9.59458 10.995C9.46331 11.1263 9.28526 11.2 9.09961 11.2H4.89961C4.71396 11.2 4.53591 11.1263 4.40463 10.995C4.27336 10.8637 4.19961 10.6857 4.19961 10.5Z" fill="#000B19"/>
</svg>
