<svg width="18" height="19" viewBox="0 0 18 19" fill="none" xmlns="http://www.w3.org/2000/svg">
<path d="M3.75 9.5H3.7575M9 9.5H9.0075M14.25 9.5H14.2575M4.5 9.5C4.5 9.69891 4.42098 9.88968 4.28033 10.0303C4.13968 10.171 3.94891 10.25 3.75 10.25C3.55109 10.25 3.36032 10.171 3.21967 10.0303C3.07902 9.88968 3 9.69891 3 9.5C3 9.30109 3.07902 9.11032 3.21967 8.96967C3.36032 8.82902 3.55109 8.75 3.75 8.75C3.94891 8.75 4.13968 8.82902 4.28033 8.96967C4.42098 9.11032 4.5 9.30109 4.5 9.5ZM9.75 9.5C9.75 9.69891 9.67098 9.88968 9.53033 10.0303C9.38968 10.171 9.19891 10.25 9 10.25C8.80109 10.25 8.61032 10.171 8.46967 10.0303C8.32902 9.88968 8.25 9.69891 8.25 9.5C8.25 9.30109 8.32902 9.11032 8.46967 8.96967C8.61032 8.82902 8.80109 8.75 9 8.75C9.19891 8.75 9.38968 8.82902 9.53033 8.96967C9.67098 9.11032 9.75 9.30109 9.75 9.5ZM15 9.5C15 9.69891 14.921 9.88968 14.7803 10.0303C14.6397 10.171 14.4489 10.25 14.25 10.25C14.0511 10.25 13.8603 10.171 13.7197 10.0303C13.579 9.88968 13.5 9.69891 13.5 9.5C13.5 9.30109 13.579 9.11032 13.7197 8.96967C13.8603 8.82902 14.0511 8.75 14.25 8.75C14.4489 8.75 14.6397 8.82902 14.7803 8.96967C14.921 9.11032 15 9.30109 15 9.5Z" stroke="black" stroke-width="2" stroke-linecap="round" stroke-linejoin="round"/>
</svg>
