<svg width="16" height="17" viewBox="0 0 16 17" fill="none" xmlns="http://www.w3.org/2000/svg">
<path fill-rule="evenodd" clip-rule="evenodd" d="M4.00039 2.8999C3.57604 2.8999 3.16908 3.06847 2.86902 3.36853C2.56896 3.66859 2.40039 4.07556 2.40039 4.4999V12.4999C2.40039 12.9242 2.56896 13.3312 2.86902 13.6313C3.16908 13.9313 3.57604 14.0999 4.00039 14.0999H12.0004C12.4247 14.0999 12.8317 13.9313 13.1318 13.6313C13.4318 13.3312 13.6004 12.9242 13.6004 12.4999V4.4999C13.6004 4.07556 13.4318 3.66859 13.1318 3.36853C12.8317 3.06847 12.4247 2.8999 12.0004 2.8999H4.00039ZM4.00039 4.4999H12.0004V10.0999H10.4004L9.60039 11.6999H6.40039L5.60039 10.0999H4.00039V4.4999Z" fill="white"/>
</svg>
