<svg width="16" height="17" viewBox="0 0 16 17" fill="none" xmlns="http://www.w3.org/2000/svg">
<path d="M2 5.83325L7.26 9.33992C7.47911 9.4861 7.7366 9.56412 8 9.56412C8.2634 9.56412 8.52089 9.4861 8.74 9.33992L14 5.83325M3.33333 13.1666H12.6667C13.0203 13.1666 13.3594 13.0261 13.6095 12.7761C13.8595 12.526 14 12.1869 14 11.8333V5.16659C14 4.81296 13.8595 4.47382 13.6095 4.22378C13.3594 3.97373 13.0203 3.83325 12.6667 3.83325H3.33333C2.97971 3.83325 2.64057 3.97373 2.39052 4.22378C2.14048 4.47382 2 4.81296 2 5.16659V11.8333C2 12.1869 2.14048 12.526 2.39052 12.7761C2.64057 13.0261 2.97971 13.1666 3.33333 13.1666Z" stroke="#A9E2EF" stroke-width="1.5" stroke-linecap="round" stroke-linejoin="round"/>
</svg>
