<svg width="16" height="16" viewBox="0 0 16 16" fill="none" xmlns="http://www.w3.org/2000/svg">
<path fill-rule="evenodd" clip-rule="evenodd" d="M6.16566 2.63422C6.47808 2.94664 6.47808 3.45317 6.16566 3.76559L4.33135 5.5999H8.79998C11.8928 5.5999 14.4 8.10711 14.4 11.1999V12.7999C14.4 13.2417 14.0418 13.5999 13.6 13.5999C13.1581 13.5999 12.8 13.2417 12.8 12.7999V11.1999C12.8 8.99076 11.0091 7.1999 8.79998 7.1999H4.33135L6.16566 9.03422C6.47808 9.34664 6.47808 9.85317 6.16566 10.1656C5.85324 10.478 5.34671 10.478 5.03429 10.1656L1.83429 6.96559C1.52187 6.65317 1.52187 6.14664 1.83429 5.83422L5.03429 2.63422C5.34671 2.3218 5.85324 2.3218 6.16566 2.63422Z" fill="#A9E2EF"/>
</svg>
