<svg width="20" height="20" viewBox="0 0 20 20" fill="none" xmlns="http://www.w3.org/2000/svg">
<g filter="url(#filter0_b_1824_13074)">
<rect width="20" height="20" rx="10" fill="#C3C3C3" fill-opacity="0.3" style="mix-blend-mode:luminosity"/>
<rect x="0.5" y="0.5" width="19" height="19" rx="9.5" stroke="url(#paint0_linear_1824_13074)"/>
<path fill-rule="evenodd" clip-rule="evenodd" d="M15.4925 10.4281C15.4925 11.9133 14.9025 13.3377 13.8523 14.3879C12.8021 15.4381 11.3777 16.0281 9.89248 16.0281C8.40727 16.0281 6.98289 15.4381 5.93268 14.3879C4.88248 13.3377 4.29248 11.9133 4.29248 10.4281C4.29248 8.94291 4.88248 7.51853 5.93268 6.46833C6.98289 5.41812 8.40727 4.82813 9.89248 4.82812C11.3777 4.82813 12.8021 5.41812 13.8523 6.46833C14.9025 7.51853 15.4925 8.94291 15.4925 10.4281ZM10.5925 13.2281C10.5925 13.4138 10.5187 13.5918 10.3875 13.7231C10.2562 13.8544 10.0781 13.9281 9.89248 13.9281C9.70683 13.9281 9.52878 13.8544 9.39751 13.7231C9.26623 13.5918 9.19248 13.4138 9.19248 13.2281C9.19248 13.0425 9.26623 12.8644 9.39751 12.7332C9.52878 12.6019 9.70683 12.5281 9.89248 12.5281C10.0781 12.5281 10.2562 12.6019 10.3875 12.7332C10.5187 12.8644 10.5925 13.0425 10.5925 13.2281ZM9.89248 6.92812C9.70683 6.92812 9.52878 7.00187 9.39751 7.13315C9.26623 7.26443 9.19248 7.44247 9.19248 7.62812V10.4281C9.19248 10.6138 9.26623 10.7918 9.39751 10.9231C9.52878 11.0544 9.70683 11.1281 9.89248 11.1281C10.0781 11.1281 10.2562 11.0544 10.3875 10.9231C10.5187 10.7918 10.5925 10.6138 10.5925 10.4281V7.62812C10.5925 7.44247 10.5187 7.26443 10.3875 7.13315C10.2562 7.00187 10.0781 6.92812 9.89248 6.92812Z" fill="white"/>
</g>
<defs>
<filter id="filter0_b_1824_13074" x="-115.377" y="-115.377" width="250.754" height="250.754" filterUnits="userSpaceOnUse" color-interpolation-filters="sRGB">
<feFlood flood-opacity="0" result="BackgroundImageFix"/>
<feGaussianBlur in="BackgroundImageFix" stdDeviation="57.6885"/>
<feComposite in2="SourceAlpha" operator="in" result="effect1_backgroundBlur_1824_13074"/>
<feBlend mode="normal" in="SourceGraphic" in2="effect1_backgroundBlur_1824_13074" result="shape"/>
</filter>
<linearGradient id="paint0_linear_1824_13074" x1="1.4011" y1="-4.43439e-06" x2="10.9298" y2="21.9367" gradientUnits="userSpaceOnUse">
<stop stop-color="white" stop-opacity="0.25"/>
<stop offset="0.605751" stop-color="white" stop-opacity="0.02"/>
<stop offset="0.701033" stop-color="white" stop-opacity="0.02"/>
<stop offset="1" stop-color="white" stop-opacity="0.1"/>
</linearGradient>
</defs>
</svg>
