<svg width="17" height="15" viewBox="0 0 17 15" fill="none" xmlns="http://www.w3.org/2000/svg">
<path fill-rule="evenodd" clip-rule="evenodd" d="M8.1666 14.9001C9.86399 14.9001 11.4919 14.2258 12.6921 13.0256C13.8923 11.8253 14.5666 10.1975 14.5666 8.5001C14.5666 6.80271 13.8923 5.17485 12.6921 3.97461C11.4919 2.77438 9.86399 2.1001 8.1666 2.1001C6.46922 2.1001 4.84135 2.77438 3.64112 3.97461C2.44089 5.17485 1.7666 6.80271 1.7666 8.5001C1.7666 10.1975 2.44089 11.8253 3.64112 13.0256C4.84135 14.2258 6.46922 14.9001 8.1666 14.9001ZM7.1322 6.3345C6.98132 6.18877 6.77924 6.10814 6.56948 6.10996C6.35972 6.11178 6.15907 6.19592 6.01075 6.34424C5.86242 6.49257 5.77829 6.69322 5.77646 6.90298C5.77464 7.11273 5.85528 7.31482 6.001 7.4657L7.0354 8.5001L6.001 9.5345C5.92459 9.6083 5.86365 9.69657 5.82172 9.79417C5.77979 9.89178 5.75772 9.99675 5.7568 10.103C5.75588 10.2092 5.77612 10.3145 5.81634 10.4129C5.85657 10.5112 5.91597 10.6005 5.99109 10.6756C6.0662 10.7507 6.15552 10.8101 6.25384 10.8504C6.35216 10.8906 6.4575 10.9108 6.56372 10.9099C6.66995 10.909 6.77492 10.8869 6.87253 10.845C6.97013 10.8031 7.0584 10.7421 7.1322 10.6657L8.1666 9.6313L9.201 10.6657C9.35188 10.8114 9.55397 10.8921 9.76372 10.8902C9.97348 10.8884 10.1741 10.8043 10.3225 10.656C10.4708 10.5076 10.5549 10.307 10.5567 10.0972C10.5586 9.88746 10.4779 9.68538 10.3322 9.5345L9.2978 8.5001L10.3322 7.4657C10.4779 7.31482 10.5586 7.11273 10.5567 6.90298C10.5549 6.69322 10.4708 6.49257 10.3225 6.34424C10.1741 6.19592 9.97348 6.11178 9.76372 6.10996C9.55397 6.10814 9.35188 6.18877 9.201 6.3345L8.1666 7.3689L7.1322 6.3345Z" fill="#D56C6C"/>
</svg>
