<svg width="32" height="32" viewBox="0 0 32 32" fill="none" xmlns="http://www.w3.org/2000/svg">
<circle cx="16.0003" cy="15.9998" r="11.3333" fill="url(#paint0_linear_1824_6954)"/>
<g filter="url(#filter0_i_1824_6954)">
<circle cx="16.0014" cy="15.9975" r="7.36667" fill="url(#paint1_radial_1824_6954)"/>
<circle cx="16.0014" cy="15.9975" r="7.36667" fill="url(#paint2_radial_1824_6954)" fill-opacity="0.29"/>
<circle cx="16.0014" cy="15.9975" r="7.36667" fill="url(#paint3_linear_1824_6954)" fill-opacity="0.2" style="mix-blend-mode:multiply"/>
</g>
<circle cx="16.0014" cy="15.9975" r="8.075" stroke="url(#paint4_linear_1824_6954)" stroke-width="1.41667"/>
<g style="mix-blend-mode:overlay" opacity="0.25">
<circle cx="16.0011" cy="15.9979" r="8.85417" stroke="white" stroke-width="0.141667"/>
</g>
<g clip-path="url(#clip0_1824_6954)">
<g filter="url(#filter1_di_1824_6954)">
<path d="M17.406 13.3622C17.256 13.3622 17.1195 13.3265 16.9965 13.2552C16.8736 13.1814 16.7752 13.0843 16.7014 12.9638C16.6301 12.8408 16.5944 12.7043 16.5944 12.5543C16.5944 12.4042 16.6301 12.269 16.7014 12.1484C16.7752 12.0255 16.8736 11.9283 16.9965 11.857C17.1195 11.7857 17.256 11.75 17.406 11.75C17.5536 11.75 17.6876 11.7857 17.8082 11.857C17.9311 11.9283 18.0283 12.0255 18.0996 12.1484C18.1709 12.269 18.2066 12.4042 18.2066 12.5543C18.2066 12.7043 18.1709 12.8408 18.0996 12.9638C18.0283 13.0843 17.9311 13.1814 17.8082 13.2552C17.6876 13.3265 17.5536 13.3622 17.406 13.3622ZM14.8937 19.9475C14.7879 19.9475 14.6981 19.9106 14.6243 19.8368C14.5506 19.763 14.5137 19.6732 14.5137 19.5675V17.4978L14.2296 15.8303L12.5399 15.5499C12.444 15.5327 12.3665 15.4933 12.3075 15.4319C12.2509 15.3679 12.2227 15.2732 12.2227 15.1478V12.8826C12.2227 12.7695 12.2571 12.6785 12.326 12.6096C12.3973 12.5383 12.4895 12.5026 12.6026 12.5026C12.7182 12.5026 12.8105 12.5383 12.8793 12.6096C12.9507 12.6785 12.9863 12.7695 12.9863 12.8826V14.7973H14.8937C15.0978 14.7973 15.2786 14.7506 15.436 14.6571C15.5934 14.5612 15.725 14.4284 15.8307 14.2587C15.8602 14.2095 15.8652 14.1615 15.8455 14.1148C15.8283 14.0681 15.7963 14.0361 15.7496 14.0189L13.7389 13.3474C13.6184 13.3081 13.5385 13.2405 13.4991 13.1445C13.4622 13.0462 13.4586 12.9515 13.4881 12.8605C13.5176 12.7695 13.5741 12.6969 13.6578 12.6428C13.7439 12.5862 13.8521 12.5801 13.9824 12.6243L19.5753 14.4911C19.6958 14.5305 19.7745 14.5993 19.8114 14.6977C19.8483 14.7936 19.852 14.8871 19.8225 14.9781C19.7954 15.0691 19.7389 15.1429 19.6528 15.1994C19.5667 15.2535 19.4597 15.2585 19.3318 15.2142L17.4651 14.587C17.3913 14.56 17.3322 14.555 17.288 14.5723C17.2437 14.587 17.2142 14.6128 17.1994 14.6497C17.0224 15.031 16.7629 15.3519 16.421 15.6126C16.0791 15.8709 15.6979 16.0344 15.2773 16.1033V19.5675C15.2773 19.6732 15.2392 19.763 15.163 19.8368C15.0867 19.9106 14.997 19.9475 14.8937 19.9475Z" fill="white" shape-rendering="crispEdges"/>
<path d="M17.406 13.3622C17.256 13.3622 17.1195 13.3265 16.9965 13.2552C16.8736 13.1814 16.7752 13.0843 16.7014 12.9638C16.6301 12.8408 16.5944 12.7043 16.5944 12.5543C16.5944 12.4042 16.6301 12.269 16.7014 12.1484C16.7752 12.0255 16.8736 11.9283 16.9965 11.857C17.1195 11.7857 17.256 11.75 17.406 11.75C17.5536 11.75 17.6876 11.7857 17.8082 11.857C17.9311 11.9283 18.0283 12.0255 18.0996 12.1484C18.1709 12.269 18.2066 12.4042 18.2066 12.5543C18.2066 12.7043 18.1709 12.8408 18.0996 12.9638C18.0283 13.0843 17.9311 13.1814 17.8082 13.2552C17.6876 13.3265 17.5536 13.3622 17.406 13.3622ZM14.8937 19.9475C14.7879 19.9475 14.6981 19.9106 14.6243 19.8368C14.5506 19.763 14.5137 19.6732 14.5137 19.5675V17.4978L14.2296 15.8303L12.5399 15.5499C12.444 15.5327 12.3665 15.4933 12.3075 15.4319C12.2509 15.3679 12.2227 15.2732 12.2227 15.1478V12.8826C12.2227 12.7695 12.2571 12.6785 12.326 12.6096C12.3973 12.5383 12.4895 12.5026 12.6026 12.5026C12.7182 12.5026 12.8105 12.5383 12.8793 12.6096C12.9507 12.6785 12.9863 12.7695 12.9863 12.8826V14.7973H14.8937C15.0978 14.7973 15.2786 14.7506 15.436 14.6571C15.5934 14.5612 15.725 14.4284 15.8307 14.2587C15.8602 14.2095 15.8652 14.1615 15.8455 14.1148C15.8283 14.0681 15.7963 14.0361 15.7496 14.0189L13.7389 13.3474C13.6184 13.3081 13.5385 13.2405 13.4991 13.1445C13.4622 13.0462 13.4586 12.9515 13.4881 12.8605C13.5176 12.7695 13.5741 12.6969 13.6578 12.6428C13.7439 12.5862 13.8521 12.5801 13.9824 12.6243L19.5753 14.4911C19.6958 14.5305 19.7745 14.5993 19.8114 14.6977C19.8483 14.7936 19.852 14.8871 19.8225 14.9781C19.7954 15.0691 19.7389 15.1429 19.6528 15.1994C19.5667 15.2535 19.4597 15.2585 19.3318 15.2142L17.4651 14.587C17.3913 14.56 17.3322 14.555 17.288 14.5723C17.2437 14.587 17.2142 14.6128 17.1994 14.6497C17.0224 15.031 16.7629 15.3519 16.421 15.6126C16.0791 15.8709 15.6979 16.0344 15.2773 16.1033V19.5675C15.2773 19.6732 15.2392 19.763 15.163 19.8368C15.0867 19.9106 14.997 19.9475 14.8937 19.9475Z" fill="url(#paint5_radial_1824_6954)" shape-rendering="crispEdges"/>
<path d="M16.2235 12.9243L14.1191 12.2219C14.1187 12.2218 14.1183 12.2217 14.1179 12.2215C13.909 12.1509 13.6548 12.1369 13.4256 12.2868C13.3683 12.324 13.3162 12.367 13.2701 12.4154C13.244 12.3782 13.214 12.3426 13.1799 12.309C13.0183 12.1448 12.8105 12.0776 12.6026 12.0776C12.3918 12.0776 12.1865 12.148 12.0254 12.3091C11.8639 12.4706 11.7977 12.6764 11.7977 12.8826V15.1478C11.7977 15.3293 11.8378 15.5423 11.9892 15.7135L11.9949 15.7199L12.0009 15.7262C12.1308 15.8614 12.2938 15.9375 12.4648 15.9682L12.4648 15.9683L12.4704 15.9692L13.8615 16.2L14.0887 17.5338V19.5675C14.0887 19.7843 14.1691 19.9826 14.3238 20.1373C14.4785 20.292 14.6769 20.3725 14.8937 20.3725C15.1106 20.3725 15.3054 20.2904 15.4585 20.1422C15.6172 19.9887 15.7023 19.7888 15.7023 19.5675V16.4425C16.0534 16.3409 16.3791 16.1769 16.6772 15.9517L16.6772 15.9518L16.6787 15.9506C17.0102 15.6978 17.2773 15.3934 17.4769 15.0393L19.1949 15.6165C19.4009 15.6874 19.6509 15.7026 19.879 15.5593L19.879 15.5593L19.8862 15.5546C20.047 15.4489 20.1696 15.2974 20.2284 15.1042C20.2882 14.9156 20.2766 14.7243 20.2087 14.5467C20.1169 14.3038 19.9228 14.1579 19.7087 14.0876L18.1209 13.5576C18.2604 13.4568 18.3765 13.3304 18.4654 13.1802L18.4654 13.1802L18.4672 13.177C18.5783 12.9856 18.6316 12.7749 18.6316 12.5543C18.6316 12.3343 18.5785 12.1239 18.4663 11.9336C18.3582 11.7479 18.2087 11.5984 18.023 11.4903C17.8338 11.3787 17.6249 11.325 17.406 11.325C17.1854 11.325 16.9747 11.3783 16.7833 11.4893C16.5976 11.5971 16.4474 11.7457 16.337 11.9298L16.3356 11.932C16.2228 12.1227 16.1694 12.3337 16.1694 12.5543C16.1694 12.6815 16.1871 12.8054 16.2235 12.9243ZM13.6055 13.7509L15.2209 14.2904C15.2196 14.2912 15.2183 14.2921 15.217 14.2929C15.1329 14.3423 15.0294 14.3723 14.8937 14.3723H13.4113V13.6618C13.4726 13.6994 13.5382 13.7289 13.6055 13.7509Z" stroke="white" stroke-opacity="0.8" stroke-width="0.85" shape-rendering="crispEdges"/>
</g>
</g>
<defs>
<filter id="filter0_i_1824_6954" x="7.21802" y="7.21411" width="17.5667" height="17.5667" filterUnits="userSpaceOnUse" color-interpolation-filters="sRGB">
<feFlood flood-opacity="0" result="BackgroundImageFix"/>
<feBlend mode="normal" in="SourceGraphic" in2="BackgroundImageFix" result="shape"/>
<feColorMatrix in="SourceAlpha" type="matrix" values="0 0 0 0 0 0 0 0 0 0 0 0 0 0 0 0 0 0 127 0" result="hardAlpha"/>
<feOffset/>
<feGaussianBlur stdDeviation="3.1875"/>
<feComposite in2="hardAlpha" operator="arithmetic" k2="-1" k3="1"/>
<feColorMatrix type="matrix" values="0 0 0 0 0.358333 0 0 0 0 0.0840788 0 0 0 0 0.0627083 0 0 0 1 0"/>
<feBlend mode="normal" in2="shape" result="effect1_innerShadow_1824_6954"/>
</filter>
<filter id="filter1_di_1824_6954" x="10.975" y="10.8999" width="10.1148" height="10.8252" filterUnits="userSpaceOnUse" color-interpolation-filters="sRGB">
<feFlood flood-opacity="0" result="BackgroundImageFix"/>
<feColorMatrix in="SourceAlpha" type="matrix" values="0 0 0 0 0 0 0 0 0 0 0 0 0 0 0 0 0 0 127 0" result="hardAlpha"/>
<feOffset dy="0.530116"/>
<feGaussianBlur stdDeviation="0.198794"/>
<feComposite in2="hardAlpha" operator="out"/>
<feColorMatrix type="matrix" values="0 0 0 0 0 0 0 0 0 0 0 0 0 0 0 0 0 0 0.25 0"/>
<feBlend mode="normal" in2="BackgroundImageFix" result="effect1_dropShadow_1824_6954"/>
<feBlend mode="normal" in="SourceGraphic" in2="effect1_dropShadow_1824_6954" result="shape"/>
<feColorMatrix in="SourceAlpha" type="matrix" values="0 0 0 0 0 0 0 0 0 0 0 0 0 0 0 0 0 0 127 0" result="hardAlpha"/>
<feOffset dx="0.132529" dy="0.265058"/>
<feGaussianBlur stdDeviation="0.927703"/>
<feComposite in2="hardAlpha" operator="arithmetic" k2="-1" k3="1"/>
<feColorMatrix type="matrix" values="0 0 0 0 0.576471 0 0 0 0 0.309804 0 0 0 0 0.196078 0 0 0 1 0"/>
<feBlend mode="normal" in2="shape" result="effect2_innerShadow_1824_6954"/>
</filter>
<linearGradient id="paint0_linear_1824_6954" x1="16.0003" y1="4.6665" x2="16.0003" y2="27.3332" gradientUnits="userSpaceOnUse">
<stop stop-color="#FFC190"/>
<stop offset="1" stop-color="#C35A2A"/>
</linearGradient>
<radialGradient id="paint1_radial_1824_6954" cx="0" cy="0" r="1" gradientUnits="userSpaceOnUse" gradientTransform="translate(16.0014 15.9975) rotate(90) scale(11.475)">
<stop stop-color="#DA9062"/>
<stop offset="1" stop-color="#C67341"/>
</radialGradient>
<radialGradient id="paint2_radial_1824_6954" cx="0" cy="0" r="1" gradientUnits="userSpaceOnUse" gradientTransform="translate(12.7431 13.3059) rotate(-44.2462) scale(7.61384 4.04119)">
<stop stop-color="#B57777"/>
<stop offset="1" stop-color="#D28787" stop-opacity="0"/>
</radialGradient>
<linearGradient id="paint3_linear_1824_6954" x1="16.0014" y1="8.63086" x2="16.0014" y2="23.3642" gradientUnits="userSpaceOnUse">
<stop stop-opacity="0"/>
<stop offset="1"/>
</linearGradient>
<linearGradient id="paint4_linear_1824_6954" x1="16.0014" y1="8.63086" x2="16.0014" y2="23.3642" gradientUnits="userSpaceOnUse">
<stop stop-color="#C76030"/>
<stop offset="1" stop-color="#FCBC8B"/>
</linearGradient>
<radialGradient id="paint5_radial_1824_6954" cx="0" cy="0" r="1" gradientUnits="userSpaceOnUse" gradientTransform="translate(17.1477 12.5688) rotate(136.747) scale(7.19364 16.6048)">
<stop stop-color="#F5B77E"/>
<stop offset="1" stop-color="#C77830"/>
</radialGradient>
<clipPath id="clip0_1824_6954">
<rect width="11.3333" height="11.3333" fill="white" transform="translate(10.333 10.3311)"/>
</clipPath>
</defs>
</svg>
