<svg width="14" height="14" viewBox="0 0 14 14" fill="none" xmlns="http://www.w3.org/2000/svg">
<path fill-rule="evenodd" clip-rule="evenodd" d="M12.3949 6.50549C12.5262 6.63676 12.5999 6.81478 12.5999 7.00039C12.5999 7.18601 12.5262 7.36402 12.3949 7.49529L7.49493 12.3953C7.36366 12.5265 7.18564 12.6002 7.00002 12.6002C6.81441 12.6002 6.63639 12.5265 6.50513 12.3953L1.60512 7.49529C1.54003 7.43037 1.4884 7.35323 1.4532 7.2683C1.418 7.18337 1.39993 7.09233 1.40002 7.00039V3.50039C1.40002 2.94344 1.62127 2.40929 2.0151 2.01547C2.40893 1.62164 2.94307 1.40039 3.50002 1.40039H7.00002C7.17922 1.40039 7.35842 1.46899 7.49493 1.60549L12.3949 6.50549ZM3.50002 4.20039C3.68568 4.20039 3.86372 4.12664 3.995 3.99537C4.12627 3.86409 4.20002 3.68604 4.20002 3.50039C4.20002 3.31474 4.12627 3.13669 3.995 3.00542C3.86372 2.87414 3.68568 2.80039 3.50002 2.80039C3.31437 2.80039 3.13633 2.87414 3.00505 3.00542C2.87377 3.13669 2.80002 3.31474 2.80002 3.50039C2.80002 3.68604 2.87377 3.86409 3.00505 3.99537C3.13633 4.12664 3.31437 4.20039 3.50002 4.20039Z" fill="#000B19"/>
</svg>
