<svg width="14" height="15" viewBox="0 0 14 15" fill="none" xmlns="http://www.w3.org/2000/svg">
<path d="M9.29452 10.6226C8.74245 10.0878 9.5878 9.24245 10.1226 9.79452L11.9513 11.6232C12.5034 12.1753 11.6753 13.0034 11.1232 12.4513L9.29452 10.6226ZM10.8299 8.08657C10.0536 8.08657 10.0536 6.91343 10.8299 6.91343H13.4177C14.1941 6.91343 14.1941 8.08657 13.4177 8.08657H10.8299ZM10.1226 5.20548C9.5878 5.75755 8.74245 4.9122 9.29452 4.36014L11.1232 2.54868C11.6753 1.99661 12.5034 2.82471 11.9513 3.37677L10.1226 5.20548ZM7.58657 3.6528C7.58657 4.42914 6.41343 4.42914 6.41343 3.6528V1.08226C6.41343 0.305915 7.58657 0.305915 7.58657 1.08226V3.6528ZM4.70548 4.36014C5.25755 4.9122 4.4122 5.75755 3.86014 5.20548L2.04868 3.37677C1.49661 2.82471 2.32471 1.99661 2.87677 2.54868L4.70548 4.36014ZM3.1528 6.91343C3.92914 6.91343 3.92914 8.08657 3.1528 8.08657H0.582255C-0.194085 8.08657 -0.194085 6.91343 0.582255 6.91343H3.1528ZM3.86014 9.79452C4.4122 9.24245 5.25755 10.0878 4.70548 10.6226L2.87677 12.4513C2.32471 13.0034 1.49661 12.1753 2.04868 11.6232L3.86014 9.79452ZM6.41343 11.3299C6.41343 10.5536 7.58657 10.5536 7.58657 11.3299V13.9177C7.58657 14.6941 6.41343 14.6941 6.41343 13.9177V11.3299Z" fill="white"/>
</svg>
