<svg width="14" height="14" viewBox="0 0 14 14" fill="none" xmlns="http://www.w3.org/2000/svg">
<path d="M12.25 12.25L8.75 8.75M9.91667 5.83333C9.91667 6.36956 9.81105 6.90054 9.60584 7.39596C9.40063 7.89137 9.09986 8.34151 8.72069 8.72069C8.34151 9.09986 7.89137 9.40063 7.39596 9.60584C6.90054 9.81105 6.36956 9.91667 5.83333 9.91667C5.2971 9.91667 4.76612 9.81105 4.27071 9.60584C3.7753 9.40063 3.32515 9.09986 2.94598 8.72069C2.56681 8.34151 2.26603 7.89137 2.06083 7.39596C1.85562 6.90054 1.75 6.36956 1.75 5.83333C1.75 4.75037 2.18021 3.71175 2.94598 2.94598C3.71175 2.18021 4.75037 1.75 5.83333 1.75C6.9163 1.75 7.95491 2.18021 8.72069 2.94598C9.48646 3.71175 9.91667 4.75037 9.91667 5.83333Z" stroke="#878E97" stroke-width="1.5" stroke-linecap="round" stroke-linejoin="round"/>
</svg>
