<svg width="14" height="14" viewBox="0 0 14 14" fill="none" xmlns="http://www.w3.org/2000/svg">
<path d="M12.1902 1.80834C11.9277 1.54588 11.5716 1.39844 11.2004 1.39844C10.8292 1.39844 10.4731 1.54588 10.2106 1.80834L4.90039 7.11854V9.09814H6.87999L12.1902 3.78794C12.4526 3.5254 12.6001 3.16937 12.6001 2.79814C12.6001 2.42691 12.4526 2.07088 12.1902 1.80834Z" fill="white"/>
<path fill-rule="evenodd" clip-rule="evenodd" d="M1.40039 4.20078C1.40039 3.82948 1.54789 3.47338 1.81044 3.21083C2.07299 2.94828 2.42909 2.80078 2.80039 2.80078H5.60039C5.78604 2.80078 5.96409 2.87453 6.09537 3.00581C6.22664 3.13708 6.30039 3.31513 6.30039 3.50078C6.30039 3.68643 6.22664 3.86448 6.09537 3.99576C5.96409 4.12703 5.78604 4.20078 5.60039 4.20078H2.80039V11.2008H9.80039V8.40078C9.80039 8.21513 9.87414 8.03708 10.0054 7.90581C10.1367 7.77453 10.3147 7.70078 10.5004 7.70078C10.686 7.70078 10.8641 7.77453 10.9954 7.90581C11.1266 8.03708 11.2004 8.21513 11.2004 8.40078V11.2008C11.2004 11.5721 11.0529 11.9282 10.7903 12.1907C10.5278 12.4533 10.1717 12.6008 9.80039 12.6008H2.80039C2.42909 12.6008 2.07299 12.4533 1.81044 12.1907C1.54789 11.9282 1.40039 11.5721 1.40039 11.2008V4.20078Z" fill="white"/>
</svg>
