<svg width="24" height="24" viewBox="0 0 24 24" fill="none" xmlns="http://www.w3.org/2000/svg">
<path fill-rule="evenodd" clip-rule="evenodd" d="M9.24841 17.6483C9.02338 17.8733 8.71821 17.9996 8.40001 17.9996C8.08181 17.9996 7.77665 17.8733 7.55161 17.6483L2.75161 12.8483C2.52665 12.6233 2.40027 12.3181 2.40027 11.9999C2.40027 11.6817 2.52665 11.3765 2.75161 11.1515L7.55161 6.3515C7.77793 6.13291 8.08106 6.01196 8.39569 6.01469C8.71033 6.01743 9.0113 6.14363 9.23379 6.36612C9.45628 6.58861 9.58249 6.88959 9.58522 7.20422C9.58795 7.51886 9.467 7.82198 9.24841 8.0483L6.49681 10.7999H20.4C20.7183 10.7999 21.0235 10.9263 21.2485 11.1514C21.4736 11.3764 21.6 11.6816 21.6 11.9999C21.6 12.3182 21.4736 12.6234 21.2485 12.8484C21.0235 13.0735 20.7183 13.1999 20.4 13.1999H6.49681L9.24841 15.9515C9.47338 16.1765 9.59976 16.4817 9.59976 16.7999C9.59976 17.1181 9.47338 17.4233 9.24841 17.6483Z" fill="#0C343D"/>
</svg>
