<svg width="22" height="22" viewBox="0 0 22 22" fill="none" xmlns="http://www.w3.org/2000/svg">
<path fill-rule="evenodd" clip-rule="evenodd" d="M13.2 7.7C12.9083 7.7 12.6285 7.58411 12.4222 7.37782C12.2159 7.17153 12.1 6.89174 12.1 6.6C12.1 6.30826 12.2159 6.02847 12.4222 5.82218C12.6285 5.61589 12.9083 5.5 13.2 5.5H18.7C18.9917 5.5 19.2715 5.61589 19.4778 5.82218C19.6841 6.02847 19.8 6.30826 19.8 6.6V12.1C19.8 12.3917 19.6841 12.6715 19.4778 12.8778C19.2715 13.0841 18.9917 13.2 18.7 13.2C18.4083 13.2 18.1285 13.0841 17.9222 12.8778C17.7159 12.6715 17.6 12.3917 17.6 12.1V9.2554L12.8777 13.9777C12.6714 14.1839 12.3917 14.2998 12.1 14.2998C11.8083 14.2998 11.5286 14.1839 11.3223 13.9777L8.8 11.4554L4.0777 16.1777C3.87024 16.3781 3.59237 16.4889 3.30396 16.4864C3.01554 16.4839 2.73965 16.3682 2.5357 16.1643C2.33175 15.9604 2.21606 15.6845 2.21356 15.396C2.21105 15.1076 2.32193 14.8298 2.5223 14.6223L8.0223 9.1223C8.22858 8.91608 8.50832 8.80023 8.8 8.80023C9.09168 8.80023 9.37142 8.91608 9.5777 9.1223L12.1 11.6446L16.0446 7.7H13.2Z" fill="white"/>
</svg>
