<svg width="20" height="20" viewBox="0 0 20 20" fill="none" xmlns="http://www.w3.org/2000/svg">
<path d="M10.7385 5.21739C11.3829 5.21739 12.0213 5.34198 12.6185 5.58431L15.4612 6.73783C15.7866 6.86992 16 7.18966 16 7.54522V19.1304C16 19.6107 15.6163 20 15.1429 20H4.85714C4.38376 20 4 19.6107 4 19.1304V7.54522C4 7.18966 4.21339 6.86992 4.53881 6.73783L7.3815 5.58431C7.97868 5.34198 8.61707 5.21739 9.26154 5.21739H10.7385ZM12.2884 7.32347C11.6912 7.08113 11.0527 6.95653 10.4083 6.95653H9.59173C8.94723 6.95653 8.30881 7.08113 7.71161 7.32348L6.33826 7.88079C5.96105 8.03386 5.71429 8.40032 5.71429 8.8074V18.2609H14.2857V17.3913H8.78571C8.50957 17.3913 8.28571 17.1674 8.28571 16.8913V13.5435C8.28571 13.2673 8.50957 13.0435 8.78571 13.0435H14.2857V8.8074C14.2857 8.40032 14.0389 8.03386 13.6617 7.88079L12.2884 7.32347ZM11.7143 0C12.1877 0 12.5714 0.389313 12.5714 0.869565V3.34782C12.5714 3.90011 12.1237 4.34782 11.5714 4.34782H8.42857C7.87629 4.34782 7.42857 3.90011 7.42857 3.34782V0.869565C7.42857 0.389313 7.81233 0 8.28571 0H11.7143ZM10.8571 1.73913H9.14286V2.60869H10.8571V1.73913Z" fill="white"/>
</svg>
