<svg width="20" height="20" viewBox="0 0 20 20" fill="none" xmlns="http://www.w3.org/2000/svg">
<path d="M7.64297 7.25466C6.34123 5.95292 6.34123 3.84237 7.64297 2.54062L9.29289 0.890704C9.68342 0.500178 10.3166 0.50018 10.7071 0.890708L12.357 2.54062C13.6587 3.84237 13.6587 5.95292 12.357 7.25466C11.9199 7.69178 11.3916 7.9821 10.8333 8.12568V9.47843H15C15.4602 9.47843 15.8333 9.85152 15.8333 10.3118V18.1451H16.6667C17.1269 18.1451 17.5 18.5182 17.5 18.9784C17.5 19.4387 17.1269 19.8118 16.6667 19.8118H3.33333C2.8731 19.8118 2.5 19.4387 2.5 18.9784C2.5 18.5182 2.8731 18.1451 3.33333 18.1451H4.16667V10.3118C4.16667 9.85152 4.53977 9.47843 5 9.47843H9.16667V8.12568C8.60842 7.9821 8.08009 7.69178 7.64297 7.25466ZM8.8215 3.71913C8.17062 4.37 8.17062 5.42528 8.8215 6.07615C9.47233 6.72703 10.5277 6.72703 11.1785 6.07615C11.8294 5.42528 11.8294 4.37 11.1785 3.71913L10 2.54062L8.8215 3.71913ZM5.83333 11.1451V18.1451H14.1667V11.1451H5.83333Z" fill="white"/>
</svg>
