<svg width="11" height="9" viewBox="0 0 11 9" fill="none" xmlns="http://www.w3.org/2000/svg">
<path fill-rule="evenodd" clip-rule="evenodd" d="M10.7697 0.734239C10.9172 0.884268 11 1.08772 11 1.29986C11 1.512 10.9172 1.71546 10.7697 1.86549L4.47842 8.26576C4.33094 8.41574 4.13095 8.5 3.92242 8.5C3.71389 8.5 3.5139 8.41574 3.36642 8.26576L0.220756 5.06562C0.0775043 4.91474 -0.00176206 4.71265 2.97286e-05 4.50288C0.00182152 4.29311 0.0845281 4.09245 0.230336 3.94412C0.376144 3.79579 0.573387 3.71165 0.779583 3.70983C0.985779 3.708 1.18443 3.78864 1.33275 3.93438L3.92242 6.56889L9.65776 0.734239C9.80523 0.584256 10.0052 0.5 10.2138 0.5C10.4223 0.5 10.6223 0.584256 10.7697 0.734239Z" fill="white"/>
</svg>
