<svg width="8" height="6" viewBox="0 0 8 6" fill="none" xmlns="http://www.w3.org/2000/svg">
<path fill-rule="evenodd" clip-rule="evenodd" d="M7.75556 0.646393C7.84929 0.740157 7.90195 0.867311 7.90195 0.999893C7.90195 1.13248 7.84929 1.25963 7.75556 1.35339L3.75556 5.35339C3.66179 5.44713 3.53464 5.49979 3.40206 5.49979C3.26948 5.49979 3.14232 5.44713 3.04856 5.35339L1.04856 3.35339C0.95748 3.25909 0.907083 3.13279 0.908222 3.00169C0.909361 2.87059 0.961946 2.74519 1.05465 2.65248C1.14735 2.55978 1.27276 2.5072 1.40386 2.50606C1.53496 2.50492 1.66126 2.55531 1.75556 2.64639L3.40206 4.29289L7.04856 0.646393C7.14232 0.552658 7.26948 0.5 7.40206 0.5C7.53464 0.5 7.6618 0.552658 7.75556 0.646393Z" fill="#0C343D"/>
</svg>
