<svg width="17" height="16" viewBox="0 0 17 16" fill="none" xmlns="http://www.w3.org/2000/svg">
<path fill-rule="evenodd" clip-rule="evenodd" d="M8.16672 14.4C9.86411 14.4 11.492 13.7257 12.6922 12.5255C13.8924 11.3252 14.5667 9.69736 14.5667 7.99998C14.5667 6.30259 13.8924 4.67473 12.6922 3.47449C11.492 2.27426 9.86411 1.59998 8.16672 1.59998C6.46934 1.59998 4.84147 2.27426 3.64124 3.47449C2.44101 4.67473 1.76672 6.30259 1.76672 7.99998C1.76672 9.69736 2.44101 11.3252 3.64124 12.5255C4.84147 13.7257 6.46934 14.4 8.16672 14.4ZM11.1323 6.96558C11.2781 6.81469 11.3587 6.61261 11.3569 6.40285C11.355 6.1931 11.2709 5.99245 11.1226 5.84412C10.9743 5.69579 10.7736 5.61166 10.5638 5.60984C10.3541 5.60801 10.152 5.68865 10.0011 5.83438L7.36672 8.46878L6.33232 7.43438C6.18144 7.28865 5.97936 7.20801 5.7696 7.20984C5.55985 7.21166 5.3592 7.29579 5.21087 7.44412C5.06254 7.59245 4.97841 7.7931 4.97658 8.00285C4.97476 8.21261 5.0554 8.41469 5.20112 8.56558L6.80112 10.1656C6.95115 10.3156 7.15459 10.3998 7.36672 10.3998C7.57886 10.3998 7.7823 10.3156 7.93232 10.1656L11.1323 6.96558Z" fill="#ABCF6F"/>
</svg>
