<svg width="18" height="19" viewBox="0 0 18 19" fill="none" xmlns="http://www.w3.org/2000/svg">
<path fill-rule="evenodd" clip-rule="evenodd" d="M8.9998 16.7008C10.9094 16.7008 12.7407 15.9422 14.091 14.592C15.4412 13.2417 16.1998 11.4103 16.1998 9.50078C16.1998 7.59122 15.4412 5.75987 14.091 4.40961C12.7407 3.05935 10.9094 2.30078 8.9998 2.30078C7.09025 2.30078 5.2589 3.05935 3.90864 4.40961C2.55837 5.75987 1.7998 7.59122 1.7998 9.50078C1.7998 11.4103 2.55837 13.2417 3.90864 14.592C5.2589 15.9422 7.09025 16.7008 8.9998 16.7008ZM12.3361 8.33708C12.5 8.16734 12.5908 7.94 12.5887 7.70402C12.5867 7.46804 12.492 7.24231 12.3251 7.07544C12.1583 6.90858 11.9325 6.81392 11.6966 6.81187C11.4606 6.80982 11.2332 6.90054 11.0635 7.06448L8.0998 10.0282L6.9361 8.86448C6.76636 8.70054 6.53902 8.60982 6.30304 8.61187C6.06707 8.61393 5.84134 8.70858 5.67447 8.87544C5.5076 9.04231 5.41295 9.26804 5.4109 9.50402C5.40885 9.74 5.49956 9.96734 5.6635 10.1371L7.4635 11.9371C7.63228 12.1058 7.86116 12.2006 8.0998 12.2006C8.33845 12.2006 8.56733 12.1058 8.7361 11.9371L12.3361 8.33708Z" fill="#000B19"/>
</svg>
