<svg width="14" height="15" viewBox="0 0 14 15" fill="none" xmlns="http://www.w3.org/2000/svg">
<path fill-rule="evenodd" clip-rule="evenodd" d="M9.88887 5.93323C9.78221 6.03986 9.63757 6.09976 9.48676 6.09976C9.33595 6.09976 9.19131 6.03986 9.08465 5.93323L7.21176 4.06034L5.33887 5.93323C5.2316 6.03684 5.08793 6.09416 4.93881 6.09287C4.78968 6.09157 4.64703 6.03176 4.54158 5.92631C4.43613 5.82086 4.37632 5.67821 4.37502 5.52908C4.37373 5.37996 4.43105 5.23629 4.53466 5.12902L6.80965 2.85402C6.91631 2.7474 7.06095 2.6875 7.21176 2.6875C7.36257 2.6875 7.50721 2.7474 7.61387 2.85402L9.88887 5.12902C9.99549 5.23568 10.0554 5.38032 10.0554 5.53113C10.0554 5.68194 9.99549 5.82658 9.88887 5.93323Z" fill="#000B19"/>
<path fill-rule="evenodd" clip-rule="evenodd" d="M9.88887 8.9779C9.78221 8.87127 9.63757 8.81138 9.48676 8.81138C9.33595 8.81138 9.19131 8.87127 9.08465 8.9779L7.21176 10.8508L5.33887 8.9779C5.2316 8.8743 5.08793 8.81697 4.93881 8.81826C4.78968 8.81956 4.64703 8.87938 4.54158 8.98483C4.43613 9.09028 4.37632 9.23293 4.37502 9.38205C4.37373 9.53118 4.43105 9.67484 4.53466 9.78211L6.80965 12.0571C6.91631 12.1637 7.06095 12.2236 7.21176 12.2236C7.36257 12.2236 7.50721 12.1637 7.61387 12.0571L9.88887 9.78211C9.99549 9.67545 10.0554 9.53082 10.0554 9.38C10.0554 9.22919 9.99549 9.08455 9.88887 8.9779Z" fill="#000B19"/>
</svg>
