<svg width="20" height="21" viewBox="0 0 20 21" fill="none" xmlns="http://www.w3.org/2000/svg">
<path fill-rule="evenodd" clip-rule="evenodd" d="M13.3016 8.76019C13.1797 8.88205 13.0144 8.9505 12.842 8.9505C12.6697 8.9505 12.5044 8.88205 12.3825 8.76019L10.242 6.61974L8.10156 8.76019C7.97897 8.8786 7.81478 8.94411 7.64435 8.94263C7.47392 8.94115 7.3109 8.87279 7.19038 8.75227C7.06987 8.63176 7.00151 8.46873 7.00002 8.2983C6.99854 8.12788 7.06406 7.96368 7.18246 7.84109L9.78246 5.24109C9.90436 5.11924 10.0697 5.05078 10.242 5.05078C10.4144 5.05078 10.5797 5.11924 10.7016 5.24109L13.3016 7.84109C13.4234 7.96299 13.4919 8.12829 13.4919 8.30064C13.4919 8.473 13.4234 8.6383 13.3016 8.76019Z" fill="white"/>
<path fill-rule="evenodd" clip-rule="evenodd" d="M13.3016 12.2398C13.1797 12.118 13.0144 12.0495 12.842 12.0495C12.6697 12.0495 12.5044 12.118 12.3825 12.2398L10.242 14.3803L8.10156 12.2398C7.97897 12.1214 7.81478 12.0559 7.64435 12.0574C7.47392 12.0589 7.3109 12.1272 7.19038 12.2477C7.06987 12.3682 7.00151 12.5313 7.00002 12.7017C6.99854 12.8721 7.06406 13.0363 7.18246 13.1589L9.78246 15.7589C9.90436 15.8808 10.0697 15.9492 10.242 15.9492C10.4144 15.9492 10.5797 15.8808 10.7016 15.7589L13.3016 13.1589C13.4234 13.037 13.4919 12.8717 13.4919 12.6994C13.4919 12.527 13.4234 12.3617 13.3016 12.2398Z" fill="white"/>
</svg>
