<svg width="17" height="16" viewBox="0 0 17 16" fill="none" xmlns="http://www.w3.org/2000/svg">
<path d="M5.47002 7.99844C5.47002 8.42278 5.30145 8.82975 5.00139 9.12981C4.70133 9.42987 4.29437 9.59844 3.87002 9.59844C3.44567 9.59844 3.03871 9.42987 2.73865 9.12981C2.43859 8.82975 2.27002 8.42278 2.27002 7.99844C2.27002 7.57409 2.43859 7.16713 2.73865 6.86707C3.03871 6.56701 3.44567 6.39844 3.87002 6.39844C4.29437 6.39844 4.70133 6.56701 5.00139 6.86707C5.30145 7.16713 5.47002 7.57409 5.47002 7.99844ZM10.27 7.99844C10.27 8.42278 10.1014 8.82975 9.80139 9.12981C9.50133 9.42987 9.09437 9.59844 8.67002 9.59844C8.24567 9.59844 7.83871 9.42987 7.53865 9.12981C7.23859 8.82975 7.07002 8.42278 7.07002 7.99844C7.07002 7.57409 7.23859 7.16713 7.53865 6.86707C7.83871 6.56701 8.24567 6.39844 8.67002 6.39844C9.09437 6.39844 9.50133 6.56701 9.80139 6.86707C10.1014 7.16713 10.27 7.57409 10.27 7.99844ZM13.47 9.59844C13.8944 9.59844 14.3013 9.42987 14.6014 9.12981C14.9014 8.82975 15.07 8.42278 15.07 7.99844C15.07 7.57409 14.9014 7.16713 14.6014 6.86707C14.3013 6.56701 13.8944 6.39844 13.47 6.39844C13.0457 6.39844 12.6387 6.56701 12.3386 6.86707C12.0386 7.16713 11.87 7.57409 11.87 7.99844C11.87 8.42278 12.0386 8.82975 12.3386 9.12981C12.6387 9.42987 13.0457 9.59844 13.47 9.59844Z" fill="white"/>
</svg>
