<svg width="33" height="32" viewBox="0 0 33 32" fill="none" xmlns="http://www.w3.org/2000/svg">
<g filter="url(#filter0_b_1768_24837)">
<path d="M0.33667 16C0.33667 7.16344 7.50011 0 16.3367 0C25.1732 0 32.3367 7.16344 32.3367 16C32.3367 24.8366 25.1732 32 16.3367 32C7.50011 32 0.33667 24.8366 0.33667 16Z" fill="#C3C3C3" fill-opacity="0.3" style="mix-blend-mode:luminosity"/>
<path d="M1.14431 16C1.14431 7.60949 7.94616 0.80764 16.3367 0.80764C24.7272 0.80764 31.529 7.60949 31.529 16C31.529 24.3905 24.7272 31.1924 16.3367 31.1924C7.94616 31.1924 1.14431 24.3905 1.14431 16Z" stroke="url(#paint0_linear_1768_24837)" stroke-width="1.61528"/>
<path d="M13.1366 15.9984C13.1366 16.4228 12.9681 16.8297 12.668 17.1298C12.368 17.4299 11.961 17.5984 11.5366 17.5984C11.1123 17.5984 10.7053 17.4299 10.4053 17.1298C10.1052 16.8297 9.93665 16.4228 9.93665 15.9984C9.93665 15.5741 10.1052 15.1671 10.4053 14.8671C10.7053 14.567 11.1123 14.3984 11.5366 14.3984C11.961 14.3984 12.368 14.567 12.668 14.8671C12.9681 15.1671 13.1366 15.5741 13.1366 15.9984ZM17.9366 15.9984C17.9366 16.4228 17.7681 16.8297 17.468 17.1298C17.168 17.4299 16.761 17.5984 16.3366 17.5984C15.9123 17.5984 15.5053 17.4299 15.2053 17.1298C14.9052 16.8297 14.7366 16.4228 14.7366 15.9984C14.7366 15.5741 14.9052 15.1671 15.2053 14.8671C15.5053 14.567 15.9123 14.3984 16.3366 14.3984C16.761 14.3984 17.168 14.567 17.468 14.8671C17.7681 15.1671 17.9366 15.5741 17.9366 15.9984ZM21.1366 17.5984C21.561 17.5984 21.968 17.4299 22.268 17.1298C22.5681 16.8297 22.7366 16.4228 22.7366 15.9984C22.7366 15.5741 22.5681 15.1671 22.268 14.8671C21.968 14.567 21.561 14.3984 21.1366 14.3984C20.7123 14.3984 20.3053 14.567 20.0053 14.8671C19.7052 15.1671 19.5366 15.5741 19.5366 15.9984C19.5366 16.4228 19.7052 16.8297 20.0053 17.1298C20.3053 17.4299 20.7123 17.5984 21.1366 17.5984Z" fill="white"/>
</g>
<defs>
<filter id="filter0_b_1768_24837" x="-115.04" y="-115.377" width="262.754" height="262.754" filterUnits="userSpaceOnUse" color-interpolation-filters="sRGB">
<feFlood flood-opacity="0" result="BackgroundImageFix"/>
<feGaussianBlur in="BackgroundImageFix" stdDeviation="57.6885"/>
<feComposite in2="SourceAlpha" operator="in" result="effect1_backgroundBlur_1768_24837"/>
<feBlend mode="normal" in="SourceGraphic" in2="effect1_backgroundBlur_1768_24837" result="shape"/>
</filter>
<linearGradient id="paint0_linear_1768_24837" x1="2.57843" y1="-7.09502e-06" x2="17.8244" y2="35.0987" gradientUnits="userSpaceOnUse">
<stop stop-color="white" stop-opacity="0.25"/>
<stop offset="0.605751" stop-color="white" stop-opacity="0.02"/>
<stop offset="0.701033" stop-color="white" stop-opacity="0.02"/>
<stop offset="1" stop-color="white" stop-opacity="0.1"/>
</linearGradient>
</defs>
</svg>
