<svg width="18" height="18" viewBox="0 0 18 18" fill="none" xmlns="http://www.w3.org/2000/svg">
<path d="M15.6724 2.3278C15.3349 1.99035 14.8771 1.80078 14.3998 1.80078C13.9225 1.80078 13.4648 1.99035 13.1272 2.3278L6.2998 9.1552V11.7004H8.845L15.6724 4.873C16.0099 4.53545 16.1994 4.07769 16.1994 3.6004C16.1994 3.1231 16.0099 2.66535 15.6724 2.3278Z" fill="#000B19"/>
<path fill-rule="evenodd" clip-rule="evenodd" d="M1.7998 5.40156C1.7998 4.92417 1.98945 4.46634 2.32701 4.12877C2.66458 3.7912 3.12242 3.60156 3.5998 3.60156H7.1998C7.4385 3.60156 7.66742 3.69638 7.8362 3.86517C8.00498 4.03395 8.0998 4.26287 8.0998 4.50156C8.0998 4.74026 8.00498 4.96918 7.8362 5.13796C7.66742 5.30674 7.4385 5.40156 7.1998 5.40156H3.5998V14.4016H12.5998V10.8016C12.5998 10.5629 12.6946 10.3339 12.8634 10.1652C13.0322 9.99638 13.2611 9.90156 13.4998 9.90156C13.7385 9.90156 13.9674 9.99638 14.1362 10.1652C14.305 10.3339 14.3998 10.5629 14.3998 10.8016V14.4016C14.3998 14.879 14.2102 15.3368 13.8726 15.6744C13.535 16.0119 13.0772 16.2016 12.5998 16.2016H3.5998C3.12242 16.2016 2.66458 16.0119 2.32701 15.6744C1.98945 15.3368 1.7998 14.879 1.7998 14.4016V5.40156Z" fill="#000B19"/>
</svg>
