<svg width="20" height="20" viewBox="0 0 20 20" fill="none" xmlns="http://www.w3.org/2000/svg">
<path fill-rule="evenodd" clip-rule="evenodd" d="M9.99941 19.5984C12.5455 19.5984 14.9873 18.587 16.7876 16.7867C18.588 14.9863 19.5994 12.5445 19.5994 9.99844C19.5994 7.45236 18.588 5.01056 16.7876 3.21021C14.9873 1.40986 12.5455 0.398438 9.99941 0.398438C7.45334 0.398438 5.01154 1.40986 3.21119 3.21021C1.41084 5.01056 0.399414 7.45236 0.399414 9.99844C0.399414 12.5445 1.41084 14.9863 3.21119 16.7867C5.01154 18.587 7.45334 19.5984 9.99941 19.5984ZM11.1994 6.39844C11.1994 6.08018 11.073 5.77495 10.8479 5.54991C10.6229 5.32487 10.3177 5.19844 9.99941 5.19844C9.68115 5.19844 9.37593 5.32487 9.15089 5.54991C8.92584 5.77495 8.79941 6.08018 8.79941 6.39844V8.79844H6.39941C6.08115 8.79844 5.77593 8.92487 5.55089 9.14991C5.32584 9.37495 5.19941 9.68018 5.19941 9.99844C5.19941 10.3167 5.32584 10.6219 5.55089 10.847C5.77593 11.072 6.08115 11.1984 6.39941 11.1984H8.79941V13.5984C8.79941 13.9167 8.92584 14.2219 9.15089 14.447C9.37593 14.672 9.68115 14.7984 9.99941 14.7984C10.3177 14.7984 10.6229 14.672 10.8479 14.447C11.073 14.2219 11.1994 13.9167 11.1994 13.5984V11.1984H13.5994C13.9177 11.1984 14.2229 11.072 14.4479 10.847C14.673 10.6219 14.7994 10.3167 14.7994 9.99844C14.7994 9.68018 14.673 9.37495 14.4479 9.14991C14.2229 8.92487 13.9177 8.79844 13.5994 8.79844H11.1994V6.39844Z" fill="#000B19"/>
</svg>
