<svg width="22" height="22" viewBox="0 0 22 22" fill="none" xmlns="http://www.w3.org/2000/svg">
<path fill-rule="evenodd" clip-rule="evenodd" d="M11 19.8C13.3339 19.8 15.5722 18.8729 17.2225 17.2226C18.8729 15.5722 19.8 13.3339 19.8 11C19.8 8.66611 18.8729 6.42779 17.2225 4.77747C15.5722 3.12715 13.3339 2.20001 11 2.20001C8.66609 2.20001 6.42778 3.12715 4.77746 4.77747C3.12714 6.42779 2.2 8.66611 2.2 11C2.2 13.3339 3.12714 15.5722 4.77746 17.2226C6.42778 18.8729 8.66609 19.8 11 19.8ZM12.1 7.70001C12.1 7.40827 11.9841 7.12849 11.7778 6.92219C11.5715 6.71591 11.2917 6.60001 11 6.60001C10.7083 6.60001 10.4285 6.71591 10.2222 6.92219C10.0159 7.12849 9.9 7.40827 9.9 7.70001V9.90001H7.7C7.40826 9.90001 7.12847 10.0159 6.92218 10.2222C6.71589 10.4285 6.6 10.7083 6.6 11C6.6 11.2918 6.71589 11.5715 6.92218 11.7778C7.12847 11.9841 7.40826 12.1 7.7 12.1H9.9V14.3C9.9 14.5918 10.0159 14.8715 10.2222 15.0778C10.4285 15.2841 10.7083 15.4 11 15.4C11.2917 15.4 11.5715 15.2841 11.7778 15.0778C11.9841 14.8715 12.1 14.5918 12.1 14.3V12.1H14.3C14.5917 12.1 14.8715 11.9841 15.0778 11.7778C15.2841 11.5715 15.4 11.2918 15.4 11C15.4 10.7083 15.2841 10.4285 15.0778 10.2222C14.8715 10.0159 14.5917 9.90001 14.3 9.90001H12.1V7.70001Z" fill="white"/>
</svg>
