<svg width="17" height="17" viewBox="0 0 17 17" fill="none" xmlns="http://www.w3.org/2000/svg">
<path d="M14.5 14.5L10.5 10.5M11.8333 7.16667C11.8333 7.7795 11.7126 8.38634 11.4781 8.95252C11.2436 9.51871 10.8998 10.0332 10.4665 10.4665C10.0332 10.8998 9.51871 11.2436 8.95252 11.4781C8.38634 11.7126 7.7795 11.8333 7.16667 11.8333C6.55383 11.8333 5.947 11.7126 5.38081 11.4781C4.81462 11.2436 4.30018 10.8998 3.86683 10.4665C3.43349 10.0332 3.08975 9.51871 2.85523 8.95252C2.62071 8.38634 2.5 7.7795 2.5 7.16667C2.5 5.92899 2.99167 4.742 3.86683 3.86683C4.742 2.99167 5.92899 2.5 7.16667 2.5C8.40434 2.5 9.59133 2.99167 10.4665 3.86683C11.3417 4.742 11.8333 5.92899 11.8333 7.16667Z" stroke="white" stroke-width="2" stroke-linecap="round" stroke-linejoin="round"/>
</svg>
