<svg width="16" height="16" viewBox="0 0 16 16" fill="none" xmlns="http://www.w3.org/2000/svg">
<path d="M2.4783 4.07889C2.19972 4.35746 1.97874 4.68818 1.82797 5.05216C1.67721 5.41614 1.59961 5.80625 1.59961 6.20022C1.59961 6.59419 1.67721 6.9843 1.82797 7.34828C1.97874 7.71226 2.19972 8.04298 2.4783 8.32155L7.59964 13.4429L12.721 8.32155C13.2836 7.75894 13.5997 6.99588 13.5997 6.20022C13.5997 5.40457 13.2836 4.6415 12.721 4.07889C12.1584 3.51628 11.3953 3.2002 10.5996 3.2002C9.80398 3.2002 9.04091 3.51628 8.4783 4.07889L7.59964 4.95755L6.72097 4.07889C6.44239 3.80031 6.11167 3.57933 5.74769 3.42856C5.38371 3.27779 4.9936 3.2002 4.59964 3.2002C4.20567 3.2002 3.81556 3.27779 3.45158 3.42856C3.0876 3.57933 2.75688 3.80031 2.4783 4.07889Z" stroke="white" stroke-width="1.5" stroke-linecap="round" stroke-linejoin="round"/>
</svg>
