<svg width="16" height="16" viewBox="0 0 16 16" fill="none" xmlns="http://www.w3.org/2000/svg">
<path fill-rule="evenodd" clip-rule="evenodd" d="M7.99998 14.4016C9.69736 14.4016 11.3252 13.7273 12.5255 12.527C13.7257 11.3268 14.4 9.69895 14.4 8.00156C14.4 6.30418 13.7257 4.67631 12.5255 3.47608C11.3252 2.27585 9.69736 1.60156 7.99998 1.60156C6.30259 1.60156 4.67473 2.27585 3.47449 3.47608C2.27426 4.67631 1.59998 6.30418 1.59998 8.00156C1.59998 9.69895 2.27426 11.3268 3.47449 12.527C4.67473 13.7273 6.30259 14.4016 7.99998 14.4016ZM8.79998 4.80156C8.79998 4.58939 8.71569 4.38591 8.56566 4.23588C8.41563 4.08585 8.21215 4.00156 7.99998 4.00156C7.7878 4.00156 7.58432 4.08585 7.43429 4.23588C7.28426 4.38591 7.19998 4.58939 7.19998 4.80156V8.00156C7.20002 8.21372 7.28434 8.41717 7.43438 8.56716L9.69678 10.8304C9.7711 10.9047 9.85934 10.9637 9.95646 11.0039C10.0536 11.0441 10.1577 11.0648 10.2628 11.0648C10.3679 11.0648 10.472 11.0441 10.5691 11.0039C10.6662 10.9637 10.7544 10.9047 10.8288 10.8304C10.9031 10.756 10.9621 10.6678 11.0023 10.5707C11.0425 10.4736 11.0632 10.3695 11.0632 10.2644C11.0632 10.1592 11.0425 10.0552 11.0023 9.95805C10.9621 9.86093 10.9031 9.77269 10.8288 9.69836L8.79998 7.67036V4.80156Z" fill="white"/>
</svg>
