<svg id="SvgjsSvg1001" width="288" height="288" xmlns="http://www.w3.org/2000/svg" version="1.1" xmlns:xlink="http://www.w3.org/1999/xlink" xmlns:svgjs="http://svgjs.com/svgjs"><defs id="SvgjsDefs1002"></defs><g id="SvgjsG1008"><svg xmlns="http://www.w3.org/2000/svg" fill="none" viewBox="0 0 18 19" width="288" height="288"><path fill="#000b19" fill-rule="evenodd" d="M8.9998 16.7008C10.9094 16.7008 12.7407 15.9422 14.091 14.592C15.4412 13.2417 16.1998 11.4103 16.1998 9.50078C16.1998 7.59122 15.4412 5.75987 14.091 4.40961C12.7407 3.05935 10.9094 2.30078 8.9998 2.30078C7.09025 2.30078 5.2589 3.05935 3.90864 4.40961C2.55837 5.75987 1.7998 7.59122 1.7998 9.50078C1.7998 11.4103 2.55837 13.2417 3.90864 14.592C5.2589 15.9422 7.09025 16.7008 8.9998 16.7008ZM7.8361 7.06448C7.66636 6.90054 7.43902 6.80982 7.20304 6.81187C6.96707 6.81392 6.74134 6.90858 6.57447 7.07544C6.4076 7.24231 6.31295 7.46804 6.3109 7.70402C6.30885 7.94 6.39956 8.16734 6.5635 8.33708L7.7272 9.50078L6.5635 10.6645C6.47755 10.7475 6.40898 10.8468 6.36181 10.9566C6.31465 11.0664 6.28982 11.1845 6.28878 11.304C6.28774 11.4235 6.31051 11.542 6.35576 11.6526C6.40102 11.7632 6.46785 11.8637 6.55235 11.9482C6.63685 12.0327 6.73734 12.0996 6.84795 12.1448C6.95855 12.1901 7.07706 12.2128 7.19657 12.2118C7.31607 12.2108 7.43417 12.1859 7.54397 12.1388C7.65377 12.0916 7.75308 12.023 7.8361 11.9371L8.9998 10.7734L10.1635 11.9371C10.3332 12.101 10.5606 12.1917 10.7966 12.1897C11.0325 12.1876 11.2583 12.093 11.4251 11.9261C11.592 11.7593 11.6867 11.5335 11.6887 11.2975C11.6908 11.0616 11.6 10.8342 11.4361 10.6645L10.2724 9.50078L11.4361 8.33708C11.6 8.16734 11.6908 7.94 11.6887 7.70402C11.6867 7.46804 11.592 7.24231 11.4251 7.07544C11.2583 6.90858 11.0325 6.81392 10.7966 6.81187C10.5606 6.80982 10.3332 6.90054 10.1635 7.06448L8.9998 8.22818L7.8361 7.06448Z" clip-rule="evenodd" class="color878E97 svgShape"></path></svg></g></svg>