<svg width="16" height="17" viewBox="0 0 16 17" fill="none" xmlns="http://www.w3.org/2000/svg">
<path d="M6 13.1667V9.16667C6 8.81304 5.85952 8.47391 5.60948 8.22386C5.35943 7.97381 5.02029 7.83333 4.66667 7.83333H3.33333C2.97971 7.83333 2.64057 7.97381 2.39052 8.22386C2.14048 8.47391 2 8.81304 2 9.16667V13.1667C2 13.5203 2.14048 13.8594 2.39052 14.1095C2.64057 14.3595 2.97971 14.5 3.33333 14.5H4.66667C5.02029 14.5 5.35943 14.3595 5.60948 14.1095C5.85952 13.8594 6 13.5203 6 13.1667ZM6 13.1667V6.5C6 6.14638 6.14048 5.80724 6.39052 5.55719C6.64057 5.30714 6.97971 5.16667 7.33333 5.16667H8.66667C9.02029 5.16667 9.35943 5.30714 9.60948 5.55719C9.85952 5.80724 10 6.14638 10 6.5V13.1667M6 13.1667C6 13.5203 6.14048 13.8594 6.39052 14.1095C6.64057 14.3595 6.97971 14.5 7.33333 14.5H8.66667C9.02029 14.5 9.35943 14.3595 9.60948 14.1095C9.85952 13.8594 10 13.5203 10 13.1667M10 13.1667V3.83333C10 3.47971 10.1405 3.14057 10.3905 2.89052C10.6406 2.64048 10.9797 2.5 11.3333 2.5H12.6667C13.0203 2.5 13.3594 2.64048 13.6095 2.89052C13.8595 3.14057 14 3.47971 14 3.83333V13.1667C14 13.5203 13.8595 13.8594 13.6095 14.1095C13.3594 14.3595 13.0203 14.5 12.6667 14.5H11.3333C10.9797 14.5 10.6406 14.3595 10.3905 14.1095C10.1405 13.8594 10 13.5203 10 13.1667Z" stroke="#A9E2EF" stroke-width="1.5" stroke-linecap="round" stroke-linejoin="round"/>
</svg>
