<svg width="14" height="14" viewBox="0 0 14 14" fill="none" xmlns="http://www.w3.org/2000/svg">
<path d="M1.66602 9.6665L4.72335 6.60917C4.97339 6.35921 5.31246 6.21879 5.66602 6.21879C6.01957 6.21879 6.35864 6.35921 6.60868 6.60917L9.66602 9.6665M8.33268 8.33317L9.39002 7.27584C9.64005 7.02588 9.97913 6.88546 10.3327 6.88546C10.6862 6.88546 11.0253 7.02588 11.2753 7.27584L12.3327 8.33317M8.33268 4.33317H8.33935M2.99935 12.3332H10.9993C11.353 12.3332 11.6921 12.1927 11.9422 11.9426C12.1922 11.6926 12.3327 11.3535 12.3327 10.9998V2.99984C12.3327 2.64622 12.1922 2.30708 11.9422 2.05703C11.6921 1.80698 11.353 1.6665 10.9993 1.6665H2.99935C2.64573 1.6665 2.30659 1.80698 2.05654 2.05703C1.80649 2.30708 1.66602 2.64622 1.66602 2.99984V10.9998C1.66602 11.3535 1.80649 11.6926 2.05654 11.9426C2.30659 12.1927 2.64573 12.3332 2.99935 12.3332Z" stroke="#124C59" stroke-width="1.5" stroke-linecap="round" stroke-linejoin="round"/>
</svg>
