<svg width="16" height="16" viewBox="0 0 16 16" fill="none" xmlns="http://www.w3.org/2000/svg">
<path d="M13.3334 8.6665V3.99984C13.3334 3.64622 13.1929 3.30708 12.9428 3.05703C12.6928 2.80698 12.3536 2.6665 12 2.6665H4.00002C3.6464 2.6665 3.30726 2.80698 3.05721 3.05703C2.80716 3.30708 2.66669 3.64622 2.66669 3.99984V8.6665M13.3334 8.6665V11.9998C13.3334 12.3535 13.1929 12.6926 12.9428 12.9426C12.6928 13.1927 12.3536 13.3332 12 13.3332H4.00002C3.6464 13.3332 3.30726 13.1927 3.05721 12.9426C2.80716 12.6926 2.66669 12.3535 2.66669 11.9998V8.6665M13.3334 8.6665H11.6094C11.4326 8.66654 11.263 8.7368 11.138 8.86184L9.52869 10.4712C9.40369 10.5962 9.23415 10.6665 9.05735 10.6665H6.94269C6.76589 10.6665 6.59635 10.5962 6.47135 10.4712L4.86202 8.86184C4.73703 8.7368 4.56748 8.66654 4.39069 8.6665H2.66669" stroke="#A9E2EF" stroke-width="1.5" stroke-linecap="round" stroke-linejoin="round"/>
</svg>
