<svg id="SvgjsSvg1011" width="288" height="288" xmlns="http://www.w3.org/2000/svg" version="1.1" xmlns:xlink="http://www.w3.org/1999/xlink" xmlns:svgjs="http://svgjs.com/svgjs"><defs id="SvgjsDefs1012"></defs><g id="SvgjsG1013"><svg xmlns="http://www.w3.org/2000/svg" fill="none" viewBox="0 0 16 16" width="288" height="288"><path stroke="#ffffff" stroke-linecap="round" stroke-linejoin="round" stroke-width="1.5" d="M13.3334 8.66675V4.00008C13.3334 3.64646 13.1929 3.30732 12.9428 3.05727C12.6928 2.80722 12.3536 2.66675 12 2.66675H4.00002C3.6464 2.66675 3.30726 2.80722 3.05721 3.05727C2.80716 3.30732 2.66669 3.64646 2.66669 4.00008V8.66675M13.3334 8.66675V12.0001C13.3334 12.3537 13.1929 12.6928 12.9428 12.9429C12.6928 13.1929 12.3536 13.3334 12 13.3334H4.00002C3.6464 13.3334 3.30726 13.1929 3.05721 12.9429C2.80716 12.6928 2.66669 12.3537 2.66669 12.0001V8.66675M13.3334 8.66675H11.6094C11.4326 8.66679 11.263 8.73705 11.138 8.86208L9.52869 10.4714C9.40369 10.5964 9.23415 10.6667 9.05735 10.6667H6.94269C6.76589 10.6667 6.59635 10.5964 6.47135 10.4714L4.86202 8.86208C4.73703 8.73705 4.56748 8.66679 4.39069 8.66675H2.66669" class="colorStrokeA9E2EF svgStroke"></path></svg></g></svg>