<svg width="16" height="20" viewBox="0 0 16 20" fill="none" xmlns="http://www.w3.org/2000/svg">
<path d="M5.64297 7.25564C4.34123 5.95389 4.34123 3.84334 5.64297 2.54159L7.29289 0.891681C7.68342 0.501155 8.31658 0.501157 8.70711 0.891684L10.357 2.54159C11.6587 3.84334 11.6587 5.95389 10.357 7.25564C9.91992 7.69275 9.39158 7.98308 8.83333 8.12666V9.47941H13C13.4602 9.47941 13.8333 9.85249 13.8333 10.3127V18.1461H14.6667C15.1269 18.1461 15.5 18.5192 15.5 18.9794C15.5 19.4396 15.1269 19.8127 14.6667 19.8127H1.33333C0.873096 19.8127 0.5 19.4396 0.5 18.9794C0.5 18.5192 0.873096 18.1461 1.33333 18.1461H2.16667V10.3127C2.16667 9.85249 2.53977 9.47941 3 9.47941H7.16667V8.12666C6.60842 7.98308 6.08009 7.69275 5.64297 7.25564ZM6.8215 3.7201C6.17062 4.37098 6.17062 5.42625 6.8215 6.07713C7.47233 6.728 8.52767 6.728 9.1785 6.07713C9.82942 5.42625 9.82942 4.37098 9.1785 3.7201L8 2.54159L6.8215 3.7201ZM3.83333 11.1461V18.1461H12.1667V11.1461H3.83333Z" fill="black"/>
</svg>
