<svg width="16" height="17" viewBox="0 0 16 17" fill="none" xmlns="http://www.w3.org/2000/svg">
<path d="M10.6663 5.16667C10.6663 5.87391 10.3854 6.55219 9.88529 7.05229C9.3852 7.55238 8.70692 7.83333 7.99967 7.83333C7.29243 7.83333 6.61415 7.55238 6.11406 7.05229C5.61396 6.55219 5.33301 5.87391 5.33301 5.16667C5.33301 4.45942 5.61396 3.78115 6.11406 3.28105C6.61415 2.78095 7.29243 2.5 7.99967 2.5C8.70692 2.5 9.3852 2.78095 9.88529 3.28105C10.3854 3.78115 10.6663 4.45942 10.6663 5.16667ZM7.99967 9.83333C6.762 9.83333 5.57501 10.325 4.69984 11.2002C3.82467 12.0753 3.33301 13.2623 3.33301 14.5H12.6663C12.6663 13.2623 12.1747 12.0753 11.2995 11.2002C10.4243 10.325 9.23735 9.83333 7.99967 9.83333Z" stroke="#A9E2EF" stroke-width="1.5" stroke-linecap="round" stroke-linejoin="round"/>
</svg>
