<svg width="24" height="24" viewBox="0 0 24 24" fill="none" xmlns="http://www.w3.org/2000/svg">
<path d="M12.1406 16.7969C11.9115 16.7969 11.7161 16.7161 11.5547 16.5547C11.3984 16.3932 11.3203 16.1979 11.3203 15.9688V12.3438L8.42969 9.4375C8.14323 9.15104 7.95833 8.8099 7.875 8.41406C7.79167 8.01302 7.82812 7.6224 7.98438 7.24219C8.14583 6.86719 8.39323 6.5651 8.72656 6.33594C9.0651 6.10677 9.4401 5.99219 9.85156 5.99219H13.7266C14.1797 5.99219 14.5625 6.15104 14.875 6.46875C15.1927 6.78125 15.3516 7.16406 15.3516 7.61719V10.375H17.7109C17.9349 10.375 18.125 10.4557 18.2812 10.6172C18.4427 10.7786 18.5234 10.974 18.5234 11.2031C18.5234 11.4271 18.4427 11.6198 18.2812 11.7812C18.125 11.9375 17.9349 12.0156 17.7109 12.0156H14.5234C14.2995 12.0156 14.1068 11.9375 13.9453 11.7812C13.7839 11.6198 13.7031 11.4271 13.7031 11.2031V9.23438C13.7031 9.13021 13.6771 9.03906 13.625 8.96094C13.5729 8.8776 13.4766 8.83594 13.3359 8.83594H10.8203C10.7318 8.83594 10.6719 8.8724 10.6406 8.94531C10.6094 9.01302 10.6224 9.08073 10.6797 9.14844L12.7344 11.4375C12.8854 11.6094 12.9609 11.7969 12.9609 12V15.9688C12.9609 16.1979 12.8802 16.3932 12.7188 16.5547C12.5573 16.7161 12.3646 16.7969 12.1406 16.7969ZM6.32812 19.9922C5.72917 19.9922 5.16667 19.8802 4.64062 19.6562C4.11979 19.4323 3.65885 19.1198 3.25781 18.7188C2.86198 18.3229 2.55208 17.862 2.32812 17.3359C2.10417 16.8099 1.99219 16.2474 1.99219 15.6484C1.99219 15.0443 2.10417 14.4818 2.32812 13.9609C2.55208 13.4349 2.86198 12.9714 3.25781 12.5703C3.65885 12.1693 4.11979 11.8568 4.64062 11.6328C5.16667 11.4089 5.72917 11.2969 6.32812 11.2969C6.9375 11.2969 7.5026 11.4089 8.02344 11.6328C8.54948 11.8568 9.01042 12.1693 9.40625 12.5703C9.80729 12.9714 10.1198 13.4349 10.3438 13.9609C10.5677 14.4818 10.6797 15.0443 10.6797 15.6484C10.6797 16.2474 10.5677 16.8099 10.3438 17.3359C10.1198 17.862 9.80729 18.3229 9.40625 18.7188C9.01042 19.1198 8.54948 19.4323 8.02344 19.6562C7.5026 19.8802 6.9375 19.9922 6.32812 19.9922ZM6.32812 18.7812C6.90625 18.7812 7.43229 18.638 7.90625 18.3516C8.38021 18.0703 8.75781 17.6927 9.03906 17.2188C9.32031 16.7448 9.46094 16.2214 9.46094 15.6484C9.46094 15.0703 9.32031 14.5443 9.03906 14.0703C8.75781 13.5964 8.38021 13.2188 7.90625 12.9375C7.43229 12.6562 6.90625 12.5156 6.32812 12.5156C5.75521 12.5156 5.23177 12.6562 4.75781 12.9375C4.28385 13.2188 3.90625 13.5964 3.625 14.0703C3.34375 14.5443 3.20312 15.0703 3.20312 15.6484C3.20312 16.2214 3.34375 16.7448 3.625 17.2188C3.90625 17.6927 4.28385 18.0703 4.75781 18.3516C5.23177 18.638 5.75521 18.7812 6.32812 18.7812ZM20.0312 13.3203C19.849 13.1589 19.7552 12.9948 19.75 12.8281C19.75 12.6615 19.8021 12.5208 19.9062 12.4062C20.0156 12.2917 20.151 12.224 20.3125 12.2031C20.4792 12.1823 20.6406 12.2396 20.7969 12.375C21.2552 12.7812 21.6172 13.2656 21.8828 13.8281C22.1484 14.3854 22.2812 14.9922 22.2812 15.6484C22.2812 16.2474 22.1693 16.8099 21.9453 17.3359C21.7214 17.862 21.4115 18.3229 21.0156 18.7188C20.6198 19.1198 20.1589 19.4323 19.6328 19.6562C19.1068 19.8802 18.5443 19.9922 17.9453 19.9922C17.3464 19.9922 16.7812 19.8802 16.25 19.6562C15.724 19.4323 15.263 19.1198 14.8672 18.7188C14.4714 18.3229 14.1615 17.862 13.9375 17.3359C13.7135 16.8099 13.6016 16.2474 13.6016 15.6484C13.6016 15.3307 13.6328 15.026 13.6953 14.7344C13.763 14.4375 13.8594 14.151 13.9844 13.875C14.0625 13.6875 14.1745 13.5677 14.3203 13.5156C14.4714 13.4635 14.6172 13.4635 14.7578 13.5156C14.9036 13.5677 15.013 13.6719 15.0859 13.8281C15.1641 13.9844 15.1562 14.1771 15.0625 14.4062C14.8958 14.7969 14.8125 15.2109 14.8125 15.6484C14.8125 16.2214 14.9531 16.7448 15.2344 17.2188C15.5156 17.6927 15.8932 18.0703 16.3672 18.3516C16.8411 18.638 17.3672 18.7812 17.9453 18.7812C18.5234 18.7812 19.0469 18.638 19.5156 18.3516C19.9896 18.0703 20.3672 17.6927 20.6484 17.2188C20.9297 16.7448 21.0703 16.2214 21.0703 15.6484C21.0703 15.1849 20.9766 14.7526 20.7891 14.3516C20.6016 13.9505 20.349 13.6068 20.0312 13.3203ZM17.8672 8.17188C17.5391 8.17188 17.2422 8.09375 16.9766 7.9375C16.7109 7.77604 16.4974 7.5625 16.3359 7.29688C16.1797 7.03125 16.1016 6.73698 16.1016 6.41406C16.1016 6.09115 16.1797 5.79688 16.3359 5.53125C16.4974 5.26562 16.7109 5.05469 16.9766 4.89844C17.2422 4.73698 17.5391 4.65625 17.8672 4.65625C18.1901 4.65625 18.4818 4.73698 18.7422 4.89844C19.0078 5.05469 19.2188 5.26562 19.375 5.53125C19.5312 5.79688 19.6094 6.09115 19.6094 6.41406C19.6094 6.73698 19.5312 7.03125 19.375 7.29688C19.2188 7.5625 19.0078 7.77604 18.7422 7.9375C18.4818 8.09375 18.1901 8.17188 17.8672 8.17188Z" fill="black"/>
</svg>
