<svg width="16" height="17" viewBox="0 0 16 17" fill="none" xmlns="http://www.w3.org/2000/svg">
<path d="M8.56557 2.33433C8.41555 2.18435 8.2121 2.1001 7.99997 2.1001C7.78784 2.1001 7.58439 2.18435 7.43437 2.33433L1.83437 7.93433C1.68865 8.08521 1.60801 8.28729 1.60983 8.49705C1.61166 8.7068 1.69579 8.90745 1.84412 9.05578C1.99244 9.20411 2.19309 9.28824 2.40285 9.29007C2.61261 9.29189 2.81469 9.21125 2.96557 9.06553L3.19997 8.83113V14.0999C3.19997 14.3121 3.28426 14.5156 3.43429 14.6656C3.58432 14.8156 3.7878 14.8999 3.99997 14.8999H5.59997C5.81215 14.8999 6.01563 14.8156 6.16566 14.6656C6.31569 14.5156 6.39997 14.3121 6.39997 14.0999V12.4999C6.39997 12.2878 6.48426 12.0843 6.63429 11.9342C6.78432 11.7842 6.9878 11.6999 7.19997 11.6999H8.79997C9.01215 11.6999 9.21563 11.7842 9.36566 11.9342C9.51569 12.0843 9.59997 12.2878 9.59997 12.4999V14.0999C9.59997 14.3121 9.68426 14.5156 9.83429 14.6656C9.98432 14.8156 10.1878 14.8999 10.4 14.8999H12C12.2121 14.8999 12.4156 14.8156 12.5657 14.6656C12.7157 14.5156 12.8 14.3121 12.8 14.0999V8.83113L13.0344 9.06553C13.1853 9.21125 13.3873 9.29189 13.5971 9.29007C13.8069 9.28824 14.0075 9.20411 14.1558 9.05578C14.3042 8.90745 14.3883 8.7068 14.3901 8.49705C14.3919 8.28729 14.3113 8.08521 14.1656 7.93433L8.56557 2.33433Z" fill="white"/>
</svg>
