<svg width="12" height="12" viewBox="0 0 12 12" fill="none" xmlns="http://www.w3.org/2000/svg">
<path fill-rule="evenodd" clip-rule="evenodd" d="M5.40005 1.2002C5.28865 1.20025 5.17947 1.23133 5.08473 1.28993C4.99 1.34853 4.91344 1.43235 4.86365 1.532L4.42925 2.4002H2.40005C2.24092 2.4002 2.08831 2.46341 1.97578 2.57593C1.86326 2.68845 1.80005 2.84107 1.80005 3.0002C1.80005 3.15933 1.86326 3.31194 1.97578 3.42446C2.08831 3.53698 2.24092 3.6002 2.40005 3.6002V9.6002C2.40005 9.91846 2.52648 10.2237 2.75152 10.4487C2.97656 10.6738 3.28179 10.8002 3.60005 10.8002H8.40005C8.71831 10.8002 9.02353 10.6738 9.24858 10.4487C9.47362 10.2237 9.60005 9.91846 9.60005 9.6002V3.6002C9.75918 3.6002 9.91179 3.53698 10.0243 3.42446C10.1368 3.31194 10.2 3.15933 10.2 3.0002C10.2 2.84107 10.1368 2.68845 10.0243 2.57593C9.91179 2.46341 9.75918 2.4002 9.60005 2.4002H7.57085L7.13645 1.532C7.08665 1.43235 7.0101 1.34853 6.91536 1.28993C6.82063 1.23133 6.71145 1.20025 6.60005 1.2002H5.40005ZM4.20005 4.8002C4.20005 4.64107 4.26326 4.48845 4.37578 4.37593C4.48831 4.26341 4.64092 4.2002 4.80005 4.2002C4.95918 4.2002 5.11179 4.26341 5.22431 4.37593C5.33683 4.48845 5.40005 4.64107 5.40005 4.8002V8.4002C5.40005 8.55933 5.33683 8.71194 5.22431 8.82446C5.11179 8.93698 4.95918 9.0002 4.80005 9.0002C4.64092 9.0002 4.48831 8.93698 4.37578 8.82446C4.26326 8.71194 4.20005 8.55933 4.20005 8.4002V4.8002ZM7.20005 4.2002C7.04092 4.2002 6.88831 4.26341 6.77578 4.37593C6.66326 4.48845 6.60005 4.64107 6.60005 4.8002V8.4002C6.60005 8.55933 6.66326 8.71194 6.77578 8.82446C6.88831 8.93698 7.04092 9.0002 7.20005 9.0002C7.35918 9.0002 7.51179 8.93698 7.62431 8.82446C7.73683 8.71194 7.80005 8.55933 7.80005 8.4002V4.8002C7.80005 4.64107 7.73683 4.48845 7.62431 4.37593C7.51179 4.26341 7.35918 4.2002 7.20005 4.2002Z" fill="white"/>
</svg>
