<svg width="6" height="4" viewBox="0 0 6 4" fill="none" xmlns="http://www.w3.org/2000/svg">
<path fill-rule="evenodd" clip-rule="evenodd" d="M5.47617 0.26677C5.38475 0.175378 5.26078 0.124036 5.13151 0.124036C5.00224 0.124036 4.87827 0.175378 4.78685 0.26677L3.18151 1.87211L1.57617 0.26677C1.48423 0.177968 1.36108 0.12883 1.23326 0.129941C1.10544 0.131052 0.983172 0.182322 0.892786 0.272708C0.802399 0.363095 0.751129 0.485366 0.750018 0.613187C0.748908 0.741008 0.798045 0.864151 0.886847 0.956095L2.83685 2.90609C2.92827 2.99749 3.05224 3.04883 3.18151 3.04883C3.31078 3.04883 3.43475 2.99749 3.52617 2.90609L5.47617 0.956095C5.56756 0.864675 5.61891 0.7407 5.61891 0.611432C5.61891 0.482165 5.56756 0.35819 5.47617 0.26677Z" fill="#878E97"/>
</svg>
