<svg width="11" height="10" viewBox="0 0 11 10" fill="none" xmlns="http://www.w3.org/2000/svg">
<path fill-rule="evenodd" clip-rule="evenodd" d="M0.599609 1.4998C0.599609 1.31415 0.673359 1.13611 0.804635 1.00483C0.93591 0.873555 1.11396 0.799805 1.29961 0.799805H9.69961C9.88526 0.799805 10.0633 0.873555 10.1946 1.00483C10.3259 1.13611 10.3996 1.31415 10.3996 1.4998C10.3996 1.68546 10.3259 1.8635 10.1946 1.99478C10.0633 2.12605 9.88526 2.1998 9.69961 2.1998H1.29961C1.11396 2.1998 0.93591 2.12605 0.804635 1.99478C0.673359 1.8635 0.599609 1.68546 0.599609 1.4998ZM1.99961 4.9998C1.99961 4.81415 2.07336 4.63611 2.20463 4.50483C2.33591 4.37355 2.51396 4.2998 2.69961 4.2998H8.29961C8.48526 4.2998 8.66331 4.37355 8.79458 4.50483C8.92586 4.63611 8.99961 4.81415 8.99961 4.9998C8.99961 5.18546 8.92586 5.3635 8.79458 5.49478C8.66331 5.62605 8.48526 5.6998 8.29961 5.6998H2.69961C2.51396 5.6998 2.33591 5.62605 2.20463 5.49478C2.07336 5.3635 1.99961 5.18546 1.99961 4.9998ZM2.69961 8.4998C2.69961 8.31415 2.77336 8.13611 2.90463 8.00483C3.03591 7.87355 3.21396 7.7998 3.39961 7.7998H7.59961C7.78526 7.7998 7.96331 7.87355 8.09458 8.00483C8.22586 8.13611 8.29961 8.31415 8.29961 8.4998C8.29961 8.68546 8.22586 8.8635 8.09458 8.99478C7.96331 9.12605 7.78526 9.1998 7.59961 9.1998H3.39961C3.21396 9.1998 3.03591 9.12605 2.90463 8.99478C2.77336 8.8635 2.69961 8.68546 2.69961 8.4998Z" fill="#000B19"/>
</svg>
