<svg width="16" height="17" viewBox="0 0 16 17" fill="none" xmlns="http://www.w3.org/2000/svg">
<path d="M14 9.33683C12.0937 10.1076 10.0563 10.5027 8 10.5002C5.878 10.5002 3.85333 10.0868 2 9.33683M10.6667 4.50016V3.16683C10.6667 2.81321 10.5262 2.47407 10.2761 2.22402C10.0261 1.97397 9.68696 1.8335 9.33333 1.8335H6.66667C6.31304 1.8335 5.97391 1.97397 5.72386 2.22402C5.47381 2.47407 5.33333 2.81321 5.33333 3.16683V4.50016M8 8.50016H8.00667M3.33333 13.8335H12.6667C13.0203 13.8335 13.3594 13.693 13.6095 13.443C13.8595 13.1929 14 12.8538 14 12.5002V5.8335C14 5.47987 13.8595 5.14074 13.6095 4.89069C13.3594 4.64064 13.0203 4.50016 12.6667 4.50016H3.33333C2.97971 4.50016 2.64057 4.64064 2.39052 4.89069C2.14048 5.14074 2 5.47987 2 5.8335V12.5002C2 12.8538 2.14048 13.1929 2.39052 13.443C2.64057 13.693 2.97971 13.8335 3.33333 13.8335Z" stroke="#A9E2EF" stroke-width="1.5" stroke-linecap="round" stroke-linejoin="round"/>
</svg>
