<svg width="24" height="24" viewBox="0 0 24 24" fill="none" xmlns="http://www.w3.org/2000/svg">
<path d="M13.1814 6.41406C12.8637 6.41406 12.5746 6.33854 12.3142 6.1875C12.059 6.03125 11.8532 5.82552 11.697 5.57031C11.5459 5.3099 11.4704 5.02344 11.4704 4.71094C11.4704 4.39323 11.5459 4.10677 11.697 3.85156C11.8532 3.59115 12.059 3.38542 12.3142 3.23438C12.5746 3.07812 12.8637 3 13.1814 3C13.4939 3 13.7777 3.07812 14.0329 3.23438C14.2933 3.38542 14.4991 3.59115 14.6501 3.85156C14.8064 4.10677 14.8845 4.39323 14.8845 4.71094C14.8845 5.02344 14.8064 5.3099 14.6501 5.57031C14.4991 5.82552 14.2933 6.03125 14.0329 6.1875C13.7777 6.33854 13.4939 6.41406 13.1814 6.41406ZM10.5017 13.2266C10.335 13.1328 10.1631 13.0339 9.98605 12.9297C9.81417 12.8203 9.66313 12.6927 9.53292 12.5469C9.40272 12.3958 9.31417 12.2109 9.2673 11.9922C9.22563 11.7682 9.25167 11.4896 9.34542 11.1562L9.98605 8.92188C10.0277 8.77083 10.0017 8.65625 9.90792 8.57812C9.81938 8.49479 9.71261 8.45833 9.58761 8.46875L8.48605 8.54688L8.15011 10.8203C8.11886 11.0651 8.03553 11.2474 7.90011 11.3672C7.76469 11.487 7.58761 11.5365 7.36886 11.5156C7.15011 11.4948 6.98605 11.4062 6.87667 11.25C6.7673 11.0938 6.72824 10.8932 6.75949 10.6484L7.12667 7.85938C7.15792 7.63542 7.24386 7.45573 7.38449 7.32031C7.53032 7.1849 7.71261 7.10938 7.93136 7.09375L10.6735 6.89844C11.3923 6.84635 11.986 6.92188 12.4548 7.125C12.9288 7.32812 13.3428 7.67188 13.697 8.15625L15.0485 10.0234L17.0095 9.15625C17.2282 9.05729 17.4262 9.03646 17.6032 9.09375C17.7803 9.14583 17.9183 9.27344 18.0173 9.47656C18.1163 9.67448 18.1267 9.86198 18.0485 10.0391C17.9704 10.2161 17.822 10.3542 17.6032 10.4531L15.1267 11.5547C14.96 11.6328 14.7907 11.6484 14.6189 11.6016C14.447 11.5495 14.3116 11.4505 14.2126 11.3047L13.3532 10.0469C13.2647 9.92188 13.1553 9.86719 13.0251 9.88281C12.9001 9.89844 12.8168 9.97917 12.7751 10.125L12.197 12.1484L15.1267 14.0703C15.2725 14.1641 15.3767 14.2917 15.4392 14.4531C15.5017 14.6146 15.5173 14.7786 15.486 14.9453C15.46 15.112 15.3845 15.2474 15.2595 15.3516L12.5642 17.6484C12.3506 17.8307 12.1371 17.9141 11.9235 17.8984C11.71 17.8828 11.5381 17.8021 11.4079 17.6562C11.2829 17.5156 11.2256 17.3438 11.236 17.1406C11.2465 16.9323 11.3558 16.7396 11.5642 16.5625L13.4939 14.9062L10.5017 13.2266ZM5.2673 19.9766C5.11105 19.8359 5.02251 19.6536 5.00167 19.4297C4.98605 19.2057 5.0798 18.9922 5.28292 18.7891L7.90792 16.1719L8.83761 12.8828C8.97824 13.0599 9.15532 13.2318 9.36886 13.3984C9.5824 13.5599 9.83761 13.7214 10.1345 13.8828L10.3923 14.0234L9.3298 16.7734C9.26209 16.9349 9.2048 17.0469 9.15792 17.1094C9.11626 17.1719 9.04334 17.2552 8.93917 17.3594L6.40792 19.8672C6.21001 20.0651 6.00688 20.1641 5.79855 20.1641C5.59022 20.1641 5.41313 20.1016 5.2673 19.9766Z" fill="#000B19"/>
</svg>
