<svg width="18" height="18" viewBox="0 0 18 18" fill="none" xmlns="http://www.w3.org/2000/svg">
<path d="M7.74935 13.167H2.33268V11.5003H7.74935C9.36018 11.5003 10.666 12.8062 10.666 14.417C10.666 16.0278 9.36018 17.3337 7.74935 17.3337C6.49899 17.3337 5.4324 16.5469 5.01765 15.4414L6.57862 14.856C6.75637 15.3298 7.21348 15.667 7.74935 15.667C8.43968 15.667 8.99935 15.1073 8.99935 14.417C8.99935 13.7267 8.43968 13.167 7.74935 13.167ZM3.16602 8.16699H14.416C16.0268 8.16699 17.3327 9.47283 17.3327 11.0837C17.3327 12.6945 16.0268 14.0003 14.416 14.0003C13.1657 14.0003 12.0991 13.2136 11.6843 12.1081L13.2453 11.5227C13.423 11.9965 13.8802 12.3337 14.416 12.3337C15.1063 12.3337 15.666 11.774 15.666 11.0837C15.666 10.3933 15.1063 9.83366 14.416 9.83366H3.16602C1.78531 9.83366 0.666016 8.71441 0.666016 7.33366C0.666016 5.95295 1.78531 4.83366 3.16602 4.83366H10.2493C10.9397 4.83366 11.4993 4.27402 11.4993 3.58366C11.4993 2.8933 10.9397 2.33366 10.2493 2.33366C9.71352 2.33366 9.25635 2.67085 9.0786 3.14463L7.51768 2.55927C7.93243 1.45378 8.99902 0.666992 10.2493 0.666992C11.8602 0.666992 13.166 1.97283 13.166 3.58366C13.166 5.19449 11.8602 6.50033 10.2493 6.50033H3.16602C2.70578 6.50033 2.33268 6.87343 2.33268 7.33366C2.33268 7.79391 2.70578 8.16699 3.16602 8.16699Z" fill="black"/>
</svg>
