<svg width="24" height="24" viewBox="0 0 24 24" fill="none" xmlns="http://www.w3.org/2000/svg">
<g clip-path="url(#clip0_1880_8853)">
<path d="M24 12C24 18.6274 18.6274 24 12 24C5.37258 24 0 18.6274 0 12C0 5.37258 5.37258 0 12 0C18.6274 0 24 5.37258 24 12ZM2.4 12C2.4 17.3019 6.69807 21.6 12 21.6C17.3019 21.6 21.6 17.3019 21.6 12C21.6 6.69807 17.3019 2.4 12 2.4C6.69807 2.4 2.4 6.69807 2.4 12Z" fill="#DBECF0"/>
<mask id="path-2-outside-1_1880_8853" maskUnits="userSpaceOnUse" x="-1" y="-1" width="26" height="26" fill="black">
<rect fill="white" x="-1" y="-1" width="26" height="26"/>
<path d="M12 1.2C12 0.537258 12.5386 -0.00622163 13.1981 0.0599353C15.6159 0.302498 17.9136 1.275 19.7783 2.86226C21.9488 4.70987 23.3908 7.26977 23.846 10.0836C24.3012 12.8974 23.7399 15.7814 22.2627 18.2192C20.7854 20.6569 18.4886 22.4892 15.7836 23.3879C13.0786 24.2866 10.142 24.1931 7.49961 23.1241C4.85724 22.0551 2.68168 20.0805 1.36249 17.5537C0.0433 15.0269 -0.333372 12.1131 0.299921 9.33389C0.843974 6.94634 2.10289 4.79215 3.89479 3.15092C4.38352 2.7033 5.1403 2.81637 5.53691 3.34734C5.93352 3.87831 5.81828 4.62533 5.3409 5.08504C4.00032 6.37599 3.05725 8.03574 2.63994 9.86711C2.1333 12.0904 2.43464 14.4215 3.48999 16.4429C4.54535 18.4644 6.28579 20.0441 8.39968 20.8993C10.5136 21.7545 12.8629 21.8293 15.0269 21.1103C17.1909 20.3913 19.0283 18.9255 20.2101 16.9753C21.3919 15.0251 21.841 12.7179 21.4768 10.4669C21.1126 8.21582 19.959 6.16789 18.2226 4.6898C16.7923 3.4723 15.0435 2.70692 13.1969 2.47489C12.5394 2.39226 12 1.86274 12 1.2Z"/>
</mask>
<path d="M12 1.2C12 0.537258 12.5386 -0.00622163 13.1981 0.0599353C15.6159 0.302498 17.9136 1.275 19.7783 2.86226C21.9488 4.70987 23.3908 7.26977 23.846 10.0836C24.3012 12.8974 23.7399 15.7814 22.2627 18.2192C20.7854 20.6569 18.4886 22.4892 15.7836 23.3879C13.0786 24.2866 10.142 24.1931 7.49961 23.1241C4.85724 22.0551 2.68168 20.0805 1.36249 17.5537C0.0433 15.0269 -0.333372 12.1131 0.299921 9.33389C0.843974 6.94634 2.10289 4.79215 3.89479 3.15092C4.38352 2.7033 5.1403 2.81637 5.53691 3.34734C5.93352 3.87831 5.81828 4.62533 5.3409 5.08504C4.00032 6.37599 3.05725 8.03574 2.63994 9.86711C2.1333 12.0904 2.43464 14.4215 3.48999 16.4429C4.54535 18.4644 6.28579 20.0441 8.39968 20.8993C10.5136 21.7545 12.8629 21.8293 15.0269 21.1103C17.1909 20.3913 19.0283 18.9255 20.2101 16.9753C21.3919 15.0251 21.841 12.7179 21.4768 10.4669C21.1126 8.21582 19.959 6.16789 18.2226 4.6898C16.7923 3.4723 15.0435 2.70692 13.1969 2.47489C12.5394 2.39226 12 1.86274 12 1.2Z" fill="#124C59"/>
<path d="M12 1.2C12 0.537258 12.5386 -0.00622163 13.1981 0.0599353C15.6159 0.302498 17.9136 1.275 19.7783 2.86226C21.9488 4.70987 23.3908 7.26977 23.846 10.0836C24.3012 12.8974 23.7399 15.7814 22.2627 18.2192C20.7854 20.6569 18.4886 22.4892 15.7836 23.3879C13.0786 24.2866 10.142 24.1931 7.49961 23.1241C4.85724 22.0551 2.68168 20.0805 1.36249 17.5537C0.0433 15.0269 -0.333372 12.1131 0.299921 9.33389C0.843974 6.94634 2.10289 4.79215 3.89479 3.15092C4.38352 2.7033 5.1403 2.81637 5.53691 3.34734C5.93352 3.87831 5.81828 4.62533 5.3409 5.08504C4.00032 6.37599 3.05725 8.03574 2.63994 9.86711C2.1333 12.0904 2.43464 14.4215 3.48999 16.4429C4.54535 18.4644 6.28579 20.0441 8.39968 20.8993C10.5136 21.7545 12.8629 21.8293 15.0269 21.1103C17.1909 20.3913 19.0283 18.9255 20.2101 16.9753C21.3919 15.0251 21.841 12.7179 21.4768 10.4669C21.1126 8.21582 19.959 6.16789 18.2226 4.6898C16.7923 3.4723 15.0435 2.70692 13.1969 2.47489C12.5394 2.39226 12 1.86274 12 1.2Z" stroke="white" stroke-width="2" mask="url(#path-2-outside-1_1880_8853)"/>
<path fill-rule="evenodd" clip-rule="evenodd" d="M16.6242 11.576C16.7367 11.6885 16.7999 11.8411 16.7999 12.0002C16.7999 12.1593 16.7367 12.3119 16.6242 12.4244L12.4242 16.6244C12.3117 16.7369 12.1591 16.8001 12 16.8001C11.8409 16.8001 11.6883 16.7369 11.5758 16.6244L7.37581 12.4244C7.32001 12.3688 7.27576 12.3026 7.24559 12.2298C7.21542 12.157 7.19993 12.079 7.20001 12.0002V9.0002C7.20001 8.52281 7.38965 8.06497 7.72722 7.7274C8.06479 7.38984 8.52262 7.2002 9.00001 7.2002H12C12.1536 7.2002 12.3072 7.259 12.4242 7.376L16.6242 11.576ZM9.00001 9.6002C9.15914 9.6002 9.31175 9.53698 9.42428 9.42446C9.5368 9.31194 9.60001 9.15933 9.60001 9.0002C9.60001 8.84107 9.5368 8.68845 9.42428 8.57593C9.31175 8.46341 9.15914 8.4002 9.00001 8.4002C8.84088 8.4002 8.68827 8.46341 8.57575 8.57593C8.46323 8.68845 8.40001 8.84107 8.40001 9.0002C8.40001 9.15933 8.46323 9.31194 8.57575 9.42446C8.68827 9.53698 8.84088 9.6002 9.00001 9.6002Z" fill="#124C59"/>
</g>
<defs>
<clipPath id="clip0_1880_8853">
<rect width="24" height="24" fill="white"/>
</clipPath>
</defs>
</svg>
