<svg width="16" height="16" viewBox="0 0 16 16" fill="none" xmlns="http://www.w3.org/2000/svg">
<path fill-rule="evenodd" clip-rule="evenodd" d="M6.16566 2.63471C6.47808 2.94712 6.47808 3.45366 6.16566 3.76608L4.33135 5.60039H8.79998C11.8928 5.60039 14.4 8.1076 14.4 11.2004V12.8004C14.4 13.2422 14.0418 13.6004 13.6 13.6004C13.1581 13.6004 12.8 13.2422 12.8 12.8004V11.2004C12.8 8.99125 11.0091 7.20039 8.79998 7.20039H4.33135L6.16566 9.03471C6.47808 9.34713 6.47808 9.85366 6.16566 10.1661C5.85324 10.4785 5.34671 10.4785 5.03429 10.1661L1.83429 6.96608C1.52187 6.65366 1.52187 6.14713 1.83429 5.83471L5.03429 2.63471C5.34671 2.32229 5.85324 2.32229 6.16566 2.63471Z" fill="#A9E2EF"/>
</svg>
