<svg width="24" height="24" viewBox="0 0 24 24" fill="none" xmlns="http://www.w3.org/2000/svg">
<g clip-path="url(#clip0_1880_8831)">
<path d="M24 12C24 18.6274 18.6274 24 12 24C5.37258 24 0 18.6274 0 12C0 5.37258 5.37258 0 12 0C18.6274 0 24 5.37258 24 12ZM2.4 12C2.4 17.3019 6.69807 21.6 12 21.6C17.3019 21.6 21.6 17.3019 21.6 12C21.6 6.69807 17.3019 2.4 12 2.4C6.69807 2.4 2.4 6.69807 2.4 12Z" fill="#DBECF0"/>
<mask id="path-2-outside-1_1880_8831" maskUnits="userSpaceOnUse" x="11" y="-1" width="14" height="23" fill="black">
<rect fill="white" x="11" y="-1" width="14" height="23"/>
<path d="M12 1.2C12 0.537258 12.5386 -0.00621887 13.198 0.0599431C15.2475 0.265573 17.2169 0.996265 18.9117 2.1904C20.9346 3.61573 22.4675 5.63162 23.3002 7.96195C24.1329 10.2923 24.2248 12.8231 23.5633 15.2077C23.0092 17.2054 21.9489 19.0188 20.4939 20.4767C20.0257 20.9458 19.2646 20.8668 18.8446 20.3541C18.4246 19.8415 18.5062 19.09 18.9625 18.6094C20.0406 17.4737 20.8289 16.0867 21.2507 14.5661C21.7799 12.6584 21.7063 10.6338 21.0401 8.76956C20.374 6.9053 19.1477 5.29258 17.5294 4.15232C16.2394 3.24342 14.7506 2.67013 13.1969 2.4749C12.5393 2.39227 12 1.86274 12 1.2Z"/>
</mask>
<path d="M12 1.2C12 0.537258 12.5386 -0.00621887 13.198 0.0599431C15.2475 0.265573 17.2169 0.996265 18.9117 2.1904C20.9346 3.61573 22.4675 5.63162 23.3002 7.96195C24.1329 10.2923 24.2248 12.8231 23.5633 15.2077C23.0092 17.2054 21.9489 19.0188 20.4939 20.4767C20.0257 20.9458 19.2646 20.8668 18.8446 20.3541C18.4246 19.8415 18.5062 19.09 18.9625 18.6094C20.0406 17.4737 20.8289 16.0867 21.2507 14.5661C21.7799 12.6584 21.7063 10.6338 21.0401 8.76956C20.374 6.9053 19.1477 5.29258 17.5294 4.15232C16.2394 3.24342 14.7506 2.67013 13.1969 2.4749C12.5393 2.39227 12 1.86274 12 1.2Z" fill="#124C59"/>
<path d="M12 1.2C12 0.537258 12.5386 -0.00621887 13.198 0.0599431C15.2475 0.265573 17.2169 0.996265 18.9117 2.1904C20.9346 3.61573 22.4675 5.63162 23.3002 7.96195C24.1329 10.2923 24.2248 12.8231 23.5633 15.2077C23.0092 17.2054 21.9489 19.0188 20.4939 20.4767C20.0257 20.9458 19.2646 20.8668 18.8446 20.3541C18.4246 19.8415 18.5062 19.09 18.9625 18.6094C20.0406 17.4737 20.8289 16.0867 21.2507 14.5661C21.7799 12.6584 21.7063 10.6338 21.0401 8.76956C20.374 6.9053 19.1477 5.29258 17.5294 4.15232C16.2394 3.24342 14.7506 2.67013 13.1969 2.4749C12.5393 2.39227 12 1.86274 12 1.2Z" stroke="white" stroke-width="2" mask="url(#path-2-outside-1_1880_8831)"/>
<path fill-rule="evenodd" clip-rule="evenodd" d="M16.6242 11.576C16.7367 11.6885 16.7999 11.8411 16.7999 12.0002C16.7999 12.1593 16.7367 12.3119 16.6242 12.4244L12.4242 16.6244C12.3117 16.7369 12.1591 16.8001 12 16.8001C11.8409 16.8001 11.6883 16.7369 11.5758 16.6244L7.37581 12.4244C7.32001 12.3688 7.27576 12.3026 7.24559 12.2298C7.21542 12.157 7.19993 12.079 7.20001 12.0002V9.0002C7.20001 8.52281 7.38965 8.06497 7.72722 7.7274C8.06479 7.38984 8.52262 7.2002 9.00001 7.2002H12C12.1536 7.2002 12.3072 7.259 12.4242 7.376L16.6242 11.576ZM9.00001 9.6002C9.15914 9.6002 9.31175 9.53698 9.42428 9.42446C9.5368 9.31194 9.60001 9.15933 9.60001 9.0002C9.60001 8.84107 9.5368 8.68845 9.42428 8.57593C9.31175 8.46341 9.15914 8.4002 9.00001 8.4002C8.84088 8.4002 8.68827 8.46341 8.57575 8.57593C8.46323 8.68845 8.40001 8.84107 8.40001 9.0002C8.40001 9.15933 8.46323 9.31194 8.57575 9.42446C8.68827 9.53698 8.84088 9.6002 9.00001 9.6002Z" fill="#124C59"/>
</g>
<defs>
<clipPath id="clip0_1880_8831">
<rect width="24" height="24" fill="white"/>
</clipPath>
</defs>
</svg>
