<svg id="SvgjsSvg1021" width="288" height="288" xmlns="http://www.w3.org/2000/svg" version="1.1" xmlns:xlink="http://www.w3.org/1999/xlink" xmlns:svgjs="http://svgjs.com/svgjs"><defs id="SvgjsDefs1022"></defs><g id="SvgjsG1023"><svg xmlns="http://www.w3.org/2000/svg" fill="none" viewBox="0 0 16 17" width="288" height="288"><path stroke="#fbfbfb" stroke-linecap="round" stroke-linejoin="round" stroke-width="1.5" d="M11.3333 5.83341H12.6667C13.0203 5.83341 13.3594 5.97389 13.6095 6.22394C13.8595 6.47399 14 6.81313 14 7.16675V11.1667C14 11.5204 13.8595 11.8595 13.6095 12.1096C13.3594 12.3596 13.0203 12.5001 12.6667 12.5001H11.3333V15.1667L8.66667 12.5001H6C5.82489 12.5003 5.65146 12.4658 5.48969 12.3988C5.32792 12.3318 5.18098 12.2334 5.05733 12.1094M5.05733 12.1094L7.33333 9.83341H10C10.3536 9.83341 10.6928 9.69294 10.9428 9.44289C11.1929 9.19284 11.3333 8.8537 11.3333 8.50008V4.50008C11.3333 4.14646 11.1929 3.80732 10.9428 3.55727C10.6928 3.30722 10.3536 3.16675 10 3.16675H3.33333C2.97971 3.16675 2.64057 3.30722 2.39052 3.55727C2.14048 3.80732 2 4.14646 2 4.50008V8.50008C2 8.8537 2.14048 9.19284 2.39052 9.44289C2.64057 9.69294 2.97971 9.83341 3.33333 9.83341H4.66667V12.5001L5.05733 12.1094Z" class="colorStrokeA9E2EF svgStroke"></path></svg></g></svg>