<svg width="16" height="17" viewBox="0 0 16 17" fill="none" xmlns="http://www.w3.org/2000/svg">
<path d="M11.3333 5.83317H12.6667C13.0203 5.83317 13.3594 5.97365 13.6095 6.2237C13.8595 6.47374 14 6.81288 14 7.1665V11.1665C14 11.5201 13.8595 11.8593 13.6095 12.1093C13.3594 12.3594 13.0203 12.4998 12.6667 12.4998H11.3333V15.1665L8.66667 12.4998H6C5.82489 12.5 5.65146 12.4656 5.48969 12.3986C5.32792 12.3315 5.18098 12.2332 5.05733 12.1092M5.05733 12.1092L7.33333 9.83317H10C10.3536 9.83317 10.6928 9.69269 10.9428 9.44265C11.1929 9.1926 11.3333 8.85346 11.3333 8.49984V4.49984C11.3333 4.14622 11.1929 3.80708 10.9428 3.55703C10.6928 3.30698 10.3536 3.1665 10 3.1665H3.33333C2.97971 3.1665 2.64057 3.30698 2.39052 3.55703C2.14048 3.80708 2 4.14622 2 4.49984V8.49984C2 8.85346 2.14048 9.1926 2.39052 9.44265C2.64057 9.69269 2.97971 9.83317 3.33333 9.83317H4.66667V12.4998L5.05733 12.1092Z" stroke="#A9E2EF" stroke-width="1.5" stroke-linecap="round" stroke-linejoin="round"/>
</svg>
