<svg width="17" height="15" viewBox="0 0 17 15" fill="none" xmlns="http://www.w3.org/2000/svg">
<path d="M0.273438 6.76562C0.0911458 6.58333 0 6.36719 0 6.11719C0 5.86719 0.0911458 5.65365 0.273438 5.47656C0.445312 5.29948 0.658854 5.21094 0.914062 5.21094C1.16927 5.21094 1.38542 5.29948 1.5625 5.47656L3.49219 7.40625L5.46094 4.99219C5.6276 4.78906 5.83073 4.6276 6.07031 4.50781C6.3151 4.38802 6.57552 4.32812 6.85156 4.32812H9.98438C10.2552 4.32812 10.5104 4.38802 10.75 4.50781C10.9896 4.6276 11.1953 4.78906 11.3672 4.99219L13.3359 7.40625L15.2656 5.47656C15.4427 5.29948 15.6589 5.21094 15.9141 5.21094C16.1693 5.21094 16.3828 5.29948 16.5547 5.47656C16.737 5.65365 16.8281 5.86719 16.8281 6.11719C16.8281 6.36719 16.737 6.58333 16.5547 6.76562L13.9062 9.42188C13.724 9.60938 13.4974 9.70312 13.2266 9.70312C12.9609 9.69792 12.7344 9.58073 12.5469 9.35156L10.9219 7.34375C10.8698 7.28125 10.8125 7.26302 10.75 7.28906C10.6875 7.3151 10.6562 7.36458 10.6562 7.4375V10.8359L13.6094 10.5078C13.875 10.4766 14.0911 10.5339 14.2578 10.6797C14.4297 10.8255 14.5391 11.0078 14.5859 11.2266C14.6328 11.4453 14.6094 11.6562 14.5156 11.8594C14.4271 12.0573 14.2552 12.2005 14 12.2891L10.6328 13.4062C10.6849 13.6406 10.6562 13.8542 10.5469 14.0469C10.4427 14.2396 10.2917 14.3802 10.0938 14.4688C9.89583 14.5573 9.67969 14.5625 9.44531 14.4844L8.41406 14.1484L7.38281 14.4844C7.14323 14.5625 6.92448 14.5573 6.72656 14.4688C6.52865 14.3802 6.3776 14.2396 6.27344 14.0469C6.16927 13.8542 6.14323 13.6406 6.19531 13.4062L2.83594 12.2891C2.57552 12.2005 2.39844 12.0573 2.30469 11.8594C2.21615 11.6562 2.19531 11.4453 2.24219 11.2266C2.29427 11.0078 2.40365 10.8255 2.57031 10.6797C2.73698 10.5339 2.95312 10.4766 3.21875 10.5078L6.17188 10.8359V7.4375C6.17188 7.36458 6.14062 7.3151 6.07812 7.28906C6.01562 7.26302 5.95833 7.28125 5.90625 7.34375L4.28125 9.35156C4.09375 9.58073 3.86719 9.69531 3.60156 9.69531C3.33594 9.69531 3.10677 9.60417 2.91406 9.42188L0.273438 6.76562ZM8.41406 3.50781C8.08594 3.50781 7.78906 3.42969 7.52344 3.27344C7.25781 3.11198 7.04427 2.89844 6.88281 2.63281C6.72656 2.36719 6.64844 2.07031 6.64844 1.74219C6.64844 1.41927 6.72656 1.1276 6.88281 0.867188C7.04427 0.601562 7.25781 0.390625 7.52344 0.234375C7.78906 0.078125 8.08594 0 8.41406 0C8.73698 0 9.03125 0.078125 9.29688 0.234375C9.5625 0.390625 9.77083 0.601562 9.92188 0.867188C10.0781 1.1276 10.1562 1.41927 10.1562 1.74219C10.1562 2.07031 10.0781 2.36719 9.92188 2.63281C9.77083 2.89844 9.5625 3.11198 9.29688 3.27344C9.03125 3.42969 8.73698 3.50781 8.41406 3.50781Z" fill="black"/>
</svg>
