<svg width="12" height="12" viewBox="0 0 12 12" fill="none" xmlns="http://www.w3.org/2000/svg">
<path fill-rule="evenodd" clip-rule="evenodd" d="M6.00039 0.399902C6.21256 0.399902 6.41605 0.484188 6.56608 0.634217C6.7161 0.784246 6.80039 0.987729 6.80039 1.1999V5.1999H10.8004C11.0126 5.1999 11.216 5.28419 11.3661 5.43422C11.5161 5.58425 11.6004 5.78773 11.6004 5.9999C11.6004 6.21208 11.5161 6.41556 11.3661 6.56559C11.216 6.71562 11.0126 6.7999 10.8004 6.7999H6.80039V10.7999C6.80039 11.0121 6.7161 11.2156 6.56608 11.3656C6.41605 11.5156 6.21256 11.5999 6.00039 11.5999C5.78822 11.5999 5.58473 11.5156 5.43471 11.3656C5.28468 11.2156 5.20039 11.0121 5.20039 10.7999V6.7999H1.20039C0.988217 6.7999 0.784734 6.71562 0.634705 6.56559C0.484676 6.41556 0.400391 6.21208 0.400391 5.9999C0.400391 5.78773 0.484676 5.58425 0.634705 5.43422C0.784734 5.28419 0.988217 5.1999 1.20039 5.1999H5.20039V1.1999C5.20039 0.987729 5.28468 0.784246 5.43471 0.634217C5.58473 0.484188 5.78822 0.399902 6.00039 0.399902Z" fill="white"/>
</svg>
