<svg width="12" height="12" viewBox="0 0 12 12" fill="none" xmlns="http://www.w3.org/2000/svg">
<path fill-rule="evenodd" clip-rule="evenodd" d="M6.00039 0.398438C6.21256 0.398438 6.41605 0.482723 6.56608 0.632752C6.7161 0.782781 6.80039 0.986264 6.80039 1.19844V5.19844H10.8004C11.0126 5.19844 11.216 5.28272 11.3661 5.43275C11.5161 5.58278 11.6004 5.78626 11.6004 5.99844C11.6004 6.21061 11.5161 6.41409 11.3661 6.56412C11.216 6.71415 11.0126 6.79844 10.8004 6.79844H6.80039V10.7984C6.80039 11.0106 6.7161 11.2141 6.56608 11.3641C6.41605 11.5142 6.21256 11.5984 6.00039 11.5984C5.78822 11.5984 5.58473 11.5142 5.43471 11.3641C5.28468 11.2141 5.20039 11.0106 5.20039 10.7984V6.79844H1.20039C0.988217 6.79844 0.784734 6.71415 0.634705 6.56412C0.484676 6.41409 0.400391 6.21061 0.400391 5.99844C0.400391 5.78626 0.484676 5.58278 0.634705 5.43275C0.784734 5.28272 0.988217 5.19844 1.20039 5.19844H5.20039V1.19844C5.20039 0.986264 5.28468 0.782781 5.43471 0.632752C5.58473 0.482723 5.78822 0.398438 6.00039 0.398438Z" fill="#124C59"/>
</svg>
