<svg width="24" height="24" viewBox="0 0 24 24" fill="none" xmlns="http://www.w3.org/2000/svg">
<g clip-path="url(#clip0_1880_9093)">
<path d="M24 12C24 18.6274 18.6274 24 12 24C5.37258 24 0 18.6274 0 12C0 5.37258 5.37258 0 12 0C18.6274 0 24 5.37258 24 12ZM2.4 12C2.4 17.3019 6.69807 21.6 12 21.6C17.3019 21.6 21.6 17.3019 21.6 12C21.6 6.69807 17.3019 2.4 12 2.4C6.69807 2.4 2.4 6.69807 2.4 12Z" fill="#DBECF0"/>
<mask id="path-2-outside-1_1880_9093" maskUnits="userSpaceOnUse" x="11" y="-1" width="14" height="13" fill="black">
<rect fill="white" x="11" y="-1" width="14" height="13"/>
<path d="M12 1.2C12 0.537258 12.5386 -0.00622115 13.1981 0.0599369C15.5608 0.296975 17.81 1.23117 19.6529 2.75697C21.4957 4.28276 22.8332 6.31824 23.5069 8.59521C23.6949 9.23072 23.2615 9.8613 22.6104 9.98495C21.9592 10.1086 21.3384 9.67752 21.1345 9.04691C20.5756 7.31806 19.5344 5.77476 18.1223 4.60557C16.7102 3.43638 14.9997 2.70141 13.1969 2.47489C12.5394 2.39226 12 1.86274 12 1.2Z"/>
</mask>
<path d="M12 1.2C12 0.537258 12.5386 -0.00622115 13.1981 0.0599369C15.5608 0.296975 17.81 1.23117 19.6529 2.75697C21.4957 4.28276 22.8332 6.31824 23.5069 8.59521C23.6949 9.23072 23.2615 9.8613 22.6104 9.98495C21.9592 10.1086 21.3384 9.67752 21.1345 9.04691C20.5756 7.31806 19.5344 5.77476 18.1223 4.60557C16.7102 3.43638 14.9997 2.70141 13.1969 2.47489C12.5394 2.39226 12 1.86274 12 1.2Z" fill="#124C59"/>
<path d="M12 1.2C12 0.537258 12.5386 -0.00622115 13.1981 0.0599369C15.5608 0.296975 17.81 1.23117 19.6529 2.75697C21.4957 4.28276 22.8332 6.31824 23.5069 8.59521C23.6949 9.23072 23.2615 9.8613 22.6104 9.98495C21.9592 10.1086 21.3384 9.67752 21.1345 9.04691C20.5756 7.31806 19.5344 5.77476 18.1223 4.60557C16.7102 3.43638 14.9997 2.70141 13.1969 2.47489C12.5394 2.39226 12 1.86274 12 1.2Z" stroke="white" stroke-width="2" mask="url(#path-2-outside-1_1880_9093)"/>
<path fill-rule="evenodd" clip-rule="evenodd" d="M16.6242 11.576C16.7366 11.6885 16.7998 11.8411 16.7998 12.0002C16.7998 12.1593 16.7366 12.3119 16.6242 12.4244L12.4242 16.6244C12.3116 16.7369 12.1591 16.8001 12 16.8001C11.8409 16.8001 11.6883 16.7369 11.5758 16.6244L7.37575 12.4244C7.31995 12.3688 7.2757 12.3026 7.24553 12.2298C7.21536 12.157 7.19987 12.079 7.19995 12.0002V9.0002C7.19995 8.52281 7.38959 8.06497 7.72716 7.7274C8.06472 7.38984 8.52256 7.2002 8.99995 7.2002H12C12.1536 7.2002 12.3072 7.259 12.4242 7.376L16.6242 11.576ZM8.99995 9.6002C9.15908 9.6002 9.31169 9.53698 9.42422 9.42446C9.53674 9.31194 9.59995 9.15933 9.59995 9.0002C9.59995 8.84107 9.53674 8.68845 9.42422 8.57593C9.31169 8.46341 9.15908 8.4002 8.99995 8.4002C8.84082 8.4002 8.68821 8.46341 8.57569 8.57593C8.46317 8.68845 8.39995 8.84107 8.39995 9.0002C8.39995 9.15933 8.46317 9.31194 8.57569 9.42446C8.68821 9.53698 8.84082 9.6002 8.99995 9.6002Z" fill="#124C59"/>
</g>
<defs>
<clipPath id="clip0_1880_9093">
<rect width="24" height="24" fill="white"/>
</clipPath>
</defs>
</svg>
