<svg width="13" height="12" viewBox="0 0 13 12" fill="none" xmlns="http://www.w3.org/2000/svg">
<path d="M12 11.25L8.5 7.75M9.66667 4.83333C9.66667 5.36956 9.56105 5.90054 9.35584 6.39596C9.15063 6.89137 8.84986 7.34151 8.47069 7.72069C8.09151 8.09986 7.64137 8.40063 7.14596 8.60584C6.65054 8.81105 6.11956 8.91667 5.58333 8.91667C5.0471 8.91667 4.51612 8.81105 4.02071 8.60584C3.5253 8.40063 3.07515 8.09986 2.69598 7.72069C2.31681 7.34151 2.01603 6.89137 1.81083 6.39596C1.60562 5.90054 1.5 5.36956 1.5 4.83333C1.5 3.75037 1.93021 2.71175 2.69598 1.94598C3.46175 1.18021 4.50037 0.75 5.58333 0.75C6.6663 0.75 7.70491 1.18021 8.47069 1.94598C9.23646 2.71175 9.66667 3.75037 9.66667 4.83333Z" stroke="#000B19" stroke-width="1.5" stroke-linecap="round" stroke-linejoin="round"/>
</svg>
