<svg width="21" height="16" viewBox="0 0 21 16" fill="none" xmlns="http://www.w3.org/2000/svg">
<path d="M10.1406 12.7969C9.91146 12.7969 9.71615 12.7161 9.55469 12.5547C9.39844 12.3932 9.32031 12.1979 9.32031 11.9688V8.34375L6.42969 5.4375C6.14323 5.15104 5.95833 4.8099 5.875 4.41406C5.79167 4.01302 5.82812 3.6224 5.98438 3.24219C6.14583 2.86719 6.39323 2.5651 6.72656 2.33594C7.0651 2.10677 7.4401 1.99219 7.85156 1.99219H11.7266C12.1797 1.99219 12.5625 2.15104 12.875 2.46875C13.1927 2.78125 13.3516 3.16406 13.3516 3.61719V6.375H15.7109C15.9349 6.375 16.125 6.45573 16.2812 6.61719C16.4427 6.77865 16.5234 6.97396 16.5234 7.20312C16.5234 7.42708 16.4427 7.61979 16.2812 7.78125C16.125 7.9375 15.9349 8.01562 15.7109 8.01562H12.5234C12.2995 8.01562 12.1068 7.9375 11.9453 7.78125C11.7839 7.61979 11.7031 7.42708 11.7031 7.20312V5.23438C11.7031 5.13021 11.6771 5.03906 11.625 4.96094C11.5729 4.8776 11.4766 4.83594 11.3359 4.83594H8.82031C8.73177 4.83594 8.67188 4.8724 8.64062 4.94531C8.60938 5.01302 8.6224 5.08073 8.67969 5.14844L10.7344 7.4375C10.8854 7.60938 10.9609 7.79688 10.9609 8V11.9688C10.9609 12.1979 10.8802 12.3932 10.7188 12.5547C10.5573 12.7161 10.3646 12.7969 10.1406 12.7969ZM4.32812 15.9922C3.72917 15.9922 3.16667 15.8802 2.64062 15.6562C2.11979 15.4323 1.65885 15.1198 1.25781 14.7188C0.861979 14.3229 0.552083 13.862 0.328125 13.3359C0.104167 12.8099 -0.0078125 12.2474 -0.0078125 11.6484C-0.0078125 11.0443 0.104167 10.4818 0.328125 9.96094C0.552083 9.4349 0.861979 8.97135 1.25781 8.57031C1.65885 8.16927 2.11979 7.85677 2.64062 7.63281C3.16667 7.40885 3.72917 7.29688 4.32812 7.29688C4.9375 7.29688 5.5026 7.40885 6.02344 7.63281C6.54948 7.85677 7.01042 8.16927 7.40625 8.57031C7.80729 8.97135 8.11979 9.4349 8.34375 9.96094C8.56771 10.4818 8.67969 11.0443 8.67969 11.6484C8.67969 12.2474 8.56771 12.8099 8.34375 13.3359C8.11979 13.862 7.80729 14.3229 7.40625 14.7188C7.01042 15.1198 6.54948 15.4323 6.02344 15.6562C5.5026 15.8802 4.9375 15.9922 4.32812 15.9922ZM4.32812 14.7812C4.90625 14.7812 5.43229 14.638 5.90625 14.3516C6.38021 14.0703 6.75781 13.6927 7.03906 13.2188C7.32031 12.7448 7.46094 12.2214 7.46094 11.6484C7.46094 11.0703 7.32031 10.5443 7.03906 10.0703C6.75781 9.59635 6.38021 9.21875 5.90625 8.9375C5.43229 8.65625 4.90625 8.51562 4.32812 8.51562C3.75521 8.51562 3.23177 8.65625 2.75781 8.9375C2.28385 9.21875 1.90625 9.59635 1.625 10.0703C1.34375 10.5443 1.20312 11.0703 1.20312 11.6484C1.20312 12.2214 1.34375 12.7448 1.625 13.2188C1.90625 13.6927 2.28385 14.0703 2.75781 14.3516C3.23177 14.638 3.75521 14.7812 4.32812 14.7812ZM18.0312 9.32031C17.849 9.15885 17.7552 8.99479 17.75 8.82812C17.75 8.66146 17.8021 8.52083 17.9062 8.40625C18.0156 8.29167 18.151 8.22396 18.3125 8.20312C18.4792 8.18229 18.6406 8.23958 18.7969 8.375C19.2552 8.78125 19.6172 9.26562 19.8828 9.82812C20.1484 10.3854 20.2812 10.9922 20.2812 11.6484C20.2812 12.2474 20.1693 12.8099 19.9453 13.3359C19.7214 13.862 19.4115 14.3229 19.0156 14.7188C18.6198 15.1198 18.1589 15.4323 17.6328 15.6562C17.1068 15.8802 16.5443 15.9922 15.9453 15.9922C15.3464 15.9922 14.7812 15.8802 14.25 15.6562C13.724 15.4323 13.263 15.1198 12.8672 14.7188C12.4714 14.3229 12.1615 13.862 11.9375 13.3359C11.7135 12.8099 11.6016 12.2474 11.6016 11.6484C11.6016 11.3307 11.6328 11.026 11.6953 10.7344C11.763 10.4375 11.8594 10.151 11.9844 9.875C12.0625 9.6875 12.1745 9.56771 12.3203 9.51562C12.4714 9.46354 12.6172 9.46354 12.7578 9.51562C12.9036 9.56771 13.013 9.67188 13.0859 9.82812C13.1641 9.98438 13.1562 10.1771 13.0625 10.4062C12.8958 10.7969 12.8125 11.2109 12.8125 11.6484C12.8125 12.2214 12.9531 12.7448 13.2344 13.2188C13.5156 13.6927 13.8932 14.0703 14.3672 14.3516C14.8411 14.638 15.3672 14.7812 15.9453 14.7812C16.5234 14.7812 17.0469 14.638 17.5156 14.3516C17.9896 14.0703 18.3672 13.6927 18.6484 13.2188C18.9297 12.7448 19.0703 12.2214 19.0703 11.6484C19.0703 11.1849 18.9766 10.7526 18.7891 10.3516C18.6016 9.95052 18.349 9.60677 18.0312 9.32031ZM15.8672 4.17188C15.5391 4.17188 15.2422 4.09375 14.9766 3.9375C14.7109 3.77604 14.4974 3.5625 14.3359 3.29688C14.1797 3.03125 14.1016 2.73698 14.1016 2.41406C14.1016 2.09115 14.1797 1.79688 14.3359 1.53125C14.4974 1.26562 14.7109 1.05469 14.9766 0.898438C15.2422 0.736979 15.5391 0.65625 15.8672 0.65625C16.1901 0.65625 16.4818 0.736979 16.7422 0.898438C17.0078 1.05469 17.2188 1.26562 17.375 1.53125C17.5312 1.79688 17.6094 2.09115 17.6094 2.41406C17.6094 2.73698 17.5312 3.03125 17.375 3.29688C17.2188 3.5625 17.0078 3.77604 16.7422 3.9375C16.4818 4.09375 16.1901 4.17188 15.8672 4.17188Z" fill="black"/>
</svg>
