<svg id="SvgjsSvg1001" width="288" height="288" xmlns="http://www.w3.org/2000/svg" version="1.1" xmlns:xlink="http://www.w3.org/1999/xlink" xmlns:svgjs="http://svgjs.com/svgjs"><defs id="SvgjsDefs1002"></defs><g id="SvgjsG1008"><svg xmlns="http://www.w3.org/2000/svg" fill="none" viewBox="0 0 16 17" width="288" height="288"><path stroke="#ffffff" stroke-linecap="round" stroke-linejoin="round" stroke-width="1.5" d="M11.3337 9.83341V13.8334M9.33366 11.8334H13.3337M4.00033 7.16675H5.33366C5.68728 7.16675 6.02642 7.02627 6.27647 6.77622C6.52652 6.52618 6.66699 6.18704 6.66699 5.83341V4.50008C6.66699 4.14646 6.52652 3.80732 6.27647 3.55727C6.02642 3.30722 5.68728 3.16675 5.33366 3.16675H4.00033C3.6467 3.16675 3.30756 3.30722 3.05752 3.55727C2.80747 3.80732 2.66699 4.14646 2.66699 4.50008V5.83341C2.66699 6.18704 2.80747 6.52618 3.05752 6.77622C3.30756 7.02627 3.6467 7.16675 4.00033 7.16675ZM10.667 7.16675H12.0003C12.3539 7.16675 12.6931 7.02627 12.9431 6.77622C13.1932 6.52618 13.3337 6.18704 13.3337 5.83341V4.50008C13.3337 4.14646 13.1932 3.80732 12.9431 3.55727C12.6931 3.30722 12.3539 3.16675 12.0003 3.16675H10.667C10.3134 3.16675 9.97423 3.30722 9.72418 3.55727C9.47414 3.80732 9.33366 4.14646 9.33366 4.50008V5.83341C9.33366 6.18704 9.47414 6.52618 9.72418 6.77622C9.97423 7.02627 10.3134 7.16675 10.667 7.16675ZM4.00033 13.8334H5.33366C5.68728 13.8334 6.02642 13.6929 6.27647 13.4429C6.52652 13.1928 6.66699 12.8537 6.66699 12.5001V11.1667C6.66699 10.8131 6.52652 10.474 6.27647 10.2239C6.02642 9.97389 5.68728 9.83341 5.33366 9.83341H4.00033C3.6467 9.83341 3.30756 9.97389 3.05752 10.2239C2.80747 10.474 2.66699 10.8131 2.66699 11.1667V12.5001C2.66699 12.8537 2.80747 13.1928 3.05752 13.4429C3.30756 13.6929 3.6467 13.8334 4.00033 13.8334Z" class="colorStrokeA9E2EF svgStroke"></path></svg></g></svg>