<svg width="16" height="17" viewBox="0 0 16 17" fill="none" xmlns="http://www.w3.org/2000/svg">
<path d="M4.00002 2.8999C3.57568 2.8999 3.16871 3.06847 2.86865 3.36853C2.5686 3.66859 2.40002 4.07556 2.40002 4.4999V6.0999C2.40002 6.52425 2.5686 6.93121 2.86865 7.23127C3.16871 7.53133 3.57568 7.6999 4.00002 7.6999H5.60002C6.02437 7.6999 6.43134 7.53133 6.7314 7.23127C7.03145 6.93121 7.20002 6.52425 7.20002 6.0999V4.4999C7.20002 4.07556 7.03145 3.66859 6.7314 3.36853C6.43134 3.06847 6.02437 2.8999 5.60002 2.8999H4.00002ZM4.00002 9.2999C3.57568 9.2999 3.16871 9.46847 2.86865 9.76853C2.5686 10.0686 2.40002 10.4756 2.40002 10.8999V12.4999C2.40002 12.9242 2.5686 13.3312 2.86865 13.6313C3.16871 13.9313 3.57568 14.0999 4.00002 14.0999H5.60002C6.02437 14.0999 6.43134 13.9313 6.7314 13.6313C7.03145 13.3312 7.20002 12.9242 7.20002 12.4999V10.8999C7.20002 10.4756 7.03145 10.0686 6.7314 9.76853C6.43134 9.46847 6.02437 9.2999 5.60002 9.2999H4.00002ZM8.80002 4.4999C8.80002 4.07556 8.9686 3.66859 9.26865 3.36853C9.56871 3.06847 9.97568 2.8999 10.4 2.8999H12C12.4244 2.8999 12.8313 3.06847 13.1314 3.36853C13.4315 3.66859 13.6 4.07556 13.6 4.4999V6.0999C13.6 6.52425 13.4315 6.93121 13.1314 7.23127C12.8313 7.53133 12.4244 7.6999 12 7.6999H10.4C9.97568 7.6999 9.56871 7.53133 9.26865 7.23127C8.9686 6.93121 8.80002 6.52425 8.80002 6.0999V4.4999ZM11.2 9.2999C11.4122 9.2999 11.6157 9.38419 11.7657 9.53422C11.9157 9.68425 12 9.88773 12 10.0999V10.8999H12.8C13.0122 10.8999 13.2157 10.9842 13.3657 11.1342C13.5157 11.2842 13.6 11.4877 13.6 11.6999C13.6 11.9121 13.5157 12.1156 13.3657 12.2656C13.2157 12.4156 13.0122 12.4999 12.8 12.4999H12V13.2999C12 13.5121 11.9157 13.7156 11.7657 13.8656C11.6157 14.0156 11.4122 14.0999 11.2 14.0999C10.9879 14.0999 10.7844 14.0156 10.6343 13.8656C10.4843 13.7156 10.4 13.5121 10.4 13.2999V12.4999H9.60002C9.38785 12.4999 9.18437 12.4156 9.03434 12.2656C8.88431 12.1156 8.80002 11.9121 8.80002 11.6999C8.80002 11.4877 8.88431 11.2842 9.03434 11.1342C9.18437 10.9842 9.38785 10.8999 9.60002 10.8999H10.4V10.0999C10.4 9.88773 10.4843 9.68425 10.6343 9.53422C10.7844 9.38419 10.9879 9.2999 11.2 9.2999Z" fill="white"/>
</svg>
