<svg width="16" height="16" viewBox="0 0 16 16" fill="none" xmlns="http://www.w3.org/2000/svg">
<path fill-rule="evenodd" clip-rule="evenodd" d="M9.19135 2.53636C8.88813 1.28736 7.11182 1.28736 6.8086 2.53636C6.61272 3.3432 5.68833 3.7261 4.97931 3.29408C3.88172 2.62531 2.62567 3.88135 3.29445 4.97894C3.72646 5.68797 3.34357 6.61236 2.53673 6.80823C1.28772 7.11145 1.28772 8.88777 2.53673 9.19099C3.34357 9.38686 3.72646 10.3113 3.29445 11.0203C2.62568 12.1179 3.88172 13.3739 4.97931 12.7051C5.68834 12.2731 6.61272 12.656 6.8086 13.4629C7.11182 14.7119 8.88813 14.7119 9.19135 13.4629C9.38723 12.656 10.3116 12.2731 11.0206 12.7051C12.1182 13.3739 13.3743 12.1179 12.7055 11.0203C12.2735 10.3113 12.6564 9.38686 13.4632 9.19099C14.7122 8.88777 14.7122 7.11145 13.4632 6.80823C12.6564 6.61236 12.2735 5.68797 12.7055 4.97894C13.3743 3.88135 12.1182 2.62531 11.0206 3.29408C10.3116 3.7261 9.38723 3.3432 9.19135 2.53636ZM7.99998 10.3996C9.32546 10.3996 10.4 9.32509 10.4 7.99961C10.4 6.67413 9.32546 5.59961 7.99998 5.59961C6.67449 5.59961 5.59998 6.67413 5.59998 7.99961C5.59998 9.32509 6.67449 10.3996 7.99998 10.3996Z" fill="#A9E2EF"/>
</svg>
