<svg width="24" height="24" viewBox="0 0 24 24" fill="none" xmlns="http://www.w3.org/2000/svg">
<path d="M8.24219 8.07812C7.91927 8.07812 7.625 8 7.35938 7.84375C7.09375 7.68229 6.88021 7.46875 6.71875 7.20312C6.5625 6.9375 6.48438 6.64323 6.48438 6.32031C6.48438 5.9974 6.5625 5.70573 6.71875 5.44531C6.88021 5.17969 7.09375 4.96875 7.35938 4.8125C7.625 4.65104 7.91927 4.57031 8.24219 4.57031C8.5651 4.57031 8.85938 4.65104 9.125 4.8125C9.39062 4.96875 9.60156 5.17969 9.75781 5.44531C9.91406 5.70573 9.99219 5.9974 9.99219 6.32031C9.99219 6.64323 9.91406 6.9375 9.75781 7.20312C9.60156 7.46875 9.39062 7.68229 9.125 7.84375C8.85938 8 8.5651 8.07812 8.24219 8.07812ZM12.6875 16.2812L10.25 20.7344C10.125 20.9635 9.94792 21.1016 9.71875 21.1484C9.49479 21.2005 9.28646 21.1771 9.09375 21.0781C8.88542 20.974 8.75 20.8073 8.6875 20.5781C8.625 20.349 8.65104 20.1302 8.76562 19.9219L11.1719 15.5156L11.25 15.375L13.1797 11.8203H9.50781C9.28906 11.8203 9.10417 11.7578 8.95312 11.6328C8.80729 11.5026 8.71354 11.3411 8.67188 11.1484C8.63021 10.9505 8.66667 10.75 8.78125 10.5469L11.5156 5.88281C11.5781 5.76823 11.5651 5.66927 11.4766 5.58594C11.1432 5.2474 10.7917 4.92188 10.4219 4.60938C10.0521 4.29688 9.65885 3.99479 9.24219 3.70312H5.84375C5.60938 3.70312 5.40885 3.61979 5.24219 3.45312C5.08073 3.28646 5 3.08333 5 2.84375C5 2.61458 5.08073 2.41667 5.24219 2.25C5.40885 2.08333 5.60938 2 5.84375 2H9.3125C9.45312 2 9.58594 2.02083 9.71094 2.0625C9.84115 2.10417 9.97656 2.16667 10.1172 2.25C11.1849 2.96354 12.1302 3.76042 12.9531 4.64062C13.776 5.51562 14.487 6.42969 15.0859 7.38281C15.6901 8.33594 16.2005 9.28385 16.6172 10.2266C17.0339 11.1641 17.3724 12.0521 17.6328 12.8906C17.8932 13.7292 18.0938 14.474 18.2344 15.125L18.2656 15.2734C18.4635 16.2214 18.6068 17.0703 18.6953 17.8203C18.7839 18.5703 18.8359 19.1667 18.8516 19.6094C18.8724 20.0573 18.8828 20.2943 18.8828 20.3203C18.8828 20.5599 18.8021 20.763 18.6406 20.9297C18.4792 21.0964 18.2786 21.1797 18.0391 21.1797C17.8099 21.1797 17.612 21.0938 17.4453 20.9219C17.2839 20.7552 17.2031 20.5469 17.2031 20.2969C17.2031 20.2031 17.1901 19.9479 17.1641 19.5312C17.138 19.1146 17.0833 18.5807 17 17.9297C16.9219 17.2786 16.7943 16.5495 16.6172 15.7422L15.1016 12.9609L12.6875 16.2812ZM10.9453 10.1562H12.5703L11.875 9.11719C11.8333 9.0651 11.7786 9.03646 11.7109 9.03125C11.6432 9.02083 11.5859 9.05729 11.5391 9.14062L10.9453 10.1562Z" fill="#000B19"/>
</svg>
