<svg width="12" height="13" viewBox="0 0 12 13" fill="none" xmlns="http://www.w3.org/2000/svg">
<path fill-rule="evenodd" clip-rule="evenodd" d="M10.6242 6.07599C10.7366 6.18851 10.7998 6.3411 10.7998 6.5002C10.7998 6.65929 10.7366 6.81188 10.6242 6.9244L6.42415 11.1244C6.31164 11.2369 6.15905 11.3001 5.99995 11.3001C5.84085 11.3001 5.68827 11.2369 5.57575 11.1244L1.37575 6.9244C1.31995 6.86875 1.2757 6.80263 1.24553 6.72984C1.21536 6.65704 1.19987 6.579 1.19995 6.5002V3.5002C1.19995 3.02281 1.38959 2.56497 1.72716 2.2274C2.06472 1.88984 2.52256 1.7002 2.99995 1.7002H5.99995C6.15355 1.7002 6.30715 1.759 6.42415 1.876L10.6242 6.07599ZM2.99995 4.1002C3.15908 4.1002 3.31169 4.03698 3.42422 3.92446C3.53674 3.81194 3.59995 3.65933 3.59995 3.5002C3.59995 3.34107 3.53674 3.18845 3.42422 3.07593C3.31169 2.96341 3.15908 2.9002 2.99995 2.9002C2.84082 2.9002 2.68821 2.96341 2.57569 3.07593C2.46317 3.18845 2.39995 3.34107 2.39995 3.5002C2.39995 3.65933 2.46317 3.81194 2.57569 3.92446C2.68821 4.03698 2.84082 4.1002 2.99995 4.1002Z" fill="white"/>
</svg>
