<svg width="6" height="4" viewBox="0 0 6 4" fill="none" xmlns="http://www.w3.org/2000/svg">
<path fill-rule="evenodd" clip-rule="evenodd" d="M5.47617 3.65706C5.38475 3.74845 5.26078 3.79979 5.13151 3.79979C5.00224 3.79979 4.87827 3.74845 4.78685 3.65706L3.18151 2.05172L1.57617 3.65706C1.48423 3.74586 1.36108 3.795 1.23326 3.79389C1.10544 3.79278 0.983172 3.74151 0.892786 3.65112C0.802399 3.56073 0.751129 3.43846 0.750018 3.31064C0.748908 3.18282 0.798045 3.05968 0.886847 2.96773L2.83685 1.01773C2.92827 0.926341 3.05224 0.875 3.18151 0.875C3.31078 0.875 3.43475 0.926341 3.52617 1.01773L5.47617 2.96773C5.56756 3.05915 5.61891 3.18313 5.61891 3.3124C5.61891 3.44166 5.56756 3.56564 5.47617 3.65706Z" fill="#878E97"/>
</svg>
