<svg width="8" height="5" viewBox="0 0 8 5" fill="none" xmlns="http://www.w3.org/2000/svg">
<path fill-rule="evenodd" clip-rule="evenodd" d="M0.234412 0.334074C0.384435 0.184098 0.587881 0.0998452 0.800012 0.0998452C1.01214 0.0998452 1.21559 0.184098 1.36561 0.334074L4.00001 2.96847L6.63441 0.334074C6.70821 0.257666 6.79649 0.19672 6.89409 0.154793C6.99169 0.112866 7.09667 0.090797 7.20289 0.089874C7.30912 0.0889509 7.41446 0.109192 7.51278 0.149417C7.61109 0.189642 7.70041 0.249044 7.77553 0.324158C7.85064 0.399272 7.91005 0.488594 7.95027 0.586911C7.99049 0.685228 8.01074 0.790572 8.00981 0.896795C8.00889 1.00302 7.98682 1.10799 7.94489 1.2056C7.90297 1.3032 7.84202 1.39148 7.76561 1.46527L4.56561 4.66527C4.41559 4.81525 4.21214 4.8995 4.00001 4.8995C3.78788 4.8995 3.58443 4.81525 3.43441 4.66527L0.234412 1.46527C0.0844355 1.31525 0.000183105 1.11181 0.000183105 0.899674C0.000183105 0.687543 0.0844355 0.484097 0.234412 0.334074Z" fill="#878E97"/>
</svg>
