<svg width="20" height="20" viewBox="0 0 20 20" fill="none" xmlns="http://www.w3.org/2000/svg">
<path d="M14.1667 6.66536H15.8333C16.2754 6.66536 16.6993 6.84096 17.0118 7.15352C17.3244 7.46608 17.5 7.89 17.5 8.33203V13.332C17.5 13.7741 17.3244 14.198 17.0118 14.5105C16.6993 14.8231 16.2754 14.9987 15.8333 14.9987H14.1667V18.332L10.8333 14.9987H7.5C7.28111 14.9989 7.06433 14.9559 6.86211 14.8721C6.6599 14.7883 6.47623 14.6654 6.32167 14.5104M6.32167 14.5104L9.16667 11.6654H12.5C12.942 11.6654 13.366 11.4898 13.6785 11.1772C13.9911 10.8646 14.1667 10.4407 14.1667 9.9987V4.9987C14.1667 4.55667 13.9911 4.13275 13.6785 3.82019C13.366 3.50763 12.942 3.33203 12.5 3.33203H4.16667C3.72464 3.33203 3.30072 3.50763 2.98816 3.82019C2.67559 4.13275 2.5 4.55667 2.5 4.9987V9.9987C2.5 10.4407 2.67559 10.8646 2.98816 11.1772C3.30072 11.4898 3.72464 11.6654 4.16667 11.6654H5.83333V14.9987L6.32167 14.5104Z" stroke="#000B19" stroke-width="1.5" stroke-linecap="round" stroke-linejoin="round"/>
</svg>
