<svg width="7" height="6" viewBox="0 0 7 6" fill="none" xmlns="http://www.w3.org/2000/svg">
<path fill-rule="evenodd" clip-rule="evenodd" d="M6.85517 0.646393C6.9489 0.740157 7.00156 0.867311 7.00156 0.999893C7.00156 1.13248 6.9489 1.25963 6.85517 1.35339L2.85517 5.35339C2.7614 5.44713 2.63425 5.49979 2.50167 5.49979C2.36909 5.49979 2.24193 5.44713 2.14817 5.35339L0.148168 3.35339C0.0570893 3.25909 0.00669219 3.13279 0.0078314 3.00169C0.00897061 2.87059 0.0615551 2.74519 0.154259 2.65248C0.246963 2.55978 0.372369 2.5072 0.503468 2.50606C0.634566 2.50492 0.760867 2.55531 0.855168 2.64639L2.50167 4.29289L6.14817 0.646393C6.24193 0.552658 6.36909 0.5 6.50167 0.5C6.63425 0.5 6.7614 0.552658 6.85517 0.646393Z" fill="#0C343D"/>
</svg>
