<svg width="16" height="16" viewBox="0 0 16 16" fill="none" xmlns="http://www.w3.org/2000/svg">
<path fill-rule="evenodd" clip-rule="evenodd" d="M7.99961 14.4016C9.69699 14.4016 11.3249 13.7273 12.5251 12.527C13.7253 11.3268 14.3996 9.69895 14.3996 8.00156C14.3996 6.30418 13.7253 4.67631 12.5251 3.47608C11.3249 2.27585 9.69699 1.60156 7.99961 1.60156C6.30222 1.60156 4.67436 2.27585 3.47413 3.47608C2.27389 4.67631 1.59961 6.30418 1.59961 8.00156C1.59961 9.69895 2.27389 11.3268 3.47413 12.527C4.67436 13.7273 6.30222 14.4016 7.99961 14.4016ZM8.79961 4.80156C8.79961 4.58939 8.71532 4.38591 8.56529 4.23588C8.41527 4.08585 8.21178 4.00156 7.99961 4.00156C7.78744 4.00156 7.58395 4.08585 7.43392 4.23588C7.2839 4.38591 7.19961 4.58939 7.19961 4.80156V8.00156C7.19965 8.21372 7.28397 8.41717 7.43401 8.56716L9.69641 10.8304C9.77074 10.9047 9.85898 10.9637 9.95609 11.0039C10.0532 11.0441 10.1573 11.0648 10.2624 11.0648C10.3675 11.0648 10.4716 11.0441 10.5687 11.0039C10.6658 10.9637 10.7541 10.9047 10.8284 10.8304C10.9027 10.756 10.9617 10.6678 11.0019 10.5707C11.0422 10.4736 11.0629 10.3695 11.0629 10.2644C11.0629 10.1592 11.0422 10.0552 11.0019 9.95805C10.9617 9.86093 10.9027 9.77269 10.8284 9.69836L8.79961 7.67036V4.80156Z" fill="white"/>
</svg>
