<svg width="32" height="32" viewBox="0 0 32 32" fill="none" xmlns="http://www.w3.org/2000/svg">
<g filter="url(#filter0_b_792_17611)">
<rect width="32" height="32" rx="16" fill="#DBECF0"/>
<rect x="0.5" y="0.5" width="31" height="31" rx="15.5" stroke="url(#paint0_linear_792_17611)"/>
<path d="M19.1812 12.3328C18.927 12.3328 18.6957 12.2724 18.4874 12.1516C18.2791 12.0266 18.1124 11.862 17.9874 11.6578C17.8666 11.4495 17.8062 11.2182 17.8062 10.9641C17.8062 10.7099 17.8666 10.4807 17.9874 10.2766C18.1124 10.0682 18.2791 9.90365 18.4874 9.78281C18.6957 9.66198 18.927 9.60156 19.1812 9.60156C19.4312 9.60156 19.6582 9.66198 19.8624 9.78281C20.0707 9.90365 20.2353 10.0682 20.3562 10.2766C20.477 10.4807 20.5374 10.7099 20.5374 10.9641C20.5374 11.2182 20.477 11.4495 20.3562 11.6578C20.2353 11.862 20.0707 12.0266 19.8624 12.1516C19.6582 12.2724 19.4312 12.3328 19.1812 12.3328ZM14.9249 23.4891C14.7457 23.4891 14.5937 23.4266 14.4687 23.3016C14.3437 23.1766 14.2812 23.0245 14.2812 22.8453V19.3391L13.7999 16.5141L10.9374 16.0391C10.7749 16.0099 10.6437 15.9432 10.5437 15.8391C10.4478 15.7307 10.3999 15.5703 10.3999 15.3578V11.5203C10.3999 11.3286 10.4582 11.1745 10.5749 11.0578C10.6957 10.937 10.852 10.8766 11.0437 10.8766C11.2395 10.8766 11.3957 10.937 11.5124 11.0578C11.6332 11.1745 11.6937 11.3286 11.6937 11.5203V14.7641H14.9249C15.2707 14.7641 15.577 14.6849 15.8437 14.5266C16.1103 14.3641 16.3332 14.1391 16.5124 13.8516C16.5624 13.7682 16.5707 13.687 16.5374 13.6078C16.5082 13.5286 16.4541 13.4745 16.3749 13.4453L12.9687 12.3078C12.7645 12.2411 12.6291 12.1266 12.5624 11.9641C12.4999 11.7974 12.4937 11.637 12.5437 11.4828C12.5937 11.3286 12.6895 11.2057 12.8312 11.1141C12.977 11.0182 13.1603 11.0078 13.3812 11.0828L22.8562 14.2453C23.0603 14.312 23.1937 14.4286 23.2562 14.5953C23.3187 14.7578 23.3249 14.9161 23.2749 15.0703C23.2291 15.2245 23.1332 15.3495 22.9874 15.4453C22.8416 15.537 22.6603 15.5453 22.4437 15.4703L19.2812 14.4078C19.1562 14.362 19.0562 14.3536 18.9812 14.3828C18.9062 14.4078 18.8562 14.4516 18.8312 14.5141C18.5312 15.1599 18.0916 15.7036 17.5124 16.1453C16.9332 16.5828 16.2874 16.8599 15.5749 16.9766V22.8453C15.5749 23.0245 15.5103 23.1766 15.3812 23.3016C15.252 23.4266 15.0999 23.4891 14.9249 23.4891Z" fill="#000B19"/>
</g>
<defs>
<filter id="filter0_b_792_17611" x="-115.377" y="-115.377" width="262.754" height="262.754" filterUnits="userSpaceOnUse" color-interpolation-filters="sRGB">
<feFlood flood-opacity="0" result="BackgroundImageFix"/>
<feGaussianBlur in="BackgroundImageFix" stdDeviation="57.6885"/>
<feComposite in2="SourceAlpha" operator="in" result="effect1_backgroundBlur_792_17611"/>
<feBlend mode="normal" in="SourceGraphic" in2="effect1_backgroundBlur_792_17611" result="shape"/>
</filter>
<linearGradient id="paint0_linear_792_17611" x1="2.24176" y1="-7.09502e-06" x2="17.4878" y2="35.0987" gradientUnits="userSpaceOnUse">
<stop stop-color="#E6E6E6" stop-opacity="0.25"/>
<stop offset="0.605751" stop-color="#E6E6E6" stop-opacity="0.02"/>
<stop offset="0.701033" stop-color="#E6E6E6" stop-opacity="0.02"/>
<stop offset="1" stop-color="#E6E6E6" stop-opacity="0.1"/>
</linearGradient>
</defs>
</svg>
