<svg width="20" height="20" viewBox="0 0 20 20" fill="none" xmlns="http://www.w3.org/2000/svg">
<path d="M2.5 8.33073H17.5M5.83333 12.4974H6.66667M10 12.4974H10.8333M5 15.8307H15C15.663 15.8307 16.2989 15.5673 16.7678 15.0985C17.2366 14.6297 17.5 13.9938 17.5 13.3307V6.66406C17.5 6.00102 17.2366 5.36514 16.7678 4.8963C16.2989 4.42745 15.663 4.16406 15 4.16406H5C4.33696 4.16406 3.70107 4.42745 3.23223 4.8963C2.76339 5.36514 2.5 6.00102 2.5 6.66406V13.3307C2.5 13.9938 2.76339 14.6297 3.23223 15.0985C3.70107 15.5673 4.33696 15.8307 5 15.8307Z" stroke="#000B19" stroke-width="1.5" stroke-linecap="round" stroke-linejoin="round"/>
</svg>
