<svg width="18" height="18" viewBox="0 0 18 18" fill="none" xmlns="http://www.w3.org/2000/svg">
<path d="M15.6734 2.3278C15.3358 1.99035 14.8781 1.80078 14.4008 1.80078C13.9235 1.80078 13.4657 1.99035 13.1282 2.3278L6.30078 9.1552V11.7004H8.84598L15.6734 4.873C16.0108 4.53545 16.2004 4.07769 16.2004 3.6004C16.2004 3.1231 16.0108 2.66535 15.6734 2.3278Z" fill="#000B19"/>
<path fill-rule="evenodd" clip-rule="evenodd" d="M1.80078 5.40156C1.80078 4.92417 1.99042 4.46634 2.32799 4.12877C2.66555 3.7912 3.12339 3.60156 3.60078 3.60156H7.20078C7.43948 3.60156 7.66839 3.69638 7.83718 3.86517C8.00596 4.03395 8.10078 4.26287 8.10078 4.50156C8.10078 4.74026 8.00596 4.96918 7.83718 5.13796C7.66839 5.30674 7.43948 5.40156 7.20078 5.40156H3.60078V14.4016H12.6008V10.8016C12.6008 10.5629 12.6956 10.3339 12.8644 10.1652C13.0332 9.99638 13.2621 9.90156 13.5008 9.90156C13.7395 9.90156 13.9684 9.99638 14.1372 10.1652C14.306 10.3339 14.4008 10.5629 14.4008 10.8016V14.4016C14.4008 14.879 14.2111 15.3368 13.8736 15.6744C13.536 16.0119 13.0782 16.2016 12.6008 16.2016H3.60078C3.12339 16.2016 2.66555 16.0119 2.32799 15.6744C1.99042 15.3368 1.80078 14.879 1.80078 14.4016V5.40156Z" fill="#000B19"/>
</svg>
