<svg width="20" height="20" viewBox="0 0 20 20" fill="none" xmlns="http://www.w3.org/2000/svg">
<path d="M8.74935 14.168H3.33268V12.5013H8.74935C10.3602 12.5013 11.666 13.8071 11.666 15.418C11.666 17.0288 10.3602 18.3346 8.74935 18.3346C7.49899 18.3346 6.4324 17.5479 6.01765 16.4424L7.57862 15.857C7.75637 16.3308 8.21348 16.668 8.74935 16.668C9.43968 16.668 9.99935 16.1083 9.99935 15.418C9.99935 14.7276 9.43968 14.168 8.74935 14.168ZM4.16602 9.16797H15.416C17.0268 9.16797 18.3327 10.4738 18.3327 12.0846C18.3327 13.6955 17.0268 15.0013 15.416 15.0013C14.1657 15.0013 13.0991 14.2146 12.6843 13.1091L14.2453 12.5236C14.423 12.9975 14.8802 13.3346 15.416 13.3346C16.1063 13.3346 16.666 12.775 16.666 12.0846C16.666 11.3943 16.1063 10.8346 15.416 10.8346H4.16602C2.78531 10.8346 1.66602 9.71539 1.66602 8.33464C1.66602 6.95393 2.78531 5.83464 4.16602 5.83464H11.2493C11.9397 5.83464 12.4993 5.27499 12.4993 4.58464C12.4993 3.89428 11.9397 3.33464 11.2493 3.33464C10.7135 3.33464 10.2563 3.67183 10.0786 4.14561L8.51768 3.56024C8.93243 2.45475 9.99902 1.66797 11.2493 1.66797C12.8602 1.66797 14.166 2.9738 14.166 4.58464C14.166 6.19547 12.8602 7.5013 11.2493 7.5013H4.16602C3.70578 7.5013 3.33268 7.8744 3.33268 8.33464C3.33268 8.79489 3.70578 9.16797 4.16602 9.16797Z" fill="black"/>
</svg>
