<svg width="24" height="24" viewBox="0 0 24 24" fill="none" xmlns="http://www.w3.org/2000/svg">
<path fill-rule="evenodd" clip-rule="evenodd" d="M6.00039 2.39844C6.31865 2.39844 6.62388 2.52487 6.84892 2.74991C7.07396 2.97495 7.20039 3.28018 7.20039 3.59844V4.79844H8.40039C8.71865 4.79844 9.02388 4.92487 9.24892 5.14991C9.47396 5.37495 9.60039 5.68018 9.60039 5.99844C9.60039 6.3167 9.47396 6.62192 9.24892 6.84697C9.02388 7.07201 8.71865 7.19844 8.40039 7.19844H7.20039V8.39844C7.20039 8.7167 7.07396 9.02192 6.84892 9.24697C6.62388 9.47201 6.31865 9.59844 6.00039 9.59844C5.68213 9.59844 5.37691 9.47201 5.15186 9.24697C4.92682 9.02192 4.80039 8.7167 4.80039 8.39844V7.19844H3.60039C3.28213 7.19844 2.97691 7.07201 2.75186 6.84697C2.52682 6.62192 2.40039 6.3167 2.40039 5.99844C2.40039 5.68018 2.52682 5.37495 2.75186 5.14991C2.97691 4.92487 3.28213 4.79844 3.60039 4.79844H4.80039V3.59844C4.80039 3.28018 4.92682 2.97495 5.15186 2.74991C5.37691 2.52487 5.68213 2.39844 6.00039 2.39844ZM6.00039 14.3984C6.31865 14.3984 6.62388 14.5249 6.84892 14.7499C7.07396 14.975 7.20039 15.2802 7.20039 15.5984V16.7984H8.40039C8.71865 16.7984 9.02388 16.9249 9.24892 17.1499C9.47396 17.375 9.60039 17.6802 9.60039 17.9984C9.60039 18.3167 9.47396 18.6219 9.24892 18.847C9.02388 19.072 8.71865 19.1984 8.40039 19.1984H7.20039V20.3984C7.20039 20.7167 7.07396 21.0219 6.84892 21.247C6.62388 21.472 6.31865 21.5984 6.00039 21.5984C5.68213 21.5984 5.37691 21.472 5.15186 21.247C4.92682 21.0219 4.80039 20.7167 4.80039 20.3984V19.1984H3.60039C3.28213 19.1984 2.97691 19.072 2.75186 18.847C2.52682 18.6219 2.40039 18.3167 2.40039 17.9984C2.40039 17.6802 2.52682 17.375 2.75186 17.1499C2.97691 16.9249 3.28213 16.7984 3.60039 16.7984H4.80039V15.5984C4.80039 15.2802 4.92682 14.975 5.15186 14.7499C5.37691 14.5249 5.68213 14.3984 6.00039 14.3984ZM14.4004 2.39844C14.6652 2.39835 14.9226 2.48587 15.1325 2.64736C15.3424 2.80885 15.493 3.03524 15.5608 3.29124L16.9756 8.63844L21.0004 10.9592C21.1828 11.0646 21.3343 11.216 21.4396 11.3985C21.5449 11.5809 21.6003 11.7878 21.6003 11.9984C21.6003 12.2091 21.5449 12.416 21.4396 12.5984C21.3343 12.7808 21.1828 12.9323 21.0004 13.0376L16.9756 15.3596L15.5596 20.7056C15.4917 20.9614 15.3411 21.1875 15.1314 21.3488C14.9216 21.5102 14.6644 21.5976 14.3998 21.5976C14.1352 21.5976 13.878 21.5102 13.6682 21.3488C13.4585 21.1875 13.3079 20.9614 13.24 20.7056L11.8252 15.3584L7.80039 13.0376C7.61798 12.9323 7.46651 12.7808 7.3612 12.5984C7.25589 12.416 7.20044 12.2091 7.20044 11.9984C7.20044 11.7878 7.25589 11.5809 7.3612 11.3985C7.46651 11.216 7.61798 11.0646 7.80039 10.9592L11.8252 8.63724L13.2412 3.29124C13.3089 3.03543 13.4593 2.8092 13.669 2.64773C13.8786 2.48626 14.1358 2.39862 14.4004 2.39844Z" fill="white"/>
</svg>
