<svg width="24" height="24" viewBox="0 0 24 24" fill="none" xmlns="http://www.w3.org/2000/svg">
<path d="M13.0453 1.83788L13.0452 1.83772C12.7239 0.848052 11.3461 0.824571 10.9765 1.77246L10.9547 1.83948L9.24269 7.10668L9.24255 7.10712C9.10515 7.52849 8.83797 7.89559 8.47925 8.15586C8.12056 8.41611 7.68873 8.55621 7.24558 8.55613C7.24553 8.55613 7.24549 8.55613 7.24545 8.55613H1.70798C0.644488 8.55613 0.19938 9.91977 1.06101 10.5476L13.0453 1.83788ZM13.0453 1.83788L14.7573 7.10508L14.7574 7.10553M13.0453 1.83788L14.7574 7.10553M14.7574 7.10553C14.8947 7.52655 15.1616 7.8934 15.5199 8.15364C15.8782 8.41389 16.3096 8.5542 16.7524 8.55452H16.7528M14.7574 7.10553L16.7528 8.55452M16.7528 8.55452H22.292M16.7528 8.55452H22.292M22.292 8.55452C23.3564 8.55452 23.8011 9.91782 22.9389 10.546L22.292 8.55452ZM5.53918 13.8002L1.06145 10.5479L22.9385 10.5463L18.4592 13.8002C18.4591 13.8003 18.459 13.8003 18.4589 13.8004C18.1 14.0608 17.8328 14.4282 17.6955 14.8499C17.5582 15.2717 17.5579 15.7261 17.6948 16.148L17.6949 16.1483L19.4069 21.4155L19.407 21.4158C19.7365 22.4275 18.5773 23.2732 17.7122 22.6452C17.7122 22.6452 17.7122 22.6452 17.7122 22.6451L13.2322 19.3908L13.2321 19.3907C12.8735 19.1303 12.4416 18.9901 11.9984 18.9901C11.5552 18.9901 11.1233 19.1303 10.7646 19.3907L10.7645 19.3908L6.28451 22.6452L6.28435 22.6453C5.42275 23.2717 4.26247 22.4294 4.59149 21.4155C4.59151 21.4154 4.59153 21.4154 4.59154 21.4153L6.30349 16.1483L6.30358 16.148C6.44045 15.7261 6.4402 15.2717 6.30288 14.8499C6.16559 14.4282 5.89833 14.0608 5.53941 13.8004C5.53934 13.8003 5.53926 13.8003 5.53918 13.8002Z" stroke="#F4B003"/>
</svg>
