<svg width="12" height="12" viewBox="0 0 12 12" fill="none" xmlns="http://www.w3.org/2000/svg">
<path d="M5.23879 0.841663C5.47879 0.104862 6.52119 0.104862 6.76039 0.841663L7.61639 3.47526C7.66869 3.63565 7.77035 3.77541 7.90685 3.87455C8.04334 3.97369 8.20769 4.02714 8.37639 4.02726H11.146C11.9212 4.02726 12.2428 5.01926 11.6164 5.47526L9.37639 7.10246C9.23961 7.20169 9.13777 7.34167 9.08546 7.50234C9.03314 7.66302 9.03305 7.83613 9.08519 7.99686L9.94119 10.6305C10.1812 11.3673 9.33719 11.9809 8.70919 11.5249L6.46919 9.89766C6.33255 9.79846 6.16804 9.74504 5.99919 9.74504C5.83034 9.74504 5.66582 9.79846 5.52919 9.89766L3.28919 11.5249C2.66199 11.9809 1.81879 11.3673 2.05799 10.6305L2.91399 7.99686C2.96613 7.83613 2.96603 7.66302 2.91372 7.50234C2.86141 7.34167 2.75956 7.20169 2.62279 7.10246L0.383589 5.47606C-0.242811 5.02006 0.0795887 4.02806 0.853989 4.02806H3.62279C3.79163 4.02811 3.95615 3.97473 4.09281 3.87558C4.22947 3.77643 4.33125 3.63658 4.38359 3.47606L5.23959 0.842462L5.23879 0.841663Z" fill="#F4B003"/>
</svg>
