<svg width="17" height="16" viewBox="0 0 17 16" fill="none" xmlns="http://www.w3.org/2000/svg">
<path fill-rule="evenodd" clip-rule="evenodd" d="M8.16672 14.4C9.86411 14.4 11.492 13.7257 12.6922 12.5255C13.8924 11.3252 14.5667 9.69736 14.5667 7.99998C14.5667 6.30259 13.8924 4.67473 12.6922 3.47449C11.492 2.27426 9.86411 1.59998 8.16672 1.59998C6.46934 1.59998 4.84147 2.27426 3.64124 3.47449C2.44101 4.67473 1.76672 6.30259 1.76672 7.99998C1.76672 9.69736 2.44101 11.3252 3.64124 12.5255C4.84147 13.7257 6.46934 14.4 8.16672 14.4ZM7.13232 5.83438C6.98144 5.68865 6.77936 5.60801 6.5696 5.60984C6.35985 5.61166 6.1592 5.69579 6.01087 5.84412C5.86254 5.99245 5.77841 6.1931 5.77658 6.40285C5.77476 6.61261 5.8554 6.81469 6.00112 6.96558L7.03552 7.99998L6.00112 9.03438C5.92472 9.10817 5.86377 9.19645 5.82184 9.29405C5.77992 9.39166 5.75785 9.49663 5.75692 9.60285C5.756 9.70908 5.77624 9.81442 5.81647 9.91274C5.85669 10.0111 5.91609 10.1004 5.99121 10.1755C6.06632 10.2506 6.15564 10.31 6.25396 10.3502C6.35228 10.3905 6.45762 10.4107 6.56384 10.4098C6.67007 10.4089 6.77504 10.3868 6.87265 10.3449C6.97025 10.3029 7.05853 10.242 7.13232 10.1656L8.16672 9.13118L9.20112 10.1656C9.35201 10.3113 9.55409 10.3919 9.76384 10.3901C9.9736 10.3883 10.1743 10.3042 10.3226 10.1558C10.4709 10.0075 10.555 9.80685 10.5569 9.5971C10.5587 9.38734 10.4781 9.18526 10.3323 9.03438L9.29792 7.99998L10.3323 6.96558C10.4781 6.81469 10.5587 6.61261 10.5569 6.40285C10.555 6.1931 10.4709 5.99245 10.3226 5.84412C10.1743 5.69579 9.9736 5.61166 9.76384 5.60984C9.55409 5.60801 9.35201 5.68865 9.20112 5.83438L8.16672 6.86878L7.13232 5.83438Z" fill="#D56C6C"/>
</svg>
