<svg width="17" height="16" viewBox="0 0 17 16" fill="none" xmlns="http://www.w3.org/2000/svg">
<path fill-rule="evenodd" clip-rule="evenodd" d="M8.16672 14.4C9.86411 14.4 11.492 13.7257 12.6922 12.5255C13.8924 11.3252 14.5667 9.69736 14.5667 7.99998C14.5667 6.30259 13.8924 4.67473 12.6922 3.47449C11.492 2.27426 9.86411 1.59998 8.16672 1.59998C6.46934 1.59998 4.84147 2.27426 3.64124 3.47449C2.44101 4.67473 1.76672 6.30259 1.76672 7.99998C1.76672 9.69736 2.44101 11.3252 3.64124 12.5255C4.84147 13.7257 6.46934 14.4 8.16672 14.4ZM8.96672 4.79998C8.96672 4.5878 8.88244 4.38432 8.73241 4.23429C8.58238 4.08426 8.3789 3.99998 8.16672 3.99998C7.95455 3.99998 7.75107 4.08426 7.60104 4.23429C7.45101 4.38432 7.36672 4.5878 7.36672 4.79998V7.99998C7.36677 8.21213 7.45108 8.41558 7.60112 8.56558L9.86352 10.8288C9.93785 10.9031 10.0261 10.9621 10.1232 11.0023C10.2203 11.0425 10.3244 11.0632 10.4295 11.0632C10.5346 11.0632 10.6387 11.0425 10.7358 11.0023C10.833 10.9621 10.9212 10.9031 10.9955 10.8288C11.0699 10.7544 11.1288 10.6662 11.169 10.5691C11.2093 10.472 11.23 10.3679 11.23 10.2628C11.23 10.1577 11.2093 10.0536 11.169 9.95646C11.1288 9.85934 11.0699 9.7711 10.9955 9.69678L8.96672 7.66878V4.79998Z" fill="#878E97"/>
</svg>
